<?xml version="1.0" encoding="UTF-8" standalone="no"?>
<svg
   width="16.000002"
   height="16.000002"
   viewBox="0 0 4.2333336 4.2333336"
   version="1.1"
   id="svg4648"
   inkscape:version="1.3 (1:1.3+202307231459+0e150ed6c4)"
   sodipodi:docname="logo4.svg"
   inkscape:export-filename="logo3.png"
   inkscape:export-xdpi="767.99994"
   inkscape:export-ydpi="767.99994"
   xmlns:inkscape="http://www.inkscape.org/namespaces/inkscape"
   xmlns:sodipodi="http://sodipodi.sourceforge.net/DTD/sodipodi-0.dtd"
   xmlns="http://www.w3.org/2000/svg"
   xmlns:svg="http://www.w3.org/2000/svg"
   xmlns:rdf="http://www.w3.org/1999/02/22-rdf-syntax-ns#"
   xmlns:cc="http://creativecommons.org/ns#"
   xmlns:dc="http://purl.org/dc/elements/1.1/">
  <defs
     id="defs4642" />
  <sodipodi:namedview
     id="base"
     pagecolor="#ffffff"
     bordercolor="#666666"
     borderopacity="1.0"
     inkscape:pageopacity="0.0"
     inkscape:pageshadow="2"
     inkscape:zoom="170.47"
     inkscape:cx="4.0388338"
     inkscape:cy="5.6930838"
     inkscape:document-units="px"
     inkscape:current-layer="layer1"
     inkscape:document-rotation="0"
     showgrid="false"
     fit-margin-top="0"
     fit-margin-left="0"
     fit-margin-right="0"
     fit-margin-bottom="0"
     units="px"
     inkscape:window-width="1920"
     inkscape:window-height="1020"
     inkscape:window-x="0"
     inkscape:window-y="0"
     inkscape:window-maximized="1"
     inkscape:showpageshadow="2"
     inkscape:pagecheckerboard="0"
     inkscape:deskcolor="#d1d1d1" />
  <metadata
     id="metadata4645">
    <rdf:RDF>
      <cc:Work
         rdf:about="">
        <dc:format>image/svg+xml</dc:format>
        <dc:type
           rdf:resource="http://purl.org/dc/dcmitype/StillImage" />
      </cc:Work>
    </rdf:RDF>
  </metadata>
  <g
     inkscape:label="Layer 1"
     inkscape:groupmode="layer"
     id="layer1"
     transform="translate(-67.430954,-92.37738)">
    <g
       id="g1460"
       transform="translate(18.483034,20.939881)">
      <path
         id="path3066-9"
         style="font-family:none;font-variation-settings:normal;mix-blend-mode:normal;vector-effect:none;fill:#e76f51;fill-opacity:1;stroke:none;stroke-width:0.0150359;stroke-linecap:butt;stroke-linejoin:miter;stroke-miterlimit:4;stroke-dasharray:none;stroke-dashoffset:0;stroke-opacity:1;stop-color:#000000"
         d="m 49.142864,74.035401 c -6.02e-4,0.246306 0.132631,0.461691 0.332721,0.577272 l 0.26608,-1.152811 c -0.364226,-0.05437 -0.592445,0.297558 -0.598801,0.575539 z"
         inkscape:transform-center-x="0.13376278"
         inkscape:transform-center-y="-0.018341268"
         sodipodi:nodetypes="cccc" />
      <path
         d="m 49.2125,73.025 c 0,-0.146125 0.11846,-0.264584 0.264586,-0.264584 0.146123,0 0.264581,0.118459 0.264581,0.264584 0,0.146127 -0.118458,0.264583 -0.264581,0.264583 -0.146126,0 -0.264586,-0.118456 -0.264586,-0.264583 z"
         id="path3072-1"
         fill="#5c8b93"
         fill-rule="nonzero"
         stroke-width="0.351404"
         stroke-linecap="butt"
         stroke-linejoin="miter"
         stroke-miterlimit="4"
         style="font-family:none;font-variation-settings:normal;mix-blend-mode:normal;vector-effect:none;fill:#ffffff;fill-opacity:1;stroke:none;stroke-width:0.0170486;stroke-linecap:round;stroke-linejoin:round;stroke-miterlimit:4;stroke-dasharray:none;stroke-dashoffset:0;stroke-opacity:1;stop-color:#000000" />
      <path
         id="path3072-1-6"
         style="font-family:none;font-variation-settings:normal;mix-blend-mode:normal;vector-effect:none;fill:#1a1a1a;fill-opacity:1;stroke:none;stroke-width:0.0170384;stroke-linecap:round;stroke-linejoin:round;stroke-miterlimit:4;stroke-dasharray:none;stroke-dashoffset:0;stroke-opacity:1;stop-color:#000000"
         d="m 0.52932551,1.3229166 c -0.0117656,0 -0.0232431,0.00109 -0.0346024,0.00258 -0.0278475,0.035822 -0.0449315,0.080745 -0.0449315,0.1296302 2e-8,0.1168314 0.0949155,0.2117465 0.21174602,0.2117465 0.0306472,0 0.0599596,-0.00688 0.0862477,-0.018592 0.0156676,-0.00699 0.0300029,-0.015932 0.0433821,-0.026339 0.001489,-0.011359 0.002582,-0.022836 0.002582,-0.034602 0,-0.1460373 -0.11838927,-0.2644249 -0.2644243,-0.2644249 z"
         inkscape:label="path3072-1-2"
         transform="translate(48.94792,71.437499)" />
      <path
         d="m 50.00625,73.025 c 0,-0.146125 0.118459,-0.264584 0.264586,-0.264584 0.146121,0 0.264581,0.118459 0.264581,0.264584 0,0.146127 -0.11846,0.264583 -0.264581,0.264583 -0.146127,0 -0.264586,-0.118456 -0.264586,-0.264583 z"
         id="path3076-4"
         fill="#5c8b93"
         fill-rule="nonzero"
         stroke-width="0.351404"
         stroke-linecap="butt"
         stroke-linejoin="miter"
         stroke-miterlimit="4"
         style="font-family:none;font-variation-settings:normal;mix-blend-mode:normal;vector-effect:none;fill:#ffffff;fill-opacity:1;stroke:none;stroke-width:0.0170486;stroke-linecap:round;stroke-linejoin:round;stroke-miterlimit:4;stroke-dasharray:none;stroke-dashoffset:0;stroke-opacity:1;stop-color:#000000" />
      <path
         id="path3072-1-6-5"
         style="font-family:none;font-variation-settings:normal;mix-blend-mode:normal;fill:#1a1a1a;fill-opacity:1;stroke:none;stroke-width:0.01693333;stroke-linecap:round;stroke-linejoin:round;stroke-miterlimit:4;stroke-dasharray:none;stroke-dashoffset:0;stroke-opacity:1;stop-color:#000000"
         d="m 1.3230757,1.3229166 c -0.011766,0 -0.023243,0.00109 -0.034602,0.00258 -0.027848,0.035822 -0.044931,0.080745 -0.044931,0.1296302 1e-7,0.1168314 0.094915,0.2117465 0.2117461,0.2117465 0.030647,0 0.05996,-0.00688 0.086248,-0.018592 0.015668,-0.00699 0.030003,-0.015932 0.043382,-0.026339 0.00149,-0.011359 0.00258,-0.022836 0.00258,-0.034602 0,-0.1460373 -0.1183893,-0.2644249 -0.2644243,-0.2644249 z"
         inkscape:label="path3076-4-2"
         transform="translate(48.94792,71.437499)" />
      <path
         id="path3064-2"
         style="font-family:none;mix-blend-mode:normal;fill:#e76f51;fill-opacity:1;stroke:none;stroke-width:0.0105265;stroke-dasharray:none;stroke-dashoffset:0"
         d="m 50.794538,73.289583 c -0.499909,-2e-6 -0.905183,0.473848 -0.905183,1.058342 2e-6,0.29225 0.101329,0.556812 0.265133,0.74833 0.05575,0.06519 0.118758,0.121909 0.187468,0.168382 v -0.916712 l 0.452582,1.058325 v -1.058325 z" />
      <path
         id="path3068-3"
         style="font-family:none;font-variation-settings:normal;mix-blend-mode:normal;vector-effect:none;fill:#e76f51;fill-opacity:1;stroke:none;stroke-width:0.0153359;stroke-linecap:butt;stroke-linejoin:miter;stroke-miterlimit:4;stroke-dasharray:none;stroke-dashoffset:0;stroke-opacity:1;stop-color:#000000"
         d="m 52.104142,74.485288 c 0.216843,0.216843 0.639016,0.629479 0.639016,0.629479 -0.34473,0.09481 -0.729276,0.0084 -1.002342,-0.260595 -0.143903,-0.141728 -0.237529,-0.315166 -0.280858,-0.498194 l -3.61e-4,0.201274 -0.0012,0.707767 c -0.243984,-0.141705 -0.407863,-0.40603 -0.407344,-0.708468 4.44e-4,-0.302437 0.165308,-0.566203 0.393174,-0.530199 0.227865,0.036 0.470453,0.269476 0.659915,0.458936 z"
         sodipodi:nodetypes="scccccccs" />
      <g
         id="g1334"
         transform="matrix(0.943686,0,0,0.943686,2.9859072,4.0378316)"
         style="stroke-width:1.05967">
        <path
           id="path3062-1"
           style="font-family:none;mix-blend-mode:normal;fill:#e76f51;fill-opacity:1;stroke:none;stroke-width:0.0159332;stroke-dasharray:none;stroke-dashoffset:0"
           d="m 51.254709,72.003278 c -0.384803,0 -0.769607,0.146792 -1.063201,0.440386 l 1.063201,1.0632 1.063199,1.063201 c 0.587188,-0.587187 0.587188,-1.539212 0,-2.126401 -0.293592,-0.293594 -0.678399,-0.440386 -1.063199,-0.440386 z" />
        <path
           id="path3087-8"
           style="font-family:none;mix-blend-mode:normal;fill:#e76f51;fill-opacity:1;stroke:none;stroke-width:0.0159332;stroke-dasharray:none;stroke-dashoffset:0"
           d="m 52.108262,71.787057 c -0.221695,0 -0.443391,0.08457 -0.612537,0.253717 l 0.612537,0.612536 0.612536,0.612536 c 0.338293,-0.338291 0.338293,-0.886779 0,-1.225072 -0.169146,-0.169145 -0.390844,-0.253718 -0.612536,-0.253717 z" />
        <path
           id="path3089-4"
           style="font-family:none;mix-blend-mode:normal;fill:#e76f51;fill-opacity:1;stroke:none;stroke-width:0.0159332;stroke-dasharray:none;stroke-dashoffset:0"
           d="m 52.629981,71.702083 c -0.10992,0 -0.219842,0.04193 -0.303708,0.125799 l 0.303708,0.303708 0.303709,0.303708 c 0.167733,-0.167732 0.167733,-0.439683 -10e-7,-0.607416 -0.08386,-0.08387 -0.193787,-0.125799 -0.303708,-0.125799 z" />
        <path
           id="path3091-5"
           style="font-family:none;mix-blend-mode:normal;fill:#f5ab8d;fill-opacity:1;stroke:none;stroke-width:0.0159332;stroke-dasharray:none;stroke-dashoffset:0"
           d="m 52.200473,72.13159 c 0,-0.109921 0.04193,-0.219841 0.1258,-0.303708 l 0.303708,0.303708 0.303709,0.303708 c -0.167733,0.167734 -0.439685,0.167734 -0.607417,-10e-7 -0.08387,-0.08386 -0.1258,-0.193788 -0.1258,-0.303707 z" />
        <path
           id="path3093-0"
           style="font-family:none;mix-blend-mode:normal;fill:#f5ab8d;fill-opacity:1;stroke:none;stroke-width:0.0159332;stroke-dasharray:none;stroke-dashoffset:0"
           d="m 51.242006,72.653311 c 0,-0.221695 0.08457,-0.44339 0.253718,-0.612537 l 0.612536,0.612537 0.612538,0.612535 c -0.338294,0.338295 -0.88678,0.338295 -1.225074,0 -0.169146,-0.169144 -0.253718,-0.390842 -0.253718,-0.612535 z" />
      </g>
    </g>
  </g>
</svg>
