<svg width="109.96mm" height="103.68mm" version="1.1" viewBox="0 0 109.96 103.68" xmlns="http://www.w3.org/2000/svg">
 <defs>
  <clipPath id="clipPath1240-3">
   <path d="m1749.7 3623.5c0-10.119 8.2031-18.322 18.322-18.322 10.119 0 18.322 8.2031 18.322 18.322 0 10.119-8.2031 18.322-18.322 18.322-10.119 0-18.322-8.2029-18.322-18.322z" fill="#fff" stroke-width="23.371" style="mix-blend-mode:normal"/>
  </clipPath>
 </defs>
 <g transform="translate(-48.586 -119.01)">
  <g fill="#e76f51">
   <path d="m112.54 119.01c-11.773 0-23.546 4.4911-32.529 13.474l65.057 65.057c17.965-17.965 17.965-47.092 0-65.057-8.9825-8.9825-20.756-13.474-32.529-13.474z" style="mix-blend-mode:normal"/>
   <path d="m97.942 158.27c-17.787-5e-5 -32.206 14.42-32.206 32.206 5.3e-5 8.8934 3.6053 16.944 9.4335 22.772 1.9838 1.9839 4.2254 3.7098 6.6701 5.124v-27.896l16.103 32.206v-32.206z" style="mix-blend-mode:normal"/>
   <path d="m52.69 203.17 6.8891-16.234 6.8892-16.234c-6.9769 0.86336-13.316 5.3202-16.26 12.257-2.9438 6.9369-1.7449 14.593 2.4816 20.211z" stop-color="#000000" style="font-variation-settings:normal;mix-blend-mode:normal"/>
   <path d="m113.95 216.06-0.1737-21.654-0.17362-21.653c-7.4372 4.3823-12.4 12.501-12.326 21.754 0.0742 9.2528 5.1664 17.291 12.673 21.553z" stop-color="#000000" style="font-variation-settings:normal;mix-blend-mode:normal"/>
   <path d="m153.21 211.08-19.738-19.065-19.738-19.065c-2.6389 10.617 0.2984 22.312 8.7326 30.459 8.4342 8.1467 20.224 10.677 30.742 7.6736z" stop-color="#000000" style="font-variation-settings:normal;mix-blend-mode:normal"/>
  </g>
  <path d="m50.129 149.88c0-4.6549 3.7736-8.4285 8.4286-8.4285 4.6549 0 8.4285 3.7736 8.4285 8.4285 0 4.655-3.7736 8.4285-8.4285 8.4285-4.655 0-8.4286-3.7735-8.4286-8.4285z" fill="#f9f9f9" stroke-width="10.751" style="mix-blend-mode:normal"/>
  <circle transform="matrix(.46002 0 0 .46002 -754.79 -1517)" cx="1777.5" cy="3616.9" r="14.795" clip-path="url(#clipPath1240-3)" fill="#1a1a1a" stop-color="#000000"/>
  <path d="m68.328 149.88c0-4.6549 3.7736-8.4285 8.4286-8.4285 4.6549 0 8.4285 3.7736 8.4285 8.4285 0 4.655-3.7736 8.4285-8.4285 8.4285-4.655 0-8.4286-3.7735-8.4286-8.4285z" fill="#f9f9f9" stroke-width="10.751" style="mix-blend-mode:normal"/>
  <circle transform="matrix(.46002 0 0 .46002 -736.59 -1517)" cx="1777.5" cy="3616.9" r="14.795" clip-path="url(#clipPath1240-3)" fill="#1a1a1a" stop-color="#000000"/>
 </g>
</svg>