<?xml version="1.0" encoding="UTF-8" standalone="no"?>
<svg
   xmlns:dc="http://purl.org/dc/elements/1.1/"
   xmlns:cc="http://creativecommons.org/ns#"
   xmlns:rdf="http://www.w3.org/1999/02/22-rdf-syntax-ns#"
   xmlns:svg="http://www.w3.org/2000/svg"
   xmlns="http://www.w3.org/2000/svg"
   xmlns:sodipodi="http://sodipodi.sourceforge.net/DTD/sodipodi-0.dtd"
   xmlns:inkscape="http://www.inkscape.org/namespaces/inkscape"
   width="291.86356"
   height="60"
   viewBox="0 0 77.222234 15.874999"
   version="1.1"
   id="svg1848"
   inkscape:version="1.0.2 (e86c870879, 2021-01-15)"
   sodipodi:docname="brno-fit-logo.svg">
  <defs
     id="defs1842">
    <clipPath
       clipPathUnits="userSpaceOnUse"
       id="clipPath18">
      <path
         d="M 0,176.692 H 558.905 V 0 H 0 Z"
         id="path16" />
    </clipPath>
  </defs>
  <sodipodi:namedview
     id="base"
     pagecolor="#ffffff"
     bordercolor="#666666"
     borderopacity="1.0"
     inkscape:pageopacity="0.0"
     inkscape:pageshadow="2"
     inkscape:zoom="1"
     inkscape:cx="93.723967"
     inkscape:cy="-115.25971"
     inkscape:document-units="px"
     inkscape:current-layer="layer1"
     inkscape:document-rotation="0"
     showgrid="false"
     fit-margin-top="0"
     fit-margin-left="0"
     fit-margin-right="0"
     fit-margin-bottom="0"
     units="px"
     inkscape:window-width="1680"
     inkscape:window-height="1009"
     inkscape:window-x="0"
     inkscape:window-y="21"
     inkscape:window-maximized="1" />
  <metadata
     id="metadata1845">
    <rdf:RDF>
      <cc:Work
         rdf:about="">
        <dc:format>image/svg+xml</dc:format>
        <dc:type
           rdf:resource="http://purl.org/dc/dcmitype/StillImage" />
        <dc:title></dc:title>
      </cc:Work>
    </rdf:RDF>
  </metadata>
  <g
     inkscape:label="Layer 1"
     inkscape:groupmode="layer"
     id="layer1"
     transform="translate(0.05417697)">
    <g
       id="g12"
       transform="matrix(0.16000927,0,0,-0.16000927,-6.1580986,22.073711)"
       style="stroke-width:2.20473">
      <g
         id="g14"
         clip-path="url(#clipPath18)"
         style="stroke-width:2.20473">
        <g
           id="g20"
           transform="translate(520.7583,38.7397)"
           style="stroke-width:2.20473">
          <path
             d="m 0,0 v 0.809 1.336 28.781 0.751 1.394 h -12.066 v 33.071 h -1.074 -1.071 -166.562 v 30.925 2.146 h -2.145 -116.463 -79.989 V 66.142 66.141 33.071 0 h 207.41 z m -194.482,24.242 h 3.25 l 3.651,-6.76 h 0.094 l 3.839,6.76 h 2.944 l -5.605,-9.492 V 7.755 h -2.826 v 6.995 z m -13.896,-4.004 c 0,2.379 1.625,4.004 4.004,4.004 h 3.768 c 2.379,0 4.004,-1.625 4.004,-4.004 v -1.013 h -2.826 v 1.154 c 0,0.848 -0.565,1.413 -1.413,1.413 h -3.298 c -0.848,0 -1.413,-0.565 -1.413,-1.413 v -8.761 c 0,-0.848 0.565,-1.414 1.413,-1.414 h 3.298 c 0.848,0 1.413,0.566 1.413,1.414 v 2.025 h -3.297 v 2.45 h 6.123 v -4.334 c 0,-2.379 -1.625,-4.004 -4.004,-4.004 h -3.768 c -2.379,0 -4.004,1.625 -4.004,4.004 z m -16.723,0 c 0,2.379 1.625,4.004 4.004,4.004 h 4.24 c 2.379,0 4.004,-1.625 4.004,-4.004 v -8.479 c 0,-2.379 -1.625,-4.004 -4.004,-4.004 h -4.24 c -2.379,0 -4.004,1.625 -4.004,4.004 z m -13.071,4.004 h 2.826 V 10.204 h 6.83 V 7.755 h -9.656 z m -4.287,23.579 -5.346,9.492 h 3.25 l 3.651,-6.76 h 0.094 l 3.839,6.76 h 2.944 l -5.606,-9.492 v -6.995 h -2.826 z m -12.436,-27.583 c 0,2.379 1.625,4.004 4.004,4.004 h 4.24 c 2.379,0 4.004,-1.625 4.004,-4.004 v -8.479 c 0,-2.379 -1.625,-4.004 -4.004,-4.004 h -4.24 c -2.379,0 -4.004,1.625 -4.004,4.004 z m -1.86,34.625 h -4.711 v 2.45 h 12.248 v -2.45 h -4.711 V 40.826 h -2.826 z m -14.862,-30.621 h 2.826 l 6.501,-11.282 h 0.094 v 11.282 h 2.826 V 7.755 h -2.826 l -6.501,11.282 h -0.094 V 7.755 h -2.826 z m 4.263,33.071 h 2.826 V 40.826 h -2.826 z m -8.243,-16.487 h -3.769 c -2.378,0 -4.004,1.625 -4.004,4.004 v 1.012 h 2.827 v -1.154 c 0,-0.848 0.565,-1.413 1.413,-1.413 h 3.297 c 0.848,0 1.413,0.565 1.413,1.413 v 1.79 c 0,0.848 -0.565,1.414 -1.413,1.414 h -3.297 c -2.379,0 -4.004,1.625 -4.004,4.004 v 1.413 c 0,2.379 1.625,4.004 4.004,4.004 h 3.415 c 2.379,0 4.004,-1.625 4.004,-4.004 v -1.013 h -2.826 v 1.154 c 0,0.848 -0.566,1.413 -1.413,1.413 h -2.945 c -0.847,0 -1.413,-0.565 -1.413,-1.413 v -1.696 c 0,-0.848 0.566,-1.413 1.413,-1.413 h 3.298 c 2.379,0 4.004,-1.625 4.004,-4.004 V 44.83 c 0,-2.379 -1.625,-4.004 -4.004,-4.004 M -288.34,24.242 h 2.827 V 17.27 h 6.594 v 6.972 h 2.827 V 7.755 h -2.827 v 7.066 h -6.594 V 7.755 h -2.827 z m -29.912,0 h 10.128 v -2.45 h -7.301 V 17.27 h 6.83 v -2.449 h -6.83 v -4.617 h 7.536 V 7.755 h -10.363 z m -15.309,0 h 12.248 v -2.45 h -4.711 V 7.755 h -2.826 v 14.037 h -4.711 z m -1.766,33.071 h 2.826 V 40.826 h -2.826 z m -16.722,-33.071 h 9.656 v -2.45 h -6.83 V 17.27 h 6.359 v -2.449 h -6.359 V 7.755 h -2.826 z m -4.946,53.658 c 0,-2.378 -1.626,-4.004 -4.004,-4.004 h -7.773 v 16.488 h 7.419 c 2.379,0 4.004,-1.626 4.004,-4.004 v -0.919 c 0,-1.437 -0.659,-2.544 -1.743,-3.133 v -0.094 c 1.296,-0.542 2.097,-1.719 2.097,-3.297 z m 0.471,-33.07 c 0,-2.379 -1.625,-4.004 -4.004,-4.004 h -4.24 c -2.379,0 -4.004,1.625 -4.004,4.004 v 12.483 h 2.827 V 44.688 c 0,-0.848 0.565,-1.413 1.413,-1.413 h 3.768 c 0.848,0 1.413,0.565 1.413,1.413 v 12.625 h 2.827 z m 0,-33.071 c 0,-2.379 -1.625,-4.004 -4.004,-4.004 h -4.24 c -2.379,0 -4.004,1.625 -4.004,4.004 v 8.479 c 0,2.379 1.625,4.004 4.004,4.004 h 4.24 c 2.379,0 4.004,-1.625 4.004,-4.004 z m 12.153,68.615 3.391,-6.478 h -3.109 l -3.321,6.36 h -2.755 v -6.36 h -2.827 v 16.488 h 7.537 c 2.379,0 4.004,-1.626 4.004,-4.004 v -2.12 c 0,-2.002 -1.154,-3.462 -2.92,-3.886 m 4.569,-39.548 h -2.826 l -6.501,11.281 h -0.094 V 40.826 h -2.826 v 16.487 h 2.826 l 6.501,-11.282 h 0.094 v 11.282 h 2.826 z m 14.603,33.07 h -2.827 l -6.5,11.282 h -0.094 V 73.896 h -2.827 v 16.488 h 2.827 l 6.5,-11.282 h 0.094 v 11.282 h 2.827 z m 2.708,-29.161 3.934,12.578 h 2.685 l -5.323,-16.487 h -2.921 l -5.323,16.487 h 2.944 l 3.91,-12.578 z m 14.014,33.165 c 0,-2.378 -1.625,-4.004 -4.004,-4.004 h -4.239 c -2.379,0 -4.004,1.626 -4.004,4.004 v 8.48 c 0,2.378 1.625,4.004 4.004,4.004 h 4.239 c 2.379,0 4.004,-1.626 4.004,-4.004 z m 6.03,-37.074 h -10.364 v 16.487 h 10.128 v -2.45 h -7.301 v -4.522 h 6.83 v -2.449 h -6.83 v -4.617 h 7.537 z m 6.099,-16.584 c 2.379,0 4.004,-1.625 4.004,-4.004 v -1.013 h -2.826 v 1.154 c 0,0.848 -0.565,1.413 -1.413,1.413 h -3.298 c -0.848,0 -1.413,-0.565 -1.413,-1.413 v -8.761 c 0,-0.848 0.565,-1.414 1.413,-1.414 h 3.298 c 0.848,0 1.413,0.566 1.413,1.414 v 1.154 h 2.826 v -1.013 c 0,-2.379 -1.625,-4.004 -4.004,-4.004 h -3.768 c -2.379,0 -4.004,1.625 -4.004,4.004 v 8.479 c 0,2.379 1.625,4.004 4.004,4.004 z m -2.331,33.071 h 7.537 c 2.379,0 4.004,-1.625 4.004,-4.004 v -2.12 c 0,-2.002 -1.154,-3.462 -2.921,-3.886 l 3.392,-6.477 h -3.109 l -3.321,6.359 h -2.756 v -6.359 h -2.826 z m 115.761,8.829 h -44.958 -70.286 v 30.925 h 115.244 z M -14.211,33.071 h -208.028 -3.039 V 63.997 H -14.211 Z M -2.146,2.145 H -171.961 V 30.926 H -2.146 Z m -148.381,22.097 h -12.248 v -2.45 h 4.711 V 7.755 h 2.826 v 14.037 h 4.711 z m 13.189,0 h -10.128 V 7.755 h 10.364 v 2.449 h -7.537 v 4.617 h 6.83 v 2.449 h -6.83 v 4.522 h 7.301 z m 4.004,-4.004 v -8.479 c 0,-2.379 1.625,-4.004 4.004,-4.004 h 3.769 c 2.378,0 4.004,1.625 4.004,4.004 v 1.013 h -2.827 v -1.154 c 0,-0.848 -0.565,-1.414 -1.413,-1.414 h -3.297 c -0.848,0 -1.414,0.566 -1.414,1.414 v 8.761 c 0,0.848 0.566,1.413 1.414,1.413 h 3.297 c 0.848,0 1.413,-0.565 1.413,-1.413 v -1.154 h 2.827 v 1.013 c 0,2.379 -1.626,4.004 -4.004,4.004 h -3.769 c -2.379,0 -4.004,-1.625 -4.004,-4.004 m 18.607,4.004 h -2.827 V 7.755 h 2.827 v 7.066 h 6.595 V 7.755 h 2.826 v 16.487 h -2.826 V 17.27 h -6.595 z m 16.722,0 h -2.826 V 7.755 h 2.826 v 11.282 h 0.095 l 6.5,-11.282 h 2.826 V 24.242 H -91.41 V 12.96 h -0.094 z m 13.897,-4.004 v -8.479 c 0,-2.379 1.625,-4.004 4.004,-4.004 h 4.239 c 2.379,0 4.004,1.625 4.004,4.004 v 8.479 c 0,2.379 -1.625,4.004 -4.004,4.004 h -4.239 c -2.379,0 -4.004,-1.625 -4.004,-4.004 m 2.826,0.141 c 0,0.848 0.565,1.413 1.413,1.413 h 3.768 c 0.848,0 1.414,-0.565 1.414,-1.413 v -8.761 c 0,-0.848 -0.566,-1.414 -1.414,-1.414 h -3.768 c -0.848,0 -1.413,0.566 -1.413,1.414 z m 16.721,3.863 h -2.825 V 7.755 h 9.657 v 2.449 h -6.832 z m 10.246,-4.004 v -8.479 c 0,-2.379 1.626,-4.004 4.004,-4.004 h 4.24 c 2.379,0 4.004,1.625 4.004,4.004 v 8.479 c 0,2.379 -1.625,4.004 -4.004,4.004 h -4.24 c -2.378,0 -4.004,-1.625 -4.004,-4.004 m 2.827,0.141 c 0,0.848 0.565,1.413 1.413,1.413 h 3.768 c 0.848,0 1.413,-0.565 1.413,-1.413 v -8.761 c 0,-0.848 -0.565,-1.414 -1.413,-1.414 h -3.768 c -0.848,0 -1.413,0.566 -1.413,1.414 z m 13.896,-0.141 v -8.479 c 0,-2.379 1.625,-4.004 4.004,-4.004 h 3.769 c 2.378,0 4.004,1.625 4.004,4.004 v 4.334 h -6.124 v -2.45 h 3.296 v -2.025 c 0,-0.848 -0.564,-1.414 -1.413,-1.414 h -3.297 c -0.847,0 -1.414,0.566 -1.414,1.414 v 8.761 c 0,0.848 0.567,1.413 1.414,1.413 h 3.297 c 0.849,0 1.413,-0.565 1.413,-1.413 v -1.154 h 2.828 v 1.013 c 0,2.379 -1.626,4.004 -4.004,4.004 h -3.769 c -2.379,0 -4.004,-1.625 -4.004,-4.004 m 17.147,4.004 h -3.251 L -18.35,14.75 V 7.755 h 2.827 v 6.995 l 5.606,9.492 h -2.944 l -3.84,-6.76 h -0.094 z M -214.68,53.309 V 44.83 c 0,-2.379 1.625,-4.004 4.004,-4.004 h 4.24 c 2.378,0 4.004,1.625 4.004,4.004 v 8.479 c 0,2.379 -1.626,4.004 -4.004,4.004 h -4.24 c -2.379,0 -4.004,-1.625 -4.004,-4.004 m 2.826,0.141 c 0,0.848 0.566,1.413 1.414,1.413 h 3.768 c 0.848,0 1.413,-0.565 1.413,-1.413 v -8.762 c 0,-0.848 -0.565,-1.413 -1.413,-1.413 h -3.768 c -0.848,0 -1.414,0.565 -1.414,1.413 z m 23.553,3.863 h -9.657 V 40.826 h 2.827 v 7.066 h 6.359 v 2.449 h -6.359 v 4.522 h 6.83 z m 13.071,0 h -2.826 V 40.826 h 2.826 z m 7.302,0 h -2.827 V 40.826 h 2.827 v 11.282 h 0.094 l 6.5,-11.282 h 2.827 v 16.487 h -2.827 V 46.031 h -0.094 z m 23.552,0 h -9.656 V 40.826 h 2.826 v 7.066 h 6.359 v 2.449 h -6.359 v 4.522 h 6.83 z m 3.415,-4.004 V 44.83 c 0,-2.379 1.625,-4.004 4.004,-4.004 h 4.24 c 2.379,0 4.004,1.625 4.004,4.004 v 8.479 c 0,2.379 -1.625,4.004 -4.004,4.004 h -4.24 c -2.379,0 -4.004,-1.625 -4.004,-4.004 m 2.827,0.141 c 0,0.848 0.565,1.413 1.413,1.413 h 3.768 c 0.848,0 1.413,-0.565 1.413,-1.413 v -8.762 c 0,-0.848 -0.565,-1.413 -1.413,-1.413 h -3.768 c -0.848,0 -1.413,0.565 -1.413,1.413 z m 21.433,3.863 h -7.537 V 40.826 h 2.826 v 6.359 h 2.756 l 3.321,-6.359 h 3.109 l -3.392,6.477 c 1.767,0.424 2.921,1.884 2.921,3.886 v 2.12 c 0,2.379 -1.625,4.004 -4.004,4.004 m -0.236,-2.45 c 0.848,0 1.413,-0.565 1.413,-1.413 v -2.402 c 0,-0.848 -0.565,-1.414 -1.413,-1.414 h -4.475 v 5.229 z m 11.188,2.45 h -2.944 V 40.826 h 2.826 v 10.151 h 0.118 l 4.428,-10.151 h 0.141 l 4.452,10.151 h 0.117 V 40.826 h 2.803 v 16.487 h -2.709 l -4.569,-10.481 h -0.094 z m 20.679,0 -5.676,-16.487 h 2.685 l 1.39,4.168 h 5.864 l 1.39,-4.168 h 2.944 l -5.676,16.487 z m -0.801,-9.869 2.097,6.242 h 0.094 l 2.073,-6.242 z m 9.163,7.419 h 4.71 V 40.826 h 2.826 v 14.037 h 4.711 v 2.45 h -12.247 z m 18.135,2.45 h -2.826 V 40.826 h 2.826 z m 4.474,-4.004 V 44.83 c 0,-2.379 1.625,-4.004 4.005,-4.004 h 4.239 c 2.378,0 4.003,1.625 4.003,4.004 v 8.479 c 0,2.379 -1.625,4.004 -4.003,4.004 h -4.239 c -2.38,0 -4.005,-1.625 -4.005,-4.004 m 2.827,0.141 c 0,0.848 0.565,1.413 1.413,1.413 h 3.769 c 0.848,0 1.413,-0.565 1.413,-1.413 v -8.762 c 0,-0.848 -0.565,-1.413 -1.413,-1.413 h -3.769 c -0.848,0 -1.413,0.565 -1.413,1.413 z m 16.723,3.863 h -2.827 V 40.826 h 2.827 v 11.282 h 0.094 l 6.501,-11.282 h 2.826 v 16.487 h -2.826 V 46.031 h -0.095 z M -231.956,77.9 v 12.484 h -2.827 V 77.759 c 0,-0.848 -0.565,-1.413 -1.413,-1.413 h -3.768 c -0.848,0 -1.414,0.565 -1.414,1.413 v 12.625 h -2.826 V 77.9 c 0,-2.378 1.625,-4.004 4.004,-4.004 h 4.24 c 2.378,0 4.004,1.626 4.004,4.004 m -16.252,0 v 1.013 h -2.826 v -1.154 c 0,-0.848 -0.565,-1.413 -1.413,-1.413 h -3.298 c -0.847,0 -1.413,0.565 -1.413,1.413 v 8.762 c 0,0.848 0.566,1.413 1.413,1.413 h 3.298 c 0.848,0 1.413,-0.565 1.413,-1.413 v -1.154 h 2.826 v 1.013 c 0,2.378 -1.625,4.004 -4.004,4.004 h -3.768 c -2.379,0 -4.004,-1.626 -4.004,-4.004 V 77.9 c 0,-2.378 1.625,-4.004 4.004,-4.004 h 3.768 c 2.379,0 4.004,1.626 4.004,4.004 m -17.782,-4.004 h 2.944 l -5.676,16.488 h -2.921 l -5.676,-16.488 h 2.685 l 1.39,4.169 h 5.865 z m -2.19,6.619 h -4.263 l 2.096,6.241 h 0.094 z m -16.558,7.419 h 6.831 v 2.45 h -9.657 V 73.896 h 2.826 v 7.066 h 6.36 v 2.45 h -6.36 z m 60.083,2.45 h -2.826 V 73.896 h 9.656 v 2.45 h -6.83 z m 6.712,-2.45 h 4.711 V 73.896 h 2.826 v 14.038 h 4.711 v 2.45 h -12.248 z m 16.911,2.45 h -3.25 l 5.346,-9.492 v -6.996 h 2.827 v 6.996 l 5.605,9.492 h -2.944 l -3.839,-6.76 h -0.094 z m -90.346,-35.521 h -4.475 v -5.229 h 4.475 c 0.848,0 1.414,0.566 1.414,1.414 v 2.402 c 0,0.848 -0.566,1.413 -1.414,1.413 m -19.925,22.896 v 8.762 c 0,0.848 -0.565,1.413 -1.413,1.413 h -3.769 c -0.848,0 -1.413,-0.565 -1.413,-1.413 v -8.762 c 0,-0.848 0.565,-1.413 1.413,-1.413 h 3.769 c 0.848,0 1.413,0.565 1.413,1.413 m -32.974,6.359 v 2.403 c 0,0.848 -0.565,1.413 -1.413,1.413 h -4.475 v -5.229 h 4.475 c 0.848,0 1.413,0.565 1.413,1.413 m -15.074,-72.5 v 8.761 c 0,0.848 -0.565,1.413 -1.413,1.413 h -3.768 c -0.848,0 -1.413,-0.565 -1.413,-1.413 v -8.761 c 0,-0.848 0.565,-1.414 1.413,-1.414 h 3.768 c 0.848,0 1.413,0.566 1.413,1.414 m -0.471,66.141 v 1.931 c 0,0.754 -0.518,1.272 -1.272,1.272 h -4.851 v -4.616 h 4.71 c 0.848,0 1.413,0.565 1.413,1.413 m -0.353,6.925 v 1.837 c 0,0.848 -0.565,1.413 -1.413,1.413 h -4.357 v -4.522 h 4.498 c 0.754,0 1.272,0.518 1.272,1.272 m 108.107,-64.305 v -8.761 c 0,-0.848 0.565,-1.414 1.413,-1.414 h 3.768 c 0.848,0 1.413,0.566 1.413,1.414 v 8.761 c 0,0.848 -0.565,1.413 -1.413,1.413 h -3.768 c -0.848,0 -1.413,-0.565 -1.413,-1.413 m 29.794,0 v -8.761 c 0,-0.848 0.565,-1.414 1.413,-1.414 h 3.768 c 0.848,0 1.413,0.566 1.413,1.414 v 8.761 c 0,0.848 -0.565,1.413 -1.413,1.413 h -3.768 c -0.848,0 -1.413,-0.565 -1.413,-1.413 M -482.611,0 h 99.212 v 99.212 h -99.212 z m 15.945,84.036 h 30.668 v -11.18 -10e-4 l 36.397,10e-4 V 62.628 h -17.2 c -4.232,0 -7.664,-3.206 -7.664,-7.162 V 16.54 h -11.534 v 56.315 h -30.667 z"
             style="fill:#ffffff;fill-opacity:1;fill-rule:nonzero;stroke:none;stroke-width:2.20473"
             id="path22" />
        </g>
      </g>
    </g>
  </g>
</svg>
