<?xml version="1.0" encoding="UTF-8" standalone="no"?>
<svg
   xmlns:dc="http://purl.org/dc/elements/1.1/"
   xmlns:cc="http://creativecommons.org/ns#"
   xmlns:rdf="http://www.w3.org/1999/02/22-rdf-syntax-ns#"
   xmlns:svg="http://www.w3.org/2000/svg"
   xmlns="http://www.w3.org/2000/svg"
   xmlns:sodipodi="http://sodipodi.sourceforge.net/DTD/sodipodi-0.dtd"
   xmlns:inkscape="http://www.inkscape.org/namespaces/inkscape"
   width="291.45404"
   height="60"
   viewBox="0 0 77.113883 15.874999"
   version="1.1"
   id="svg1848"
   inkscape:version="1.0.2 (e86c870879, 2021-01-15)"
   sodipodi:docname="brno-fit-logo.svg">
  <defs
     id="defs1842" />
  <sodipodi:namedview
     id="base"
     pagecolor="#ffffff"
     bordercolor="#666666"
     borderopacity="1.0"
     inkscape:pageopacity="0.0"
     inkscape:pageshadow="2"
     inkscape:zoom="1"
     inkscape:cx="93.519204"
     inkscape:cy="-115.25971"
     inkscape:document-units="px"
     inkscape:current-layer="layer1"
     inkscape:document-rotation="0"
     showgrid="false"
     fit-margin-top="0"
     fit-margin-left="0"
     fit-margin-right="0"
     fit-margin-bottom="0"
     units="px"
     inkscape:window-width="1680"
     inkscape:window-height="1009"
     inkscape:window-x="0"
     inkscape:window-y="21"
     inkscape:window-maximized="1" />
  <metadata
     id="metadata1845">
    <rdf:RDF>
      <cc:Work
         rdf:about="">
        <dc:format>image/svg+xml</dc:format>
        <dc:type
           rdf:resource="http://purl.org/dc/dcmitype/StillImage" />
        <dc:title></dc:title>
      </cc:Work>
    </rdf:RDF>
  </metadata>
  <g
     inkscape:label="Layer 1"
     inkscape:groupmode="layer"
     id="layer1">
    <g
       id="g2736"
       transform="scale(0.74999988)"
       style="stroke-width:1.33333">
      <path
         fill="#e4002b"
         d="m 17.72708,8.46667 h -3.70416 a 1.5610416,1.5610416 0 0 0 -1.5875,1.50812 v 8.28146 H 10.05417 V 6.35 H 3.43958 V 3.96875 h 6.61459 V 6.35 h 7.67291 z M 0,21.16667 H 21.16667 V 0 H 0 Z"
         id="path649-7"
         style="fill:#ffffff;stroke-width:0.352777" />
      <path
         id="path631"
         style="fill:#b3b3b3;stroke-width:1.33333"
         d="m 150.60547,0 v 26 h 58 v 27 h 43 v 27 h 137 V 53 h -10 V 26 h -135 V 0 Z m 20.66406,6.9472656 h 2.33594 l 4.54101,13.1894534 h -2.35546 l -1.11133,-3.333985 h -4.69141 -0.002 l -1.10938,3.333985 h -2.14843 z m 12.52735,0 h 3.01562 c 1.90299,0 3.20312,1.3011033 3.20312,3.2050784 v 0.810547 h -2.26171 v -0.925782 c 0,-0.6769886 -0.45187,-1.1289059 -1.13086,-1.1289059 h -2.63672 c -0.67899,0 -1.12891,0.4519173 -1.12891,1.1289059 v 7.009766 c 0,0.678992 0.44992,1.130859 1.12891,1.130859 h 2.63867 c 0.67797,0 1.13086,-0.451867 1.13086,-1.130859 V 16.125 h 2.26172 v 0.808594 c 0,1.902992 -1.30205,3.203125 -3.20508,3.203125 h -3.01367 -0.002 c -1.903,0 -3.20313,-1.300133 -3.20313,-3.203125 v -6.78125 c 0,-1.9039751 1.30013,-3.2050784 3.20313,-3.2050784 z m -25.26563,0.00195 h 7.72656 v 1.9589843 h -5.46484 v 3.6191411 h 5.08594 v 1.958984 h -5.08594 v 5.650391 h -2.26172 z m 34.68945,0 h 2.26172 V 17.048828 c 0,0.67903 0.4489,1.128906 1.12891,1.128906 h 3.01367 c 0.67801,0 1.13281,-0.449876 1.13281,-1.128906 V 6.9492188 h 2.25977 v 9.9843752 c 0,1.902992 -1.30013,3.203125 -3.20313,3.203125 h -3.39062 c -1.90299,0 -3.20313,-1.2992 -3.20313,-3.201172 z m 13.37696,0 h 2.26172 V 18.179688 h 5.46484 v 1.957031 h -7.72656 z m 7.63086,0 h 9.79882 v 1.9589843 h -3.76757 V 20.136719 h -2.26368 V 8.9082031 h -3.76757 z m 10.92773,0 h 2.60156 l 2.91992,5.4082034 h 0.0742 l 3.07227,-5.4082034 h 2.35742 l -4.48633,7.5937504 v 5.59375 h -2.26172 v -5.59375 z m -52.85156,2.9003906 -1.67774,4.9941408 h 3.41211 L 172.37891,9.8496094 Z M 220.04102,33.40625 h 3.39257 c 1.903,0 3.20313,1.300133 3.20313,3.203125 v 6.78125 c 0,1.903975 -1.30013,3.203125 -3.20313,3.203125 h -3.39257 c -1.903,0 -3.20118,-1.29915 -3.20118,-3.203125 v -6.78125 c 0,-1.902992 1.29818,-3.203125 3.20118,-3.203125 z m 10.17578,0 h 7.72461 v 1.957031 h -5.46485 v 3.619141 h 5.08789 v 1.960937 h -5.08789 v 5.652344 h -2.25976 z m 15.92187,0 h 2.26172 v 13.189453 h -2.26172 z m 5.83985,0 h 2.26171 l 5.19922,9.023438 h 0.0762 V 33.40625 h 2.25977 v 13.189453 h -2.25977 l -5.20117,-9.025391 h -0.0762 v 9.025391 h -2.25976 z m 13.3789,0 h 7.72461 v 1.957031 h -5.46289 v 3.619141 h 5.08594 v 1.960937 h -5.08594 v 5.652344 h -2.26172 z m 13.66016,0 h 3.39062 c 1.903,0 3.20313,1.300133 3.20313,3.203125 v 6.78125 c 0,1.903975 -1.30013,3.203125 -3.20313,3.203125 h -3.39062 c -1.90303,0 -3.20313,-1.29915 -3.20313,-3.203125 v -6.78125 c 0,-1.902992 1.3001,-3.203125 3.20313,-3.203125 z m 10.17383,0 h 6.03125 c 1.90397,0 3.20312,1.300095 3.20312,3.203125 v 1.695313 c 0,1.60199 -0.92394,2.769532 -2.33594,3.107421 l 2.70899,5.181641 h -2.48438 l -2.65625,-5.085938 h -2.20508 v 5.085938 h -2.26171 z m 12.4375,0 h 2.35351 l 3.65625,8.382812 h 0.0742 l 3.65625,-8.382812 h 2.16797 v 13.1875 h -2.24219 v -8.119141 h -0.0957 l -3.56055,8.119141 h -0.11328 l -3.54297,-8.119141 h -0.0918 v 8.121094 h -2.26171 z m 18.89843,0 h 2.33594 l 4.54102,13.189453 h -2.35742 l -1.10938,-3.337891 h -4.69336 l -1.10937,3.335938 h -2.15039 z m 6.6875,0 h 9.79883 v 1.957031 h -3.76953 v 11.232422 h -2.25976 V 35.363281 h -3.76954 z m 12.24805,0 h 2.26367 v 13.189453 h -2.26367 z m 9.04492,0 h 3.39258 c 1.90299,0 3.20313,1.300133 3.20313,3.203125 v 6.78125 c 0,1.903975 -1.30014,3.203125 -3.20313,3.203125 h -3.39258 c -1.90303,0 -3.20312,-1.29915 -3.20312,-3.203125 v -6.78125 c 0,-1.902992 1.30009,-3.203125 3.20312,-3.203125 z m 10.17578,0 h 2.25977 l 5.19922,9.023438 h 0.0781 l -0.002,-9.023438 h 2.25977 v 13.189453 h -2.25782 l -5.20312,-9.025391 h -0.0742 v 9.025391 h -2.25977 z m -138.45312,1.957031 c -0.67899,0 -1.13086,0.453783 -1.13086,1.132813 v 7.009765 c 0,0.677027 0.45085,1.128907 1.13086,1.128907 h 3.01367 c 0.68001,0 1.13281,-0.45188 1.13281,-1.128907 v -7.009765 c 0,-0.680013 -0.4528,-1.132813 -1.13281,-1.132813 z m 58.97461,0 c -0.67903,0 -1.13086,0.453783 -1.13086,1.132813 v 7.009765 c 0,0.677027 0.45183,1.128907 1.13086,1.128907 h 3.01562 c 0.679,0 1.13086,-0.45188 1.13086,-1.128907 v -7.009765 c 0,-0.680013 -0.45186,-1.132813 -1.13086,-1.132813 z m 12.24804,0 v 4.183594 h 3.58008 c 0.67797,0 1.13086,-0.450897 1.13086,-1.128906 v -1.921875 c 0,-0.67903 -0.45186,-1.132813 -1.13086,-1.132813 z m 57.24219,0 c -0.67997,0 -1.13086,0.453783 -1.13086,1.132813 v 7.009765 c 0,0.677027 0.45085,1.128907 1.13086,1.128907 h 3.01367 c 0.679,0 1.13086,-0.45188 1.13086,-1.128907 v -7.009765 c 0,-0.680013 -0.45186,-1.132813 -1.13086,-1.132813 z m -27.13086,0.94336 -1.67773,4.99414 h 3.41016 l -1.65821,-4.99414 z m -63.20312,23.554687 h 9.79883 v 1.960938 h -3.76758 v 11.228515 h -2.26172 V 61.822266 h -3.76953 z m 12.25,0 h 8.09961 v 1.960938 h -5.83985 v 3.617187 h 5.46485 v 1.960938 h -5.46485 v 3.691406 h 6.0293 v 1.958984 h -8.28906 z m 31.46484,0 h 2.25977 v 13.189453 h -2.25977 v -5.65039 h -5.27539 v 5.652343 h -2.26367 V 59.863281 h 2.26367 v 5.576172 h 5.27539 z m 13.37891,0 h 2.25976 v 13.189453 h -2.25976 l -5.19922,-9.02539 h -0.0781 v 9.027343 H 307.918 V 59.863281 h 2.25976 l 5.20118,9.023438 h 0.0762 z m 9.04492,0 h 3.39258 v 0.002 c 1.90099,0 3.20117,1.300133 3.20117,3.203125 v 6.78125 c 0,1.904013 -1.30018,3.205078 -3.20117,3.205078 H 324.5 c -1.90299,0 -3.20312,-1.301065 -3.20312,-3.205078 v -6.78125 c 0,-1.903975 1.30013,-3.205078 3.20312,-3.205078 z m 23.83398,0 h 3.39258 v 0.002 c 1.90303,0 3.20313,1.300133 3.20313,3.203125 v 6.78125 c 0,1.904013 -1.3001,3.205078 -3.20313,3.205078 h -3.39258 c -1.90299,0 -3.20312,-1.301065 -3.20312,-3.205078 v -6.78125 c 0,-1.903975 1.30013,-3.205078 3.20312,-3.205078 z m -63.21484,0.002 h 3.01563 c 1.90299,0 3.20117,1.300133 3.20117,3.203125 V 63.875 h -2.26172 v -0.921875 c 0,-0.67903 -0.44893,-1.130859 -1.12891,-1.130859 h -2.63867 c -0.67797,0 -1.12891,0.451829 -1.12891,1.130859 v 7.007813 c 0,0.678009 0.45187,1.130859 1.13086,1.130859 h 2.63672 c 0.67998,0 1.12891,-0.45285 1.12891,-1.130859 v -0.923829 h 2.26172 v 0.810547 c 0,1.904013 -1.29818,3.205078 -3.20117,3.205078 h -3.01563 c -1.90299,0 -3.20312,-1.301065 -3.20312,-3.205078 v -6.78125 c 0,-1.902992 1.30013,-3.203125 3.20312,-3.203125 z m 49.55469,0 h 2.25976 v 11.228516 h 5.4668 v 1.960937 h -7.72656 z m 27.03711,0 h 3.01562 0.002 c 1.90299,0 3.20312,1.300171 3.20312,3.203125 V 63.875 h -2.26367 v -0.921875 c 0,-0.678954 -0.4509,-1.130859 -1.12891,-1.130859 h -2.63867 c -0.67801,0 -1.12891,0.450884 -1.12891,1.130859 v 7.009766 c 0,0.677971 0.4509,1.130859 1.12891,1.130859 h 2.63867 c 0.67801,0 1.12891,-0.4528 1.12891,-1.132812 v -1.619141 h -2.63672 v -1.960938 h 4.90039 v 3.466797 c 0,1.904051 -1.30013,3.205078 -3.20312,3.205078 h -3.01758 c -1.90299,0 -3.20117,-1.301065 -3.20117,-3.205078 v -6.78125 c 0,-1.902992 1.29818,-3.203125 3.20117,-3.203125 z m 7.91406,0 h 2.60352 l 2.91796,5.404297 h 0.0762 l 3.07031,-5.404297 h 2.35547 l -4.48633,7.591797 v 5.595703 h -2.25977 v -5.595703 z m -44.93555,1.958985 c -0.68001,0 -1.13281,0.451829 -1.13281,1.130859 v 7.007813 c 0,0.678009 0.4528,1.130859 1.13281,1.130859 h 3.01367 c 0.67699,0 1.12891,-0.45285 1.12891,-1.130859 v -7.007813 c 0,-0.67903 -0.45192,-1.130859 -1.12891,-1.130859 z m 23.83399,0 c -0.67797,0 -1.13086,0.451829 -1.13086,1.130859 v 7.007813 c 0,0.678009 0.45289,1.130859 1.13086,1.130859 h 3.01367 c 0.67997,0 1.13086,-0.45285 1.13086,-1.130859 v -7.007813 c 0,-0.67903 -0.45089,-1.130859 -1.13086,-1.130859 z"
         transform="scale(0.26458333)" />
      <path
         id="path629"
         style="fill:#ffffff;stroke-width:1.33333"
         d="M 85.605469,0 V 80 H 251.60547 V 53 h -43 V 26 h -58 V 0 Z m 49.601561,6.9472656 h 3.39063 c 1.90303,0 3.20312,1.3011033 3.20312,3.2050784 v 6.783203 c 0,1.901972 -1.30013,3.201172 -3.20312,3.201172 h -3.39063 c -1.90193,-9.22e-4 -3.20312,-1.299875 -3.20312,-3.201172 v -6.783203 c 0,-1.9039751 1.30111,-3.2050784 3.20312,-3.2050784 z m -41.642577,0.00195 H 99.5 c 1.90303,0 3.20312,1.3001328 3.20312,3.2031254 v 0.734375 c 0,1.147993 -0.52754,2.036808 -1.39453,2.507812 v 0.07422 c 1.03597,0.433965 1.67774,1.374734 1.67774,2.636719 v 0.830078 c 0,1.901972 -1.30017,3.202104 -3.203127,3.203125 h -6.21875 z m 12.624997,0 h 6.0293 c 1.90303,0 3.20313,1.3001328 3.20313,3.2031254 v 1.695312 c 0,1.601991 -0.9239,2.769218 -2.3379,3.109375 l 2.71485,5.181641 h -2.48633 l -2.6582,-5.087891 h -2.20508 v 5.087891 h -2.25977 z m 12.43555,0 h 2.26172 l 5.20117,9.0234374 h 0.0742 V 6.9492188 h 2.26172 V 20.136719 h -2.26172 l -5.20117,-9.023438 h -0.0742 v 9.023438 H 118.625 Z M 135.39453,8.90625 c -0.67797,0 -1.12891,0.4538704 -1.12891,1.130859 v 7.009766 c 0,0.678992 0.4509,1.130859 1.12891,1.130859 h 3.01367 c 0.67896,0 1.13282,-0.451867 1.13282,-1.130859 v -7.009766 c 0,-0.6769886 -0.45386,-1.130859 -1.13282,-1.130859 z M 95.826172,8.9082 v 3.619141 h 3.599609 c 0.602989,0 1.017579,-0.416508 1.017579,-1.019532 V 10.037106 C 100.44336,9.3611 99.990509,8.9082 99.3125,8.9082 Z m 12.624998,0 v 4.183594 h 3.58008 c 0.67797,0 1.12891,-0.45285 1.12891,-1.130859 v -1.923829 c 0,-0.676006 -0.45187,-1.128906 -1.13086,-1.128906 z m -12.624998,5.578128 v 3.691406 h 3.769531 c 0.677967,0 1.128907,-0.450846 1.128907,-1.130859 v -1.542969 c 0,-0.602986 -0.41357,-1.017578 -1.017579,-1.017578 z m 53.812498,18.917969 h 6.0293 c 1.90401,0 3.20508,1.300133 3.20508,3.203125 v 1.695312 c 0,1.601991 -0.92488,2.771171 -2.33789,3.111328 l 2.71289,5.179688 h -2.48633 l -2.65625,-5.087891 h -2.20508 v 5.087891 h -2.26172 z m -56.074217,0.002 h 2.261719 v 10.097656 c 0,0.678992 0.451867,1.13086 1.130859,1.13086 h 3.015625 c 0.677974,0 1.128904,-0.450859 1.128904,-1.128907 h 0.002 V 33.40625 h 2.25976 v 9.984375 c 0,1.904013 -1.30106,3.205078 -3.20508,3.205078 h -3.388669 c -1.903975,0 -3.205078,-1.301103 -3.205078,-3.205078 z m 13.378907,0 h 2.26172 l 5.19922,9.023438 h 0.0762 V 33.40625 h 2.25976 v 13.189453 h -2.25976 l -5.20117,-9.025391 h -0.0742 v 9.025391 h -2.26172 z m 13.37891,0 h 2.25976 V 46.59575 h -2.25976 z m 4.70898,0 h 2.35547 l 3.1289,10.060547 h 0.0742 l 3.14649,-10.060547 h 2.14844 l -4.25782,13.189453 h -2.33789 z m 13.30273,0 h 8.10352 v 1.958984 h -5.8418 v 3.617188 h 5.46485 v 1.960937 h -5.46485 v 3.691407 h 6.02735 v 1.960937 h -8.28907 z m 26.94532,0 h 2.73242 c 1.90299,0 3.20312,1.300133 3.20312,3.203125 v 0.808594 h -2.26367 v -0.921875 c 0,-0.67903 -0.44991,-1.13086 -1.1289,-1.13086 h -2.35547 c -0.67801,0 -1.13086,0.45183 -1.13086,1.13086 v 1.355468 c 0,0.677972 0.45285,1.13086 1.13086,1.13086 h 2.63867 c 1.90201,0 3.20117,1.300133 3.20117,3.203125 h 0.002 v 1.205078 c 0,1.904013 -1.30013,3.205078 -3.20312,3.205078 h -3.01563 c -1.90303,0 -3.20312,-1.301065 -3.20312,-3.205078 v -0.808594 h 2.26172 v 0.921875 c 0,0.678992 0.45285,1.13086 1.13086,1.13086 h 2.63672 c 0.67797,0 1.13086,-0.451868 1.13086,-1.13086 v -1.43164 c -1e-5,-0.67903 -0.45289,-1.128907 -1.13086,-1.128907 h -2.63672 c -1.90303,0 -3.20313,-1.301065 -3.20313,-3.205078 v -1.128906 c 0,-1.902992 1.3001,-3.203125 3.20313,-3.203125 z m 9.41992,0 h 2.26172 l -0.002,13.189453 h -2.25976 z m 4.71094,0 h 9.79687 v 1.958984 h -3.76758 V 46.59575 h -2.26172 V 35.365234 h -3.76757 z m 10.92773,0 h 2.60156 l 2.91993,5.40625 h 0.0742 l 3.07422,-5.40625 h 2.35352 l -4.48633,7.591797 v 5.597656 h -2.25977 v -5.597656 z m -38.4375,1.958984 v 4.181641 h 3.58008 v 0.002 c 0.67797,0 1.13086,-0.45285 1.13086,-1.130859 v -1.921875 c 0,-0.67801 -0.45285,-1.13086 -1.13086,-1.13086 z M 96.767578,59.861328 h 3.392582 l -0.002,0.002 c 1.90303,0 3.20313,1.300133 3.20313,3.203125 v 6.78125 c 0,1.904013 -1.30013,3.205078 -3.20313,3.205078 h -3.390622 c -1.902992,0 -3.203125,-1.301065 -3.203125,-3.205078 v -6.78125 c 0,-1.903975 1.300171,-3.205078 3.203125,-3.205078 z m 10.175782,0 h 7.72461 v 1.960938 h -5.46289 v 3.617187 h 5.08789 v 1.960938 h -5.08985 v 5.65039 h -2.25976 z m 14.78906,0 h 9.79883 v 1.960938 h -3.76758 v 11.228515 h -2.26172 V 61.822266 h -3.76953 z m 12.24805,0 h 8.10156 v 1.960938 h -5.83984 v 3.617187 h 5.46484 v 1.960938 h -5.46484 v 3.691406 h 6.03125 v 1.958984 h -8.29297 z m 31.4668,0 h 2.26171 v 13.189453 h -2.26171 v -5.65039 h -5.27344 v 5.652343 h -2.26367 V 59.863281 h 2.26367 v 5.576172 h 5.27344 z m 13.3789,0 h 2.26172 v 13.189453 h -2.26172 l -5.20117,-9.02539 h -0.0762 v 9.027343 h -2.25977 V 59.863281 h 2.25977 l 5.20117,9.023438 h 0.0762 z m 9.04492,0 h 3.39063 v 0.002 c 1.90405,0 3.20312,1.300133 3.20312,3.203125 v 6.78125 c 0,1.904013 -1.29911,3.205078 -3.20312,3.205078 h -3.39063 c -1.90397,0 -3.20507,-1.301065 -3.20507,-3.205078 v -6.78125 c 0,-1.903975 1.3011,-3.205078 3.20507,-3.205078 z m 23.83594,0 h 3.39063 v 0.002 c 1.90299,0 3.20312,1.300133 3.20312,3.203125 v 6.78125 c 0,1.904013 -1.30106,3.205078 -3.20508,3.205078 h -3.39062 c -1.90303,0 -3.20313,-1.301065 -3.20313,-3.205078 v -6.78125 c 0,-1.903975 1.30107,-3.205078 3.20508,-3.205078 z m -63.2168,0.002 h 3.01368 0.002 c 1.90291,9.22e-4 3.20117,1.300808 3.20117,3.203125 V 63.875 h -2.26172 v -0.921875 c 0,-0.67903 -0.45285,-1.130859 -1.13086,-1.130859 h -2.63672 c -0.67797,0 -1.13085,0.451829 -1.13085,1.130859 v 7.007813 c 0,0.678009 0.45288,1.130859 1.13085,1.130859 h 2.63868 c 0.67801,0 1.1289,-0.45285 1.1289,-1.130859 v -0.923829 h 2.26367 v 0.810547 c 0,1.904013 -1.29915,3.205078 -3.20312,3.205078 h -3.01563 c -1.90303,0 -3.20312,-1.301065 -3.20312,-3.205078 v -6.78125 c 0,-1.902992 1.30009,-3.203125 3.20312,-3.203125 z m 49.55469,0 h 2.25977 v 11.228516 h 5.46484 v 1.960937 h -7.72461 z m 27.03906,0 h 3.01368 c 1.90299,-3.8e-5 3.20312,1.300171 3.20312,3.203125 V 63.875 h -2.25976 v -0.921875 c 0,-0.678954 -0.4528,-1.130859 -1.13282,-1.130859 h -2.63672 c -0.67899,0 -1.1289,0.450884 -1.1289,1.130859 v 7.009766 c 0,0.677971 0.44991,1.130859 1.1289,1.130859 h 2.63672 c 0.68002,0 1.13282,-0.4528 1.13282,-1.132812 v -1.619141 h -2.63868 v -1.960938 h 4.89844 v 3.466797 c 0,1.904013 -1.30017,3.205078 -3.20312,3.205078 h -3.01368 c -1.90303,0 -3.20312,-1.301065 -3.20312,-3.205078 v -6.78125 c 0,-1.902992 1.30013,-3.203125 3.20312,-3.203125 z m 7.91211,0 h 2.60157 l 2.91992,5.404297 h 0.0762 l 3.07031,-5.404297 h 2.35742 l -4.48632,7.591797 v 5.595703 h -2.26172 v -5.59575 z M 96.957031,61.822266 c -0.678992,0 -1.130859,0.451829 -1.130859,1.130859 v 7.007813 c 0,0.678009 0.451867,1.130859 1.130859,1.130859 h 3.015625 c 0.677024,0 1.128904,-0.45285 1.128904,-1.130859 v -7.007813 c 0,-0.67903 -0.45188,-1.130859 -1.128904,-1.130859 z m 91.101559,0 c -0.67899,0 -1.13086,0.451829 -1.13086,1.130859 v 7.007813 c 0,0.678009 0.45089,1.130859 1.13086,1.130859 h 3.01563 c 0.67601,0 1.13086,-0.45285 1.13086,-1.130859 h -0.002 v -7.007813 c 1e-5,-0.67903 -0.45187,-1.130859 -1.1289,-1.130859 z m 23.83399,0 c -0.67797,0 -1.12891,0.451829 -1.12891,1.130859 v 7.007813 c 0,0.678009 0.45094,1.130859 1.12891,1.130859 h 3.01562 c 0.68002,0 1.12891,-0.45285 1.12891,-1.130859 h 0.002 v -7.007813 c 0,-0.67903 -0.45186,-1.130859 -1.13086,-1.130859 z"
         transform="scale(0.26458333)" />
    </g>
  </g>
</svg>
