<?xml version="1.0" encoding="UTF-8" standalone="no"?>
<svg
   xmlns:dc="http://purl.org/dc/elements/1.1/"
   xmlns:cc="http://creativecommons.org/ns#"
   xmlns:rdf="http://www.w3.org/1999/02/22-rdf-syntax-ns#"
   xmlns:svg="http://www.w3.org/2000/svg"
   xmlns="http://www.w3.org/2000/svg"
   xmlns:sodipodi="http://sodipodi.sourceforge.net/DTD/sodipodi-0.dtd"
   xmlns:inkscape="http://www.inkscape.org/namespaces/inkscape"
   width="388.60629"
   height="80.000015"
   viewBox="0 0 102.81875 21.16667"
   version="1.1"
   id="svg1848"
   inkscape:version="1.0.2 (e86c870879, 2021-01-15)"
   sodipodi:docname="brno-fit-logo.svg">
  <defs
     id="defs1842" />
  <sodipodi:namedview
     id="base"
     pagecolor="#ffffff"
     bordercolor="#666666"
     borderopacity="1.0"
     inkscape:pageopacity="0.0"
     inkscape:pageshadow="2"
     inkscape:zoom="1"
     inkscape:cx="137.39013"
     inkscape:cy="-58.273997"
     inkscape:document-units="px"
     inkscape:current-layer="layer1"
     inkscape:document-rotation="0"
     showgrid="false"
     fit-margin-top="0"
     fit-margin-left="0"
     fit-margin-right="0"
     fit-margin-bottom="0"
     units="px"
     inkscape:window-width="1680"
     inkscape:window-height="1009"
     inkscape:window-x="0"
     inkscape:window-y="21"
     inkscape:window-maximized="1" />
  <metadata
     id="metadata1845">
    <rdf:RDF>
      <cc:Work
         rdf:about="">
        <dc:format>image/svg+xml</dc:format>
        <dc:type
           rdf:resource="http://purl.org/dc/dcmitype/StillImage" />
        <dc:title></dc:title>
      </cc:Work>
    </rdf:RDF>
  </metadata>
  <g
     inkscape:label="Layer 1"
     inkscape:groupmode="layer"
     id="layer1">
    <g
       id="g2656"
       style="stroke-width:0.999999">
      <path
         fill="#e4002b"
         d="m 17.72708,8.46667 h -3.70416 a 1.5610416,1.5610416 0 0 0 -1.5875,1.50812 v 8.28146 H 10.05417 V 6.35 H 3.43958 V 3.96875 h 6.61459 V 6.35 h 7.67291 z M 0,21.16667 H 21.16667 V 0 H 0 Z"
         id="path649-7"
         style="stroke-width:0.264583" />
      <path
         fill="#00ade9"
         d="M 100.17292,14.02292 V 6.87917 H 64.45417 V 0 H 39.84792 v 6.87917 h 15.34583 v 7.14375 h 11.37708 v 7.14375 h 36.24792 v -7.14375 z"
         id="path631"
         style="stroke-width:0.264583" />
      <path
         fill="#e62a32"
         d="M 55.19375,6.87917 H 39.84792 V 0 H 22.65 V 21.16667 H 66.57083 V 14.02292 H 55.19375 Z"
         id="path629"
         style="stroke-width:0.264583" />
      <path
         d="m 25.35418,4.80972 v -0.9771 h 1.02659 c 0.15981,0 0.26934,0.1098 0.26934,0.26934 v 0.40852 c 0,0.17992 -0.11959,0.29898 -0.29897,0.29898 h -0.99721 z m 0,-2.45295 h 0.92208 c 0.17939,0 0.29924,0.12012 0.29924,0.29898 v 0.3892 c 0,0.15955 -0.1098,0.26961 -0.26934,0.26961 h -0.95198 z m 1.89443,2.12408 V 4.26124 c 0,-0.3339 -0.16987,-0.58288 -0.44397,-0.6977 V 3.54374 C 27.03403,3.41912 27.17373,3.18444 27.17373,2.8807 V 2.68596 c 0,-0.5035 -0.34395,-0.84746 -0.84746,-0.84746 h -1.57056 v 3.48986 h 1.64518 c 0.50349,-2.7e-4 0.84746,-0.34423 0.84746,-0.84746 z m 1.44542,-2.12408 h 0.9472 c 0.17965,0 0.29924,0.12012 0.29924,0.29898 v 0.50906 c 0,0.17939 -0.11959,0.29898 -0.29897,0.29898 H 28.69429 V 2.35677 Z m 0,1.6256 h 0.58341 l 0.70299,1.34594 h 0.65802 L 29.92037,3.9575 c 0.37412,-0.09 0.61834,-0.39899 0.61834,-0.82285 V 2.68591 c 0,-0.5035 -0.34396,-0.84746 -0.84747,-0.84746 h -1.59543 v 3.48986 h 0.59822 z m 6.83022,-1.32662 c 0,-0.17912 0.11959,-0.29924 0.29897,-0.29924 h 0.79746 c 0.17964,0 0.29951,0.12012 0.29951,0.29924 v 1.85473 c 0,0.17965 -0.11987,0.29898 -0.29951,0.29898 h -0.79746 c -0.17939,0 -0.29897,-0.11933 -0.29897,-0.29898 z m 0.24896,2.67229 h 0.89747 c 0.5035,0 0.84747,-0.34396 0.84747,-0.84719 V 2.68591 c 0,-0.50376 -0.34396,-0.84772 -0.84747,-0.84772 h -0.8972 c -0.50324,0 -0.84746,0.34396 -0.84746,0.84772 v 1.79494 c 0,0.50323 0.34395,0.84719 0.84746,0.84719 z M 31.98465,2.94018 h 0.0196 l 1.3761,2.38786 h 0.59822 V 1.83845 h -0.59796 v 2.38787 h -0.0201 L 31.98467,1.83845 h -0.59848 v 3.48959 h 0.59848 z M 46.8209,8.83853 h -0.59823 v 3.48986 h 0.59796 z m -14.38779,0 h -0.59796 v 3.48986 h 0.59796 z m -5.68324,2.67229 c 0,0.1794 -0.1196,0.29872 -0.29898,0.29872 h -0.79772 c -0.17965,0 -0.29898,-0.11932 -0.29898,-0.29897 V 8.83854 h -0.59848 v 2.64213 c 0,0.50376 0.34396,0.84773 0.84772,0.84773 h 0.89693 c 0.50377,0 0.84772,-0.34396 0.84772,-0.84773 V 8.83854 h -0.59795 v 2.67228 z m 3.53985,-0.28442 h -0.0201 L 28.89379,8.83853 H 28.2953 v 3.48986 h 0.59849 V 9.94026 h 0.0198 l 1.37584,2.38813 h 0.59822 V 8.83853 H 30.28969 Z M 38.74476,9.35712 V 8.83853 h -2.14392 v 3.48986 h 2.19339 V 11.8098 h -1.59517 v -0.9771 h 1.44595 V 10.31411 H 37.19906 V 9.35685 Z M 35.38455,8.83853 34.5519,11.50078 H 34.5321 L 33.70447,8.83854 h -0.62309 l 1.1266,3.48986 h 0.61834 l 1.12659,-3.48986 z m 5.7531,1.62507 H 40.19044 V 9.35712 h 0.94721 c 0.17939,0 0.29897,0.11959 0.29897,0.29898 v 0.50879 c 0,0.17939 -0.11959,0.29898 -0.29897,0.29898 z m 0.27913,0.49373 c 0.37386,-0.09 0.61834,-0.399 0.61834,-0.82286 V 9.68573 c 0,-0.5035 -0.34396,-0.84746 -0.84773,-0.84746 h -1.59544 v 3.48985 h 0.59849 v -1.34646 h 0.58314 l 0.703,1.34621 H 42.1346 L 41.41678,10.95706 Z M 52.6539,8.83854 51.84084,10.26915 h -0.0196 L 51.04839,8.83854 h -0.68792 l 1.13163,2.00871 v 1.48115 h 0.59796 V 10.84725 L 53.27671,8.83854 Z M 49.06429,12.3284 V 9.35713 h 0.99696 V 8.83854 h -2.59239 v 0.51859 h 0.99695 v 2.97127 z m -3.73935,-1.16682 c 0,-0.5035 -0.34395,-0.84746 -0.84719,-0.84746 h -0.69797 c -0.17939,0 -0.29898,-0.11959 -0.29898,-0.29897 V 9.65611 c 0,-0.17966 0.11959,-0.29898 0.29898,-0.29898 h 0.62309 c 0.17965,0 0.29897,0.11932 0.29897,0.29898 v 0.24421 h 0.5985 V 9.686 c 0,-0.5035 -0.34396,-0.84746 -0.84746,-0.84746 h -0.72285 c -0.50351,0 -0.84746,0.34396 -0.84746,0.84746 v 0.29898 c 0,0.50377 0.34395,0.84773 0.84746,0.84773 H 44.428 c 0.17938,0 0.29898,0.11932 0.29898,0.29898 v 0.37888 c 0,0.17965 -0.1196,0.29898 -0.29898,0.29898 h -0.69797 c -0.17939,0 -0.29924,-0.11933 -0.29924,-0.29898 v -0.24421 h -0.59823 v 0.21431 c 0,0.50377 0.34396,0.84773 0.84747,0.84773 h 0.79772 c 0.5035,0 0.84746,-0.34396 0.84746,-0.84773 v -0.31909 z m 18.61556,4.67704 -0.8128,1.43034 h -0.0198 l -0.77258,-1.43034 h -0.68818 l 1.13162,2.00899 v 1.4806 h 0.59849 v -1.4806 l 1.18666,-2.00899 z m -16.62589,2.38787 h -0.0204 l -1.37583,-2.38787 h -0.59796 v 3.48986 h 0.59796 v -2.3884 h 0.0201 l 1.37584,2.38787 H 47.9128 V 15.8381 H 47.31432 Z M 32.20849,16.35694 h 0.99748 v 2.97127 h 0.59796 v -2.97127 h 0.99721 v -0.51858 h -2.59265 z m 20.78884,-0.51832 h -0.59796 v 3.48986 h 2.04391 V 18.8099 h -1.44595 z m -9.22284,1.47559 h -1.39542 v -1.47559 h -0.59875 v 3.48986 h 0.59875 v -1.49569 h 1.39568 v 1.49542 h 0.59822 v -3.48985 h -0.59822 z m 7.07972,1.19644 c 0,0.17939 -0.12012,0.29925 -0.29898,0.29925 h -0.79799 c -0.17991,0 -0.29924,-0.11986 -0.29924,-0.29925 v -1.85446 c 0,-0.17966 0.11959,-0.29925 0.29924,-0.29925 h 0.79772 c 0.17913,0 0.29898,0.11959 0.29898,0.29925 v 1.85446 z M 50.60443,15.83836 H 49.7075 c -0.50376,0 -0.84772,0.34396 -0.84772,0.84772 v 1.79467 c 0,0.50377 0.34396,0.84773 0.84772,0.84773 h 0.89693 c 0.50377,0 0.84774,-0.34396 0.84774,-0.84773 v -1.79467 c 0,-0.5035 -0.34396,-0.84746 -0.84774,-0.84746 z m -23.85456,2.67229 c 0,0.17939 -0.11985,0.29925 -0.29898,0.29925 h -0.79772 c -0.17965,0 -0.29898,-0.11986 -0.29898,-0.29925 v -1.85446 c 0,-0.17966 0.11933,-0.29925 0.29898,-0.29925 h 0.79772 c 0.17913,0 0.29898,0.11959 0.29898,0.29925 z m -0.24924,-2.67229 h -0.89774 c -0.50349,0 -0.84746,0.34396 -0.84746,0.84772 v 1.79467 c 0,0.50377 0.34396,0.84773 0.84746,0.84773 h 0.89747 c 0.5035,0 0.84747,-0.34396 0.84747,-0.84773 v -1.79467 c 0,-0.5035 -0.34396,-0.84746 -0.84747,-0.84746 z m 33.85027,2.6e-4 h -0.79746 c -0.5035,0 -0.84747,0.34396 -0.84747,0.84746 v 1.79467 c 0,0.50377 0.34396,0.84773 0.84747,0.84773 h 0.79746 c 0.50349,0 0.84746,-0.34396 0.84746,-0.84773 v -0.91732 h -1.29593 v 0.51859 h 0.69797 v 0.42862 c 0,0.17992 -0.11959,0.29951 -0.29951,0.29951 h -0.69771 c -0.17965,0 -0.29898,-0.11986 -0.29898,-0.29924 v -1.85447 c 0,-0.17991 0.11933,-0.29924 0.29898,-0.29924 h 0.69771 c 0.17992,0 0.29951,0.1196 0.29951,0.29924 v 0.24395 h 0.59796 v -0.21432 c 0,-0.50349 -0.34396,-0.84746 -0.84746,-0.84745 z m -20.26523,0 h -0.79772 c -0.50351,0 -0.84746,0.34396 -0.84746,0.84746 v 1.79467 c 0,0.50377 0.34395,0.84773 0.84746,0.84773 h 0.79772 c 0.50376,0 0.84772,-0.34396 0.84772,-0.84773 v -0.21457 h -0.59875 v 0.24447 c 0,0.17939 -0.11959,0.29925 -0.29898,0.29925 h -0.69824 c -0.17938,0 -0.29898,-0.11986 -0.29898,-0.29925 v -1.85446 c 0,-0.17966 0.1196,-0.29925 0.29898,-0.29925 h 0.69797 c 0.17939,0 0.29898,0.11959 0.29898,0.29925 v 0.24421 h 0.59876 v -0.21432 c 0,-0.5035 -0.34396,-0.84746 -0.84773,-0.84746 z m -4.03808,1.99417 h 1.44569 v -0.51858 h -1.44569 v -0.95727 h 1.54517 v -0.51858 h -2.14365 v 3.48985 h 2.19392 V 18.8099 h -1.59544 z m 21.11243,0.67786 c 0,0.17939 -0.11906,0.29925 -0.29898,0.29925 h -0.79772 c -0.17938,0 -0.29898,-0.11986 -0.29898,-0.29925 v -1.85446 c 0,-0.17966 0.1196,-0.29925 0.29898,-0.29925 h 0.79799 c 0.17965,0 0.29898,0.11959 0.29898,0.29925 v 1.85446 z m -0.24897,-2.67229 h -0.89694 c -0.50377,0 -0.84772,0.34396 -0.84772,0.84772 v 1.79467 c 0,0.50377 0.34395,0.84773 0.84746,0.84773 h 0.89693 c 0.50377,0 0.84773,-0.34396 0.84773,-0.84773 v -1.79467 c 0,-0.5035 -0.34396,-0.84746 -0.84746,-0.84746 z m -28.61548,3.48985 h 0.59796 v -1.49542 h 1.34646 v -0.51858 h -1.3462 v -0.95727 h 1.44568 v -0.51858 h -2.0439 z m 68.60011,-8.1018 h -0.0204 L 95.49945,8.83854 h -0.59796 v 3.48986 h 0.59796 V 9.94027 h 0.0196 l 1.37663,2.38813 h 0.59769 V 8.83854 h -0.59796 z m -3.54013,0.28442 c 0,0.17913 -0.11933,0.29898 -0.29898,0.29898 h -0.79745 c -0.17992,0 -0.29925,-0.11985 -0.29925,-0.29898 V 9.65611 c 0,-0.17966 0.11907,-0.29951 0.29898,-0.29951 h 0.79772 c 0.17965,0 0.29898,0.11959 0.29898,0.29951 z M 93.10684,8.83854 h -0.89746 c -0.50351,0 -0.84747,0.34396 -0.84747,0.84746 v 1.79441 c 0,0.50376 0.34396,0.84772 0.84747,0.84772 h 0.89746 c 0.5035,0 0.84746,-0.34396 0.84746,-0.84772 V 9.686 c 0,-0.5035 -0.34396,-0.84746 -0.84746,-0.84746 z m -2.6916,0 h -0.59876 v 3.48986 h 0.59849 z m -19.60775,1.99417 h 1.34568 V 10.31412 H 70.80749 V 9.3566 h 1.44542 V 8.83854 h -2.0439 v 3.48986 h 0.59848 z M 89.16799,8.83854 H 86.5756 V 9.3566 h 0.99722 v 2.9718 h 0.59796 V 9.3566 h 0.99747 z m -15.29503,2.97127 c -0.17966,0 -0.29898,-0.11985 -0.29898,-0.29898 V 9.65611 c 0,-0.17966 0.11932,-0.29951 0.29898,-0.29951 h 0.79798 c 0.17965,0 0.29898,0.11959 0.29898,0.29951 v 1.85472 c 0,0.17913 -0.11933,0.29898 -0.29898,0.29898 z m 1.69518,-0.3294 V 9.686 c 0,-0.5035 -0.34396,-0.84746 -0.84746,-0.84746 h -0.89746 c -0.50351,0 -0.84747,0.34396 -0.84747,0.84746 v 1.79441 c 0,0.50376 0.34396,0.84772 0.84747,0.84772 h 0.89746 c 0.5035,0 0.84746,-0.34396 0.84746,-0.84772 z M 69.26153,12.3284 V 8.83854 h -0.59795 v 2.38787 h -0.0201 L 67.26764,8.83854 h -0.59822 v 3.48986 h 0.59796 V 9.94027 h 0.0201 l 1.37583,2.38813 z M 58.26942,11.80981 c -0.17992,0 -0.29924,-0.11985 -0.29924,-0.29898 V 9.65611 c 0,-0.17966 0.11959,-0.29951 0.29924,-0.29951 h 0.79745 c 0.17992,0 0.29951,0.11959 0.29951,0.29951 v 1.85472 c 0,0.17913 -0.11959,0.29898 -0.29951,0.29898 z M 59.96434,11.4804 V 9.68599 c 0,-0.5035 -0.34396,-0.84746 -0.84746,-0.84746 h -0.89747 c -0.5035,0 -0.84746,0.34396 -0.84746,0.84746 v 1.79441 c 0,0.50376 0.34396,0.84772 0.84746,0.84772 h 0.89747 c 0.5035,0 0.84746,-0.34396 0.84746,-0.84772 z m 2.89137,-1.16629 h -1.3462 V 9.3566 h 1.44568 V 8.83854 h -2.04364 v 3.48986 h 0.59796 v -1.49569 h 1.3462 z m 2.26827,2.01428 h 0.59849 V 8.83853 H 65.12398 Z M 78.06105,10.4636 H 77.11384 V 9.35659 h 0.94721 c 0.17965,0 0.29898,0.11985 0.29898,0.29951 v 0.50852 c 0,0.17939 -0.1196,0.29898 -0.29898,0.29898 z m 0.99668,1.86479 -0.71755,-1.37133 c 0.37359,-0.0894 0.61833,-0.39846 0.61833,-0.82232 V 9.686 c 0,-0.50351 -0.34396,-0.84746 -0.84772,-0.84746 h -1.59544 v 3.48959 h 0.59849 V 10.9822 h 0.58314 l 0.70273,1.34593 h 0.65802 z m 3.30571,-2.14868 v 2.14841 h 0.59319 V 8.83853 H 82.38328 L 81.4157,11.0568 H 81.3959 L 80.42859,8.83853 h -0.62283 v 3.48986 h 0.59849 v -2.14868 h 0.0243 l 0.93768,2.14841 h 0.0296 l 0.94245,-2.14841 z m 2.2733,0.74771 0.4437,-1.32107 h 0.0199 l 0.43868,1.32107 z m 1.36525,1.40097 h 0.62362 L 85.4244,8.83853 h -0.61807 l -1.202,3.48959 h 0.56886 l 0.29368,-0.88265 H 85.7083 Z M 57.67834,5.32804 h 0.59849 v -2.971 h 0.99695 V 1.83845 h -2.59239 v 0.51859 h 0.99695 z m -5.70812,0 h 0.89747 c 0.5035,0 0.84746,-0.34396 0.84746,-0.84746 V 1.83845 h -0.59796 v 2.67229 c 0,0.17966 -0.12012,0.29898 -0.29951,0.29898 h -0.79745 c -0.17992,0 -0.29898,-0.11932 -0.29898,-0.29898 V 1.83845 h -0.59849 v 2.6424 c 0,0.50323 0.34396,0.84719 0.84746,0.84719 z m -3.34036,0 h 0.79771 c 0.50351,0 0.84773,-0.34396 0.84773,-0.84746 V 4.26627 h -0.59822 v 0.24421 c 0,0.17965 -0.1196,0.29898 -0.29898,0.29898 h -0.69824 c -0.17965,0 -0.29898,-0.11933 -0.29898,-0.29898 V 2.65575 c 0,-0.17912 0.11933,-0.29898 0.29898,-0.29898 h 0.69771 c 0.17965,0 0.29898,0.11986 0.29898,0.29898 v 0.24474 h 0.59848 V 2.68591 c 0,-0.50376 -0.34422,-0.84772 -0.84772,-0.84772 h -0.79772 c -0.5035,0 -0.84746,0.34396 -0.84746,0.84772 v 1.79467 c 0,0.5035 0.34396,0.84746 0.84746,0.84746 z M 45.589,2.60627 h 0.0198 l 0.43895,1.32107 h -0.9025 z m -0.61304,1.83939 h 1.24116 l 0.29422,0.88238 h 0.62309 L 45.93322,1.83819 h -0.61833 l -1.20147,3.48985 h 0.56859 L 44.97569,4.44566 Z M 42.54312,3.83262 h 1.34593 V 3.31456 H 42.54312 V 2.35704 H 43.9888 V 1.83845 h -2.04417 v 3.48959 h 0.59849 z M 56.70653,4.80999 H 55.26058 V 1.83872 h -0.59849 v 3.48932 h 2.04444 z m 3.99785,0.51805 H 61.3026 V 3.8477 l 1.18692,-2.00925 h -0.62335 l -0.8128,1.43087 h -0.0201 L 60.26068,1.83845 H 59.57277 L 60.70439,3.8477 Z M 79.92424,17.3142 h -1.39567 v -1.47559 h -0.59876 v 3.48986 h 0.59876 v -1.49569 h 1.39567 v 1.49542 h 0.59823 v -3.48985 h -0.59823 z m -7.72715,0.51858 h 1.44594 V 17.3142 h -1.44594 v -0.95727 h 1.54516 v -0.51858 h -2.14312 v 3.48985 h 2.19339 v -0.51831 h -1.59543 z m 27.8929,-1.99417 -0.81227,1.43034 h -0.0204 l -0.77206,-1.43034 h -0.68844 l 1.13162,2.00899 v 1.4806 h 0.59796 v -1.4806 l 1.18692,-2.00899 z m -16.62562,2.38787 h -0.0204 l -1.37636,-2.38787 h -0.59769 v 3.48986 h 0.59796 v -2.3884 h 0.0206 l 1.37584,2.38787 h 0.59796 V 15.83809 H 83.46432 Z M 68.35825,16.35693 h 0.99721 v 2.97127 h 0.59849 v -2.97127 h 0.99695 v -0.51858 h -2.59265 z m 7.87717,-0.51832 H 75.4377 c -0.5035,0 -0.84746,0.34396 -0.84746,0.84746 v 1.79467 c 0,0.50377 0.34396,0.84773 0.84746,0.84773 h 0.79772 c 0.5035,0 0.84746,-0.34396 0.84746,-0.84773 v -0.21457 h -0.59849 v 0.24447 c 0,0.17939 -0.11906,0.29925 -0.29897,0.29925 h -0.69771 c -0.17965,0 -0.29924,-0.11986 -0.29924,-0.29925 v -1.85446 c 0,-0.17966 0.11959,-0.29925 0.29897,-0.29925 h 0.69798 c 0.17991,0 0.29897,0.11959 0.29897,0.29925 v 0.24421 h 0.59849 v -0.21432 c 0,-0.5035 -0.34396,-0.84746 -0.84746,-0.84746 z m 17.07489,2.67203 c 0,0.17939 -0.1196,0.29925 -0.29951,0.29925 h -0.79746 c -0.17938,0 -0.29898,-0.11986 -0.29898,-0.29925 v -1.85446 c 0,-0.17966 0.1196,-0.29925 0.29898,-0.29925 h 0.79746 c 0.17991,0 0.29951,0.11959 0.29951,0.29925 z M 93.0608,15.83835 h -0.89746 c -0.5035,0 -0.84746,0.34396 -0.84746,0.84772 v 1.79467 c 0,0.50377 0.34396,0.84773 0.84746,0.84773 h 0.89746 c 0.50351,0 0.84746,-0.34396 0.84746,-0.84773 v -1.79467 c 0,-0.5035 -0.34395,-0.84746 -0.84746,-0.84746 z m -6.0571,2.67229 c 0,0.17939 -0.11986,0.29925 -0.29898,0.29925 h -0.79745 c -0.17992,0 -0.29951,-0.11986 -0.29951,-0.29925 v -1.85446 c 0,-0.17966 0.11959,-0.29925 0.29951,-0.29925 h 0.79745 c 0.17912,0 0.29898,0.11959 0.29898,0.29925 z m -0.24897,-2.67229 h -0.89747 c -0.5035,0 -0.84746,0.34396 -0.84746,0.84772 v 1.79467 c 0,0.50377 0.34396,0.84773 0.84746,0.84773 h 0.89747 c 0.50297,0 0.84693,-0.34396 0.84693,-0.84773 v -1.79467 c 0,-0.5035 -0.34396,-0.84746 -0.84693,-0.84746 z m 9.74592,2.6e-4 h -0.79772 c -0.5035,0 -0.84746,0.34396 -0.84746,0.84746 v 1.79467 c 0,0.50377 0.34396,0.84774 0.84746,0.84774 h 0.79799 c 0.5035,0 0.84746,-0.34396 0.84746,-0.84774 v -0.91731 h -1.29646 v 0.51859 h 0.69797 v 0.42862 c 0,0.17992 -0.11959,0.29951 -0.29898,0.29951 h -0.69797 c -0.17939,0 -0.29898,-0.11986 -0.29898,-0.29924 v -1.85447 c 0,-0.17991 0.11959,-0.29924 0.29898,-0.29924 h 0.69797 c 0.17939,0 0.29898,0.1196 0.29898,0.29924 v 0.24395 h 0.59849 v -0.21432 c 0,-0.50349 -0.34396,-0.84746 -0.84746,-0.84746 z m -7.35356,0 h -0.59822 v 3.48987 H 90.5933 V 18.8099 h -1.44621 z"
         fill="#ffffff"
         id="path633"
         style="stroke-width:0.264583" />
    </g>
  </g>
</svg>
