<svg width="2.0833in" height=".91511in" version="1.0" xmlns="http://www.w3.org/2000/svg">
 <g transform="matrix(.17922 0 0 .17922 41.625 -50.973)" fill="#fff" stroke-width="5.5797">
  <g transform="matrix(1.2499 0 0 1.2499 -232.26 280.6)" fill="#fff" stroke="#000" stroke-width="31.133">
   <clipPath>
    <path d="m0 0h3390.5v395.16h-3390.5z"/>
   </clipPath>
   <g fill="#fff" stroke-width="5.5797">
    <path d="m86.4 193.62h-86.4v-64.8h86.4v-50.4h-14.4v-36h14.4v-14.4h36v14.4h216c59.668-31.267 129.7-37.338 190.24-38.083 66.813-0.858 70.275-0.107 97.53 0.088 115.37 0.859 123.32 1.368 139.6-1.201 6.564-1.081 13.763 3.26 14.332 6.495 1.323 7.172-13.626 15.478-18.242 16.941-14.351 4.555-40.043 6.616-109.93 10.648l-1.664 0.034c-110.99 10.48-173.25 36.647-189.34 44.135-63.641 29.703-70.511 43.531-62.237 52.355 8.768 9.358 58.312-11.226 82.607-18.164 48.282-13.774 76.735-0.583 94.708 13.152h43.2v-7.2h28.8v7.2h244.8v64.8h-244.8v50.401h208.8v36h-208.8v115.2h-28.8v-115.2h-14.4v-36h14.4v-50.401h-14.4c-0.249 25.469-7.709 48.819-14.848 58.438-66.632 89.505-368.87 101.02-462.49 102.55-23.625 0.405-40.536-3.558-41.059-9.787m167.37-217.57c4.039-16.988 15.325-34.298 28.846-48.704l-158.2 0.631-0.574 49.838 129.12 0.524 0.61 1.033m498.38-118.76c-1.645-0.819-85.667 3.864-90.391 3.435-4.723-0.43-55.339 0.295-83.09-0.43-32.85-0.859-67.324 0.034-99.409 3.006-32.42 3.006-65.914 13.097-93.61 24.691-26.348 11.031-52.604 24.905-73.215 41.223-10.555 8.354-18.579 17.633-25.764 28.986-8.159 12.881-12.092 27.596-6.657 39.935 5.859 13.284 18.962 19.168 35.212 21.685 14.754 2.294 32.85 1.073 44.444 3.435 6.884 1.402 18.183 3.254 18.894 9.877 0.644 6.011-10.206 16.063-15.244 18.463-9.447 4.51-22.115 0.645-34.353-1.932-8.435-1.771-20.953-5.878-28.771-9.448-5.279-2.414-10.927-4.32-12.001-4.32-0.428 0-165.81-0.428-165.6 0 0 2.791-0.213 137.56 0 144 0.235 7.112 24.778 5.005 39.976 3.529 29.361-2.873 59.902-6.442 89.532-10.735 16.942-2.456 34.897-5.637 51.958-9.019 27.053-5.366 59.401-12.882 72.852-17.177 33.642-10.734 68.424-20.181 100.2-33.922 14.286-6.173 31.347-13.956 42.942-21.901 12.358-8.468 25.549-20.182 31.132-32.205 6.199-13.352 8.097-29.428 1.717-44.015-6.011-13.741-22.544-25.978-36.929-28.341-8.187-1.342-14.6-2.147-22.544-1.503-9.138 0.738-24.691 4.079-34.997 5.368-16.942 2.12-36.849 5.133-53.462 2.577-11.164-1.719-28.77-16.103-22.544-32.85 4.563-12.279 22.242-24.88 32.85-31.776 25.765-16.748 72.114-31.368 111.86-40.795 33.493-7.943 80.513-14.385 120.23-14.814 3.83-0.04 39.713-2.449 43.37-2.577 60.332-2.147 62.264-12.023 61.406-12.452" fill="#fff" stroke="none"/>
   </g>
  </g>
 </g>
</svg>
