<svg width="142.95mm" height="142.95mm" version="1.1" viewBox="0 0 142.95 142.95" xmlns="http://www.w3.org/2000/svg">
 <defs>
  <clipPath id="clipPath1240">
   <path d="m1749.7 3623.5c0-10.119 8.2031-18.322 18.322-18.322 10.119 0 18.322 8.2031 18.322 18.322 0 10.119-8.2031 18.322-18.322 18.322-10.119 0-18.322-8.2029-18.322-18.322z" fill="#fff" stroke-width="23.371" style="mix-blend-mode:normal"/>
  </clipPath>
 </defs>
 <g transform="translate(-38.845 -27.412)">
  <rect x="38.845" y="27.412" width="142.95" height="142.95" fill="#e76f51" stop-color="#000000"/>
  <g fill="#fff">
   <g>
    <path d="m120.49 47.889c-11.773 0-23.546 4.4911-32.529 13.474l65.057 65.057c17.965-17.965 17.965-47.092 0-65.057-8.9825-8.9825-20.756-13.474-32.529-13.474z" style="mix-blend-mode:normal"/>
    <path d="m105.89 87.157c-17.787-6e-5 -32.206 14.42-32.206 32.206 6e-5 8.8934 3.6054 16.944 9.4335 22.772 1.9838 1.9839 4.2254 3.7098 6.6701 5.124v-27.896l16.103 32.206v-32.206z" style="mix-blend-mode:normal"/>
    <path d="m60.637 132.06 6.8891-16.234 6.8892-16.234c-6.9769 0.86336-13.316 5.3202-16.26 12.257-2.9438 6.9369-1.7449 14.593 2.4816 20.211z" stop-color="#000000" style="font-variation-settings:normal;mix-blend-mode:normal"/>
    <path d="m121.9 144.94-0.1737-21.654-0.17362-21.653c-7.4372 4.3823-12.4 12.501-12.326 21.754 0.0743 9.2528 5.1664 17.291 12.673 21.553z" stop-color="#000000" style="font-variation-settings:normal;mix-blend-mode:normal"/>
    <path d="m161.16 139.96-19.738-19.065-19.738-19.065c-2.6389 10.617 0.2984 22.312 8.7326 30.459 8.4342 8.1467 20.224 10.677 30.742 7.6736z" stop-color="#000000" style="font-variation-settings:normal;mix-blend-mode:normal"/>
   </g>
   <path d="m58.076 78.764c0-4.6549 3.7736-8.4285 8.4286-8.4285 4.6549 0 8.4285 3.7736 8.4285 8.4285 0 4.655-3.7736 8.4285-8.4285 8.4285-4.655 0-8.4286-3.7735-8.4286-8.4285z" stroke-width="10.751" style="mix-blend-mode:normal"/>
  </g>
  <circle transform="matrix(.46002 0 0 .46002 -746.84 -1588.1)" cx="1777.5" cy="3616.9" r="14.795" clip-path="url(#clipPath1240)" fill="#1a1a1a" stop-color="#000000"/>
  <path d="m76.275 78.764c0-4.6549 3.7736-8.4285 8.4286-8.4285 4.6549 0 8.4285 3.7736 8.4285 8.4285 0 4.655-3.7736 8.4285-8.4285 8.4285-4.655 0-8.4286-3.7735-8.4286-8.4285z" fill="#fff" stroke-width="10.751" style="mix-blend-mode:normal"/>
  <circle transform="matrix(.46002 0 0 .46002 -728.64 -1588.1)" cx="1777.5" cy="3616.9" r="14.795" clip-path="url(#clipPath1240)" fill="#1a1a1a" stop-color="#000000"/>
 </g>
</svg>
