<svg width="142.95mm" height="186.69mm" version="1.1" viewBox="0 0 142.95 186.69" xmlns="http://www.w3.org/2000/svg">
 <defs>
  <clipPath id="clipPath1240">
   <path d="m1749.7 3623.5c0-10.119 8.2031-18.322 18.322-18.322 10.119 0 18.322 8.2031 18.322 18.322 0 10.119-8.2031 18.322-18.322 18.322-10.119 0-18.322-8.2029-18.322-18.322z" fill="#fff" stroke-width="23.371" style="mix-blend-mode:normal"/>
  </clipPath>
 </defs>
 <g transform="translate(-38.845 -27.412)">
  <rect x="38.845" y="27.412" width="142.95" height="142.95" fill="#e76f51" stop-color="#000000"/>
  <g fill="#fff">
   <g>
    <path d="m120.49 47.889c-11.773 0-23.546 4.4911-32.529 13.474l65.057 65.057c17.965-17.965 17.965-47.092 0-65.057-8.9825-8.9825-20.756-13.474-32.529-13.474z" style="mix-blend-mode:normal"/>
    <path d="m105.89 87.157c-17.787-6e-5 -32.206 14.42-32.206 32.206 6e-5 8.8934 3.6054 16.944 9.4335 22.772 1.9838 1.9839 4.2254 3.7098 6.6701 5.124v-27.896l16.103 32.206v-32.206z" style="mix-blend-mode:normal"/>
    <path d="m60.637 132.06 6.8891-16.234 6.8892-16.234c-6.9769 0.86336-13.316 5.3202-16.26 12.257-2.9438 6.9369-1.7449 14.593 2.4816 20.211z" stop-color="#000000" style="font-variation-settings:normal;mix-blend-mode:normal"/>
    <path d="m121.9 144.94-0.1737-21.654-0.17362-21.653c-7.4372 4.3823-12.4 12.501-12.326 21.754 0.0743 9.2528 5.1664 17.291 12.673 21.553z" stop-color="#000000" style="font-variation-settings:normal;mix-blend-mode:normal"/>
    <path d="m161.16 139.96-19.738-19.065-19.738-19.065c-2.6389 10.617 0.2984 22.312 8.7326 30.459 8.4342 8.1467 20.224 10.677 30.742 7.6736z" stop-color="#000000" style="font-variation-settings:normal;mix-blend-mode:normal"/>
   </g>
   <path d="m58.076 78.764c0-4.6549 3.7736-8.4285 8.4286-8.4285 4.6549 0 8.4285 3.7736 8.4285 8.4285 0 4.655-3.7736 8.4285-8.4285 8.4285-4.655 0-8.4286-3.7735-8.4286-8.4285z" stroke-width="10.751" style="mix-blend-mode:normal"/>
  </g>
  <circle transform="matrix(.46002 0 0 .46002 -746.84 -1588.1)" cx="1777.5" cy="3616.9" r="14.795" clip-path="url(#clipPath1240)" fill="#1a1a1a" stop-color="#000000"/>
  <path d="m76.275 78.764c0-4.6549 3.7736-8.4285 8.4286-8.4285 4.6549 0 8.4285 3.7736 8.4285 8.4285 0 4.655-3.7736 8.4285-8.4285 8.4285-4.655 0-8.4286-3.7735-8.4286-8.4285z" fill="#fff" stroke-width="10.751" style="mix-blend-mode:normal"/>
  <g>
   <circle transform="matrix(.46002 0 0 .46002 -728.64 -1588.1)" cx="1777.5" cy="3616.9" r="14.795" clip-path="url(#clipPath1240)" fill="#1a1a1a" stop-color="#000000"/>
   <rect x="38.845" y="176.29" width="142.95" height="37.804" fill="#333" stop-color="#000000"/>
   <g fill="#fff" stroke-width=".56251" aria-label="JShelter">
    <path d="m71.932 186.56h4.3786v11.218q-8e-3 1.598-0.80701 2.8126-0.79103 1.2065-2.1893 1.8857-1.3903 0.67118-3.2041 0.67118-1.5741 0-2.8765-0.54333-1.3024-0.55133-2.0775-1.7259-0.77505-1.1826-0.76706-3.0682h4.4426q0.07191 1.8857 1.5661 1.8857 1.5102 0 1.5341-1.9176z"/>
    <path d="m86.712 191.67q-0.06392-0.79903-0.59927-1.2465-0.52736-0.44745-1.606-0.44745-1.0307 0-1.5022 0.35157t-0.47941 0.8949q-0.03196 0.58329 0.50338 0.95084 0.54334 0.36755 1.7019 0.61525l1.3424 0.28765q2.7087 0.58329 3.9072 1.8697 1.1985 1.2784 1.2065 3.1482-8e-3 2.421-1.7738 3.7234-1.7658 1.2944-4.874 1.2944-2.1334 0-3.7234-0.63123-1.5821-0.63122-2.461-1.9416-0.87094-1.3184-0.87893-3.3719h4.2188q0.05593 1.1266 0.77505 1.7179 0.72711 0.58329 2.0055 0.58329 1.0707 0 1.614-0.38354 0.55133-0.38353 0.55932-0.99078-8e-3 -0.55932-0.55133-0.92687-0.54334-0.37554-1.9097-0.67118l-1.63-0.35157q-2.1733-0.47143-3.4278-1.5741-1.2465-1.1106-1.2385-3.0283-8e-3 -1.5581 0.83098-2.7247 0.84696-1.1746 2.3411-1.8298 1.5022-0.6552 3.4438-0.6552 1.9816 0 3.4278 0.66319 1.4462 0.66319 2.2293 1.8697 0.79103 1.1985 0.79902 2.8046z"/>
    <path d="m96.826 196.02v6.9036h-4.4106v-16.364h4.2508v6.4242h0.12784q0.41549-1.1746 1.3823-1.8298 0.96682-0.66319 2.3252-0.66319 1.3024 0 2.2612 0.59128 0.96682 0.59128 1.4942 1.63 0.53535 1.0387 0.52736 2.3811v7.8304h-4.4106v-6.9036q8e-3 -0.91088-0.45545-1.4302-0.45544-0.51936-1.3024-0.51936-0.80701 0-1.2944 0.51936-0.4874 0.51937-0.49539 1.4302z"/>
    <path d="m112.31 203.15q-2.9484 0-4.6423-1.67-1.6859-1.6779-1.6859-4.6583 0-1.9017 0.76706-3.3239 0.76707-1.4223 2.1654-2.2133 1.3983-0.79104 3.3-0.79104 1.8537 0 3.2201 0.75907 1.3743 0.75908 2.1254 2.1734 0.75907 1.4063 0.75907 3.3639v1.0228h-7.9902v0.19176q0 0.88692 0.54333 1.4702 0.55133 0.57529 1.5341 0.57529 0.67917 0 1.1826-0.27966 0.51138-0.28764 0.70314-0.80701h4.0271q-0.31162 1.9177-1.8857 3.0523-1.5661 1.1346-4.123 1.1346zm-1.9816-7.7665h3.9312q-0.016-0.79104-0.57529-1.2864-0.55133-0.50339-1.3743-0.50339-0.80702 0-1.3903 0.4954-0.5753 0.49539-0.59128 1.2944z"/>
    <path d="m123.99 186.56v16.364h-4.4106v-16.364z"/>
    <path d="m133.02 190.65v3.1961h-2.1094v5.1297q0 0.76706 0.83098 0.76706 0.19976 0 0.46343-0.0479 0.27167-0.0479 0.39952-0.0799l0.63921 3.1002q-0.29563 0.0879-0.84696 0.21574-0.54334 0.12784-1.2944 0.16779-2.2852 0.12785-3.4598-0.82299-1.1666-0.95883-1.1426-2.8845v-5.5452h-1.5661v-3.1961h1.5661v-2.9404h4.4106v2.9404z"/>
    <path d="m140.03 203.15q-2.9484 0-4.6423-1.67-1.6859-1.6779-1.6859-4.6583 0-1.9017 0.76707-3.3239 0.76706-1.4223 2.1654-2.2133 1.3983-0.79104 3.3-0.79104 1.8537 0 3.2201 0.75907 1.3743 0.75908 2.1254 2.1734 0.75907 1.4063 0.75907 3.3639v1.0228h-7.9902v0.19176q0 0.88692 0.54334 1.4702 0.55132 0.57529 1.5341 0.57529 0.67917 0 1.1826-0.27966 0.51137-0.28764 0.70314-0.80701h4.0271q-0.31161 1.9177-1.8857 3.0523-1.5661 1.1346-4.123 1.1346zm-1.9816-7.7665h3.9312q-0.016-0.79104-0.5753-1.2864-0.55133-0.50339-1.3743-0.50339-0.80702 0-1.3903 0.4954-0.5753 0.49539-0.59128 1.2944z"/>
    <path d="m147.3 202.92v-12.273h4.2828v2.3332h0.12785q0.33559-1.2944 1.0627-1.8937 0.7351-0.59927 1.7179-0.59927 0.55132 0 1.1186 0.1678v3.7634q-0.3276-0.11187-0.80701-0.1678-0.47942-0.0559-0.823-0.0559-0.97481 0-1.622 0.63922-0.6472 0.63922-0.6472 1.6939v6.3922z"/>
   </g>
  </g>
 </g>
</svg>
