<?xml version="1.0" encoding="UTF-8" standalone="no"?>
<svg
   xmlns:dc="http://purl.org/dc/elements/1.1/"
   xmlns:cc="http://creativecommons.org/ns#"
   xmlns:rdf="http://www.w3.org/1999/02/22-rdf-syntax-ns#"
   xmlns:svg="http://www.w3.org/2000/svg"
   xmlns="http://www.w3.org/2000/svg"
   xmlns:sodipodi="http://sodipodi.sourceforge.net/DTD/sodipodi-0.dtd"
   xmlns:inkscape="http://www.inkscape.org/namespaces/inkscape"
   width="105.83334mm"
   height="100.14561mm"
   version="1.1"
   viewBox="0 0 105.83334 100.14561"
   id="svg4749"
   sodipodi:docname="jshelter-hero.svg"
   inkscape:version="1.0.2 (e86c870879, 2021-01-15)">
  <metadata
     id="metadata4753">
    <rdf:RDF>
      <cc:Work
         rdf:about="">
        <dc:format>image/svg+xml</dc:format>
        <dc:type
           rdf:resource="http://purl.org/dc/dcmitype/StillImage" />
        <dc:title></dc:title>
      </cc:Work>
    </rdf:RDF>
  </metadata>
  <sodipodi:namedview
     pagecolor="#ffffff"
     bordercolor="#666666"
     borderopacity="1"
     objecttolerance="10"
     gridtolerance="10"
     guidetolerance="10"
     inkscape:pageopacity="0"
     inkscape:pageshadow="2"
     inkscape:window-width="1678"
     inkscape:window-height="1004"
     id="namedview4751"
     showgrid="false"
     fit-margin-top="0"
     fit-margin-left="0"
     fit-margin-right="0"
     fit-margin-bottom="0"
     inkscape:zoom="0.60630587"
     inkscape:cx="562.40378"
     inkscape:cy="76.116117"
     inkscape:window-x="0"
     inkscape:window-y="24"
     inkscape:window-maximized="0"
     inkscape:current-layer="svg4749" />
  <defs
     id="defs4725">
    <clipPath
       id="clipPath1240-3">
      <path
         d="m 1749.7,3623.5 c 0,-10.119 8.2031,-18.322 18.322,-18.322 10.119,0 18.322,8.2031 18.322,18.322 0,10.119 -8.2031,18.322 -18.322,18.322 -10.119,0 -18.322,-8.2029 -18.322,-18.322 z"
         fill="#ffffff"
         stroke-width="23.371"
         style="mix-blend-mode:normal"
         id="path4722" />
    </clipPath>
    <clipPath
       id="clipPath1240">
      <path
         d="m 1749.7,3623.5 c 0,-10.119 8.2031,-18.322 18.322,-18.322 10.119,0 18.322,8.2031 18.322,18.322 0,10.119 -8.2031,18.322 -18.322,18.322 -10.119,0 -18.322,-8.2029 -18.322,-18.322 z"
         fill="#ffffff"
         stroke-width="23.371"
         style="mix-blend-mode:normal"
         id="path4814" />
    </clipPath>
    <clipPath
       id="clipPath7308">
      <path
         d="m 1749.7,3623.5 c 0,-10.119 8.2031,-18.322 18.322,-18.322 10.119,0 18.322,8.2031 18.322,18.322 0,10.119 -8.2031,18.322 -18.322,18.322 -10.119,0 -18.322,-8.2029 -18.322,-18.322 z"
         fill="#ffffff"
         stroke-width="23.371"
         style="mix-blend-mode:normal"
         id="path7306" />
    </clipPath>
  </defs>
  <g
     id="g7611"
     transform="matrix(9.0119786,0,0,9.0119786,1272.0538,-402.18776)">
    <path
       id="path1464"
       style="font-family:none;font-variation-settings:normal;mix-blend-mode:normal;vector-effect:none;fill:#e76f51;fill-opacity:1;stroke:none;stroke-width:0.0150359;stroke-linecap:butt;stroke-linejoin:miter;stroke-miterlimit:4;stroke-dasharray:none;stroke-dashoffset:0;stroke-opacity:1;stop-color:#000000"
       d="m -141.15144,51.628084 c -0.002,0.738918 0.39789,1.385073 0.99816,1.731816 l 0.79824,-3.458433 c -1.09268,-0.16311 -1.77733,0.892674 -1.7964,1.726617 z"
       inkscape:transform-center-x="0.13376278"
       inkscape:transform-center-y="-0.018341268"
       sodipodi:nodetypes="cccc" />
    <path
       id="path1470"
       style="font-family:none;mix-blend-mode:normal;fill:#e76f51;fill-opacity:1;stroke:none;stroke-width:0.0105265;stroke-dasharray:none;stroke-dashoffset:0"
       d="m -136.19642,49.39063 c -1.49973,-6e-6 -2.71555,1.421544 -2.71555,3.175026 1e-5,0.87675 0.30399,1.670436 0.7954,2.24499 0.16725,0.19557 0.35627,0.365727 0.5624,0.505146 v -2.750136 l 1.35775,3.174975 v -3.174975 z" />
    <path
       id="path1472"
       style="font-family:none;font-variation-settings:normal;mix-blend-mode:normal;vector-effect:none;fill:#e76f51;fill-opacity:1;stroke:none;stroke-width:0.0153359;stroke-linecap:butt;stroke-linejoin:miter;stroke-miterlimit:4;stroke-dasharray:none;stroke-dashoffset:0;stroke-opacity:1;stop-color:#000000"
       d="m -132.26761,52.977745 c 0.65053,0.650529 1.91705,1.888437 1.91705,1.888437 -1.03419,0.28443 -2.18783,0.0252 -3.00703,-0.781785 -0.4317,-0.425184 -0.71258,-0.945498 -0.84257,-1.494582 l -10e-4,0.603822 -0.004,2.123301 c -0.73195,-0.425115 -1.22359,-1.21809 -1.22203,-2.125404 0.001,-0.907311 0.49592,-1.698609 1.17952,-1.590597 0.6836,0.108 1.41136,0.808428 1.97975,1.376808 z"
       sodipodi:nodetypes="scccccccs" />
    <g
       id="g1484"
       transform="matrix(2.8310578,0,0,2.8310578,-279.6223,-158.36461)"
       style="stroke-width:0.353223">
      <path
         id="path1474"
         style="font-family:none;mix-blend-mode:normal;fill:#e76f51;fill-opacity:1;stroke:none;stroke-width:0.00531107;stroke-dasharray:none;stroke-dashoffset:0"
         d="m 51.254709,72.003278 c -0.384803,0 -0.769607,0.146792 -1.063201,0.440386 l 1.063201,1.0632 1.063199,1.063201 c 0.587188,-0.587187 0.587188,-1.539212 0,-2.126401 -0.293592,-0.293594 -0.678399,-0.440386 -1.063199,-0.440386 z" />
      <path
         id="path1476"
         style="font-family:none;mix-blend-mode:normal;fill:#e76f51;fill-opacity:1;stroke:none;stroke-width:0.00531107;stroke-dasharray:none;stroke-dashoffset:0"
         d="m 52.108262,71.787057 c -0.221695,0 -0.443391,0.08457 -0.612537,0.253717 l 0.612537,0.612536 0.612536,0.612536 c 0.338293,-0.338291 0.338293,-0.886779 0,-1.225072 -0.169146,-0.169145 -0.390844,-0.253718 -0.612536,-0.253717 z" />
      <path
         id="path1478"
         style="font-family:none;mix-blend-mode:normal;fill:#e76f51;fill-opacity:1;stroke:none;stroke-width:0.00531107;stroke-dasharray:none;stroke-dashoffset:0"
         d="m 52.629981,71.702083 c -0.10992,0 -0.219842,0.04193 -0.303708,0.125799 l 0.303708,0.303708 0.303709,0.303708 c 0.167733,-0.167732 0.167733,-0.439683 -10e-7,-0.607416 -0.08386,-0.08387 -0.193787,-0.125799 -0.303708,-0.125799 z" />
      <path
         id="path1480"
         style="font-family:none;mix-blend-mode:normal;fill:#f5ab8d;fill-opacity:1;stroke:none;stroke-width:0.00531107;stroke-dasharray:none;stroke-dashoffset:0"
         d="m 52.200473,72.13159 c 0,-0.109921 0.04193,-0.219841 0.1258,-0.303708 l 0.303708,0.303708 0.303709,0.303708 c -0.167733,0.167734 -0.439685,0.167734 -0.607417,-10e-7 -0.08387,-0.08386 -0.1258,-0.193788 -0.1258,-0.303707 z" />
      <path
         id="path1482"
         style="font-family:none;mix-blend-mode:normal;fill:#f5ab8d;fill-opacity:1;stroke:none;stroke-width:0.00531107;stroke-dasharray:none;stroke-dashoffset:0"
         d="m 51.242006,72.653311 c 0,-0.221695 0.08457,-0.44339 0.253718,-0.612537 l 0.612536,0.612537 0.612538,0.612535 c -0.338294,0.338295 -0.88678,0.338295 -1.225074,0 -0.169146,-0.169144 -0.253718,-0.390842 -0.253718,-0.612535 z" />
    </g>
    <g
       id="g1568"
       transform="matrix(2.445306,0,0,2.445306,-281.65304,-130.91035)"
       style="stroke-width:0.408947">
      <path
         d="m 57.543108,73.409015 c 0,-0.179209 0.14528,-0.32449 0.324493,-0.32449 0.179209,0 0.324488,0.145281 0.324488,0.32449 0,0.179213 -0.145279,0.32449 -0.324488,0.32449 -0.179213,0 -0.324493,-0.145277 -0.324493,-0.32449 z"
         id="path1268-5"
         fill="#5c8b93"
         fill-rule="nonzero"
         stroke-width="0.169268"
         stroke-linecap="butt"
         stroke-linejoin="miter"
         stroke-miterlimit="4"
         style="font-family:none;mix-blend-mode:normal;fill:#ffffff;stroke:none;stroke-dasharray:none;stroke-dashoffset:0" />
      <path
         id="path1236-3"
         clip-path="none"
         style="fill:#1a1a1a;fill-opacity:1;stroke:none;stroke-width:0.0310379;stroke-linecap:round;stroke-linejoin:round;stop-color:#000000"
         d="m 218.73828,276.22656 a 0.99033943,0.99033943 0 0 0 -0.38672,0.78321 0.99033943,0.99033943 0 0 0 0.99024,0.99023 0.99033943,0.99033943 0 0 0 0.52539,-0.15234 c 0.0428,-0.12474 0.0723,-0.25725 0.0723,-0.39649 0,-0.66862 -0.53588,-1.21073 -1.20117,-1.22461 z"
         transform="scale(0.26458333)" />
    </g>
    <g
       id="g1602"
       transform="matrix(2.445306,0,0,2.445306,-279.27179,-130.91035)"
       style="stroke-width:0.408947">
      <path
         d="m 57.543108,73.409015 c 0,-0.179209 0.14528,-0.32449 0.324493,-0.32449 0.179209,0 0.324488,0.145281 0.324488,0.32449 0,0.179213 -0.145279,0.32449 -0.324488,0.32449 -0.179213,0 -0.324493,-0.145277 -0.324493,-0.32449 z"
         id="path1598"
         fill="#5c8b93"
         fill-rule="nonzero"
         stroke-width="0.169268"
         stroke-linecap="butt"
         stroke-linejoin="miter"
         stroke-miterlimit="4"
         style="font-family:none;mix-blend-mode:normal;fill:#ffffff;stroke:none;stroke-dasharray:none;stroke-dashoffset:0" />
      <path
         id="path1600"
         clip-path="none"
         style="fill:#1a1a1a;fill-opacity:1;stroke:none;stroke-width:0.0310379;stroke-linecap:round;stroke-linejoin:round;stop-color:#000000"
         d="m 218.73828,276.22656 a 0.99033943,0.99033943 0 0 0 -0.38672,0.78321 0.99033943,0.99033943 0 0 0 0.99024,0.99023 0.99033943,0.99033943 0 0 0 0.52539,-0.15234 c 0.0428,-0.12474 0.0723,-0.25725 0.0723,-0.39649 0,-0.66862 -0.53588,-1.21073 -1.20117,-1.22461 z"
         transform="scale(0.26458333)" />
    </g>
  </g>
</svg>
