<?xml version="1.0" encoding="UTF-8" standalone="no"?>
<svg
   xmlns:dc="http://purl.org/dc/elements/1.1/"
   xmlns:cc="http://creativecommons.org/ns#"
   xmlns:rdf="http://www.w3.org/1999/02/22-rdf-syntax-ns#"
   xmlns:svg="http://www.w3.org/2000/svg"
   xmlns="http://www.w3.org/2000/svg"
   xmlns:sodipodi="http://sodipodi.sourceforge.net/DTD/sodipodi-0.dtd"
   xmlns:inkscape="http://www.inkscape.org/namespaces/inkscape"
   width="142.95mm"
   height="186.69mm"
   version="1.1"
   viewBox="0 0 142.95 186.69"
   id="svg4716"
   sodipodi:docname="jshelter.svg"
   inkscape:version="1.0.2 (e86c870879, 2021-01-15)">
  <metadata
     id="metadata4720">
    <rdf:RDF>
      <cc:Work
         rdf:about="">
        <dc:format>image/svg+xml</dc:format>
        <dc:type
           rdf:resource="http://purl.org/dc/dcmitype/StillImage" />
      </cc:Work>
    </rdf:RDF>
  </metadata>
  <sodipodi:namedview
     pagecolor="#ffffff"
     bordercolor="#666666"
     borderopacity="1"
     objecttolerance="10"
     gridtolerance="10"
     guidetolerance="10"
     inkscape:pageopacity="0"
     inkscape:pageshadow="2"
     inkscape:window-width="1678"
     inkscape:window-height="1004"
     id="namedview4718"
     showgrid="false"
     inkscape:zoom="0.47619047"
     inkscape:cx="58.064052"
     inkscape:cy="285.50326"
     inkscape:window-x="0"
     inkscape:window-y="24"
     inkscape:window-maximized="0"
     inkscape:current-layer="svg4716" />
  <defs
     id="defs4666">
    <clipPath
       id="clipPath1240">
      <path
         d="m1749.7 3623.5c0-10.119 8.2031-18.322 18.322-18.322 10.119 0 18.322 8.2031 18.322 18.322 0 10.119-8.2031 18.322-18.322 18.322-10.119 0-18.322-8.2029-18.322-18.322z"
         fill="#fff"
         stroke-width="23.371"
         style="mix-blend-mode:normal"
         id="path4663" />
    </clipPath>
  </defs>
  <g
     id="g4712"
     transform="translate(-38.845,-27.412)">
    <circle
       transform="matrix(0.46002,0,0,0.46002,-728.64,-1588.1)"
       cx="1777.5"
       cy="3616.8999"
       r="14.795"
       clip-path="url(#clipPath1240)"
       fill="#1a1a1a"
       stop-color="#000000"
       id="circle4690" />
    <rect
       x="38.845001"
       y="176.28999"
       width="142.95"
       height="37.804001"
       fill="#333333"
       stop-color="#000000"
       id="rect4692" />
    <g
       fill="#ffffff"
       stroke-width="0.56251"
       aria-label="JShelter"
       id="g4710">
      <path
         d="m 71.932,186.56 h 4.3786 v 11.218 q -0.008,1.598 -0.80701,2.8126 -0.79103,1.2065 -2.1893,1.8857 -1.3903,0.67118 -3.2041,0.67118 -1.5741,0 -2.8765,-0.54333 -1.3024,-0.55133 -2.0775,-1.7259 -0.77505,-1.1826 -0.76706,-3.0682 h 4.4426 q 0.07191,1.8857 1.5661,1.8857 1.5102,0 1.5341,-1.9176 z"
         id="path4694" />
      <path
         d="m 86.712,191.67 q -0.06392,-0.79903 -0.59927,-1.2465 -0.52736,-0.44745 -1.606,-0.44745 -1.0307,0 -1.5022,0.35157 -0.4715,0.35157 -0.47941,0.8949 -0.03196,0.58329 0.50338,0.95084 0.54334,0.36755 1.7019,0.61525 l 1.3424,0.28765 q 2.7087,0.58329 3.9072,1.8697 1.1985,1.2784 1.2065,3.1482 -0.008,2.421 -1.7738,3.7234 -1.7658,1.2944 -4.874,1.2944 -2.1334,0 -3.7234,-0.63123 -1.5821,-0.63122 -2.461,-1.9416 -0.87094,-1.3184 -0.87893,-3.3719 h 4.2188 q 0.05593,1.1266 0.77505,1.7179 0.72711,0.58329 2.0055,0.58329 1.0707,0 1.614,-0.38354 0.55133,-0.38353 0.55932,-0.99078 -0.008,-0.55932 -0.55133,-0.92687 -0.54334,-0.37554 -1.9097,-0.67118 l -1.63,-0.35157 q -2.1733,-0.47143 -3.4278,-1.5741 -1.2465,-1.1106 -1.2385,-3.0283 -0.008,-1.5581 0.83098,-2.7247 0.84696,-1.1746 2.3411,-1.8298 1.5022,-0.6552 3.4438,-0.6552 1.9816,0 3.4278,0.66319 1.4462,0.66319 2.2293,1.8697 0.79103,1.1985 0.79902,2.8046 z"
         id="path4696" />
      <path
         d="m 96.826,196.02 v 6.9036 h -4.4106 v -16.364 h 4.2508 v 6.4242 h 0.12784 q 0.41549,-1.1746 1.3823,-1.8298 0.96682,-0.66319 2.3252,-0.66319 1.3024,0 2.2612,0.59128 0.96682,0.59128 1.4942,1.63 0.53535,1.0387 0.52736,2.3811 v 7.8304 h -4.4106 v -6.9036 q 0.008,-0.91088 -0.45545,-1.4302 -0.45544,-0.51936 -1.3024,-0.51936 -0.80701,0 -1.2944,0.51936 -0.4874,0.51937 -0.49539,1.4302 z"
         id="path4698" />
      <path
         d="m 112.31,203.15 q -2.9484,0 -4.6423,-1.67 -1.6859,-1.6779 -1.6859,-4.6583 0,-1.9017 0.76706,-3.3239 0.76707,-1.4223 2.1654,-2.2133 1.3983,-0.79104 3.3,-0.79104 1.8537,0 3.2201,0.75907 1.3743,0.75908 2.1254,2.1734 0.75907,1.4063 0.75907,3.3639 v 1.0228 h -7.9902 v 0.19176 q 0,0.88692 0.54333,1.4702 0.55133,0.57529 1.5341,0.57529 0.67917,0 1.1826,-0.27966 0.51138,-0.28764 0.70314,-0.80701 h 4.0271 q -0.31162,1.9177 -1.8857,3.0523 -1.5661,1.1346 -4.123,1.1346 z m -1.9816,-7.7665 h 3.9312 q -0.016,-0.79104 -0.57529,-1.2864 -0.55133,-0.50339 -1.3743,-0.50339 -0.80702,0 -1.3903,0.4954 -0.5753,0.49539 -0.59128,1.2944 z"
         id="path4700" />
      <path
         d="m 123.99,186.56 v 16.364 h -4.4106 V 186.56 Z"
         id="path4702" />
      <path
         d="m 133.02,190.65 v 3.1961 h -2.1094 v 5.1297 q 0,0.76706 0.83098,0.76706 0.19976,0 0.46343,-0.0479 0.27167,-0.0479 0.39952,-0.0799 l 0.63921,3.1002 q -0.29563,0.0879 -0.84696,0.21574 -0.54334,0.12784 -1.2944,0.16779 -2.2852,0.12785 -3.4598,-0.82299 -1.1666,-0.95883 -1.1426,-2.8845 v -5.5452 h -1.5661 V 190.65 h 1.5661 v -2.9404 h 4.4106 v 2.9404 z"
         id="path4704" />
      <path
         d="m 140.03,203.15 q -2.9484,0 -4.6423,-1.67 -1.6859,-1.6779 -1.6859,-4.6583 0,-1.9017 0.76707,-3.3239 0.76706,-1.4223 2.1654,-2.2133 1.3983,-0.79104 3.3,-0.79104 1.8537,0 3.2201,0.75907 1.3743,0.75908 2.1254,2.1734 0.75907,1.4063 0.75907,3.3639 v 1.0228 h -7.9902 v 0.19176 q 0,0.88692 0.54334,1.4702 0.55132,0.57529 1.5341,0.57529 0.67917,0 1.1826,-0.27966 0.51137,-0.28764 0.70314,-0.80701 h 4.0271 q -0.31161,1.9177 -1.8857,3.0523 -1.5661,1.1346 -4.123,1.1346 z m -1.9816,-7.7665 h 3.9312 q -0.016,-0.79104 -0.5753,-1.2864 -0.55133,-0.50339 -1.3743,-0.50339 -0.80702,0 -1.3903,0.4954 -0.5753,0.49539 -0.59128,1.2944 z"
         id="path4706" />
      <path
         d="m 147.3,202.92 v -12.273 h 4.2828 v 2.3332 h 0.12785 q 0.33559,-1.2944 1.0627,-1.8937 0.7351,-0.59927 1.7179,-0.59927 0.55132,0 1.1186,0.1678 v 3.7634 q -0.3276,-0.11187 -0.80701,-0.1678 -0.47942,-0.0559 -0.823,-0.0559 -0.97481,0 -1.622,0.63922 -0.6472,0.63922 -0.6472,1.6939 v 6.3922 z"
         id="path4708" />
    </g>
  </g>
  <g
     id="g8560">
    <rect
       x="1.2207031e-06"
       y="6.5612795e-07"
       width="142.95"
       height="142.95"
       fill="#e76f51"
       stop-color="#000000"
       id="rect4819" />
    <g
       id="g7450"
       transform="matrix(1.1123356,0,0,1.1123356,-8.1630983,-8.102993)">
      <path
         id="path1464"
         style="font-family:none;font-variation-settings:normal;mix-blend-mode:normal;vector-effect:none;fill:#ffffff;fill-opacity:1;stroke:none;stroke-width:0.140786;stroke-linecap:butt;stroke-linejoin:miter;stroke-miterlimit:4;stroke-dasharray:none;stroke-dashoffset:0;stroke-opacity:1;stop-color:#000000"
         d="m 17.687481,85.649901 c -0.01879,6.918726 3.725565,12.968883 9.346094,16.215549 L 34.507753,69.483032 C 24.276632,67.95578 17.866041,77.841424 17.687481,85.649901 Z"
         inkscape:transform-center-x="0.93310558"
         inkscape:transform-center-y="-0.1279455"
         sodipodi:nodetypes="cccc" />
      <path
         id="path1470"
         style="font-family:none;mix-blend-mode:normal;fill:#ffffff;fill-opacity:1;stroke:none;stroke-width:0.098563;stroke-dasharray:none;stroke-dashoffset:0"
         d="m 64.082927,64.6999 c -14.042456,-5.6e-5 -25.426571,13.310374 -25.426571,29.728789 9.4e-5,8.209291 2.846351,15.640831 7.447587,21.020561 1.566018,1.83119 3.33587,3.42442 5.265933,4.72985 V 94.428689 L 64.082927,124.157 V 94.428689 Z" />
      <path
         id="path1472"
         style="font-family:none;font-variation-settings:normal;mix-blend-mode:normal;vector-effect:none;fill:#ffffff;fill-opacity:1;stroke:none;stroke-width:0.143595;stroke-linecap:butt;stroke-linejoin:miter;stroke-miterlimit:4;stroke-dasharray:none;stroke-dashoffset:0;stroke-opacity:1;stop-color:#000000"
         d="m 100.86964,98.28721 c 6.09111,6.09111 17.94995,17.68204 17.94995,17.68204 -9.68345,2.66321 -20.485354,0.23596 -28.155783,-7.3201 -4.042242,-3.98114 -6.672115,-8.853002 -7.889255,-13.994252 l -0.0094,5.653782 -0.03745,19.88115 c -6.853481,-3.98049 -11.456865,-11.40537 -11.442262,-19.90084 0.0094,-8.495448 4.643451,-15.904626 11.044217,-14.893275 6.400685,1.011239 13.215026,7.56957 18.536943,12.891495 z"
         sodipodi:nodetypes="scccccccs" />
      <path
         id="path1474"
         style="font-family:none;mix-blend-mode:normal;fill:#ffffff;fill-opacity:1;stroke:none;stroke-width:0.140786;stroke-dasharray:none;stroke-dashoffset:0"
         d="m 79.805457,28.091182 c -10.200398,0 -20.400823,3.891177 -28.183443,11.673797 l 28.183443,28.183417 28.183393,28.183442 c 15.56524,-15.565214 15.56524,-40.801591 0,-56.366859 -7.78257,-7.78262 -17.983075,-11.673797 -28.183393,-11.673797 z" />
      <path
         id="path1476"
         style="font-family:none;mix-blend-mode:normal;fill:#ffffff;fill-opacity:1;stroke:none;stroke-width:0.140786;stroke-dasharray:none;stroke-dashoffset:0"
         d="m 102.43153,22.359573 c -5.876716,0 -11.753456,2.24179 -16.237196,6.725556 l 16.237196,16.237168 16.23717,16.237168 c 8.9675,-8.967453 8.9675,-23.50683 0,-32.474336 -4.48374,-4.483713 -10.36054,-6.725583 -16.23717,-6.725556 z" />
      <path
         id="path1478"
         style="font-family:none;mix-blend-mode:normal;fill:#ffffff;fill-opacity:1;stroke:none;stroke-width:0.140786;stroke-dasharray:none;stroke-dashoffset:0"
         d="m 116.26131,20.107073 c -2.91377,0 -5.82759,1.111485 -8.05072,3.334693 l 8.05072,8.050723 8.05075,8.050724 c 4.44628,-4.446258 4.44628,-11.655163 -3e-5,-16.101447 -2.22297,-2.223235 -5.13692,-3.334693 -8.05072,-3.334693 z" />
      <path
         id="path1480"
         style="font-family:none;mix-blend-mode:normal;fill:#f5ab8d;fill-opacity:1;stroke:none;stroke-width:0.140786;stroke-dasharray:none;stroke-dashoffset:0"
         d="m 104.87587,31.492489 c 0,-2.913797 1.11148,-5.827568 3.33472,-8.050723 l 8.05072,8.050723 8.05075,8.050724 c -4.44628,4.44631 -11.65522,4.44631 -16.10147,-2.7e-5 -2.22324,-2.222969 -3.33472,-5.136952 -3.33472,-8.050697 z" />
      <path
         id="path1482"
         style="font-family:none;mix-blend-mode:normal;fill:#f5ab8d;fill-opacity:1;stroke:none;stroke-width:0.140786;stroke-dasharray:none;stroke-dashoffset:0"
         d="m 79.468724,45.322324 c 0,-5.876714 2.241791,-11.753428 6.725583,-16.237195 l 16.237173,16.237195 16.23722,16.237141 c -8.96754,8.967559 -23.50686,8.967559 -32.474393,0 -4.483739,-4.483686 -6.725583,-10.36048 -6.725583,-16.237141 z" />
      <g
         id="g1568"
         transform="matrix(22.896185,0,0,22.896185,-1297.8742,-1623.5161)"
         style="stroke-width:0.408947">
        <path
           d="m 57.543108,73.409015 c 0,-0.179209 0.14528,-0.32449 0.324493,-0.32449 0.179209,0 0.324488,0.145281 0.324488,0.32449 0,0.179213 -0.145279,0.32449 -0.324488,0.32449 -0.179213,0 -0.324493,-0.145277 -0.324493,-0.32449 z"
           id="path1268-5"
           fill="#5c8b93"
           fill-rule="nonzero"
           stroke-width="0.169268"
           stroke-linecap="butt"
           stroke-linejoin="miter"
           stroke-miterlimit="4"
           style="font-family:none;mix-blend-mode:normal;fill:#ffffff;stroke:none;stroke-dasharray:none;stroke-dashoffset:0" />
        <path
           id="path1236-3"
           clip-path="none"
           style="fill:#1a1a1a;fill-opacity:1;stroke:none;stroke-width:0.0310379;stroke-linecap:round;stroke-linejoin:round;stop-color:#000000"
           d="m 218.73828,276.22656 a 0.99033943,0.99033943 0 0 0 -0.38672,0.78321 0.99033943,0.99033943 0 0 0 0.99024,0.99023 0.99033943,0.99033943 0 0 0 0.52539,-0.15234 c 0.0428,-0.12474 0.0723,-0.25725 0.0723,-0.39649 0,-0.66862 -0.53588,-1.21073 -1.20117,-1.22461 z"
           transform="scale(0.26458333)" />
      </g>
      <g
         id="g1602"
         transform="matrix(22.896185,0,0,22.896185,-1275.5777,-1623.5161)"
         style="stroke-width:0.408947">
        <path
           d="m 57.543108,73.409015 c 0,-0.179209 0.14528,-0.32449 0.324493,-0.32449 0.179209,0 0.324488,0.145281 0.324488,0.32449 0,0.179213 -0.145279,0.32449 -0.324488,0.32449 -0.179213,0 -0.324493,-0.145277 -0.324493,-0.32449 z"
           id="path1598"
           fill="#5c8b93"
           fill-rule="nonzero"
           stroke-width="0.169268"
           stroke-linecap="butt"
           stroke-linejoin="miter"
           stroke-miterlimit="4"
           style="font-family:none;mix-blend-mode:normal;fill:#ffffff;stroke:none;stroke-dasharray:none;stroke-dashoffset:0" />
        <path
           id="path1600"
           clip-path="none"
           style="fill:#1a1a1a;fill-opacity:1;stroke:none;stroke-width:0.0310379;stroke-linecap:round;stroke-linejoin:round;stop-color:#000000"
           d="m 218.73828,276.22656 a 0.99033943,0.99033943 0 0 0 -0.38672,0.78321 0.99033943,0.99033943 0 0 0 0.99024,0.99023 0.99033943,0.99033943 0 0 0 0.52539,-0.15234 c 0.0428,-0.12474 0.0723,-0.25725 0.0723,-0.39649 0,-0.66862 -0.53588,-1.21073 -1.20117,-1.22461 z"
           transform="scale(0.26458333)" />
      </g>
    </g>
  </g>
</svg>
