<svg width="536.68mm" height="142.95mm" version="1.1" viewBox="0 0 536.68 142.95" xmlns="http://www.w3.org/2000/svg">
 <defs>
  <clipPath id="clipPath1240">
   <path d="m1749.7 3623.5c0-10.119 8.2031-18.322 18.322-18.322 10.119 0 18.322 8.2031 18.322 18.322 0 10.119-8.2031 18.322-18.322 18.322-10.119 0-18.322-8.2029-18.322-18.322z" fill="#fff" stroke-width="23.371" style="mix-blend-mode:normal"/>
  </clipPath>
 </defs>
 <g transform="translate(109.97 -177.23)">
  <rect x="-109.97" y="177.23" width="142.95" height="142.95" fill="#e76f51" stop-color="#000000"/>
  <g fill="#fff">
   <g>
    <path d="m-28.324 197.71c-11.773 0-23.546 4.4911-32.529 13.474l65.057 65.057c17.965-17.965 17.965-47.092 0-65.057-8.9825-8.9825-20.756-13.474-32.529-13.474z" style="mix-blend-mode:normal"/>
    <path d="m-42.924 236.98c-17.787-5e-5 -32.206 14.42-32.206 32.206 5.3e-5 8.8934 3.6053 16.944 9.4335 22.772 1.9838 1.9839 4.2254 3.7098 6.6701 5.124v-27.896l16.103 32.206v-32.206z" style="mix-blend-mode:normal"/>
    <path d="m-88.177 281.88 6.8891-16.234 6.8892-16.234c-6.9769 0.86337-13.316 5.3202-16.26 12.257-2.9438 6.9369-1.7449 14.593 2.4816 20.211z" stop-color="#000000" style="font-variation-settings:normal;mix-blend-mode:normal"/>
    <path d="m-26.915 294.77-0.1737-21.654-0.17362-21.653c-7.4372 4.3823-12.4 12.501-12.326 21.754 0.07424 9.2528 5.1664 17.291 12.673 21.553z" stop-color="#000000" style="font-variation-settings:normal;mix-blend-mode:normal"/>
    <path d="m12.345 289.79-19.738-19.065-19.738-19.065c-2.6389 10.617 0.2984 22.312 8.7326 30.459 8.4342 8.1467 20.224 10.677 30.742 7.6736z" stop-color="#000000" style="font-variation-settings:normal;mix-blend-mode:normal"/>
   </g>
   <path d="m-90.737 228.59c0-4.6549 3.7736-8.4285 8.4286-8.4285 4.6549 0 8.4285 3.7736 8.4285 8.4285 0 4.655-3.7736 8.4285-8.4285 8.4285-4.655 0-8.4286-3.7735-8.4286-8.4285z" stroke-width="10.751" style="mix-blend-mode:normal"/>
  </g>
  <circle transform="matrix(.46002 0 0 .46002 -895.66 -1438.3)" cx="1777.5" cy="3616.9" r="14.795" clip-path="url(#clipPath1240)" fill="#1a1a1a" stop-color="#000000"/>
  <path d="m-72.539 228.59c0-4.6549 3.7736-8.4285 8.4286-8.4285 4.6549 0 8.4285 3.7736 8.4285 8.4285 0 4.655-3.7736 8.4285-8.4285 8.4285-4.655 0-8.4286-3.7735-8.4286-8.4285z" fill="#fff" stroke-width="10.751" style="mix-blend-mode:normal"/>
  <g>
   <circle transform="matrix(.46002 0 0 .46002 -877.46 -1438.3)" cx="1777.5" cy="3616.9" r="14.795" clip-path="url(#clipPath1240)" fill="#1a1a1a" stop-color="#000000"/>
   <rect x="43.499" y="177.23" width="383.21" height="142.95" fill="#333" stop-color="#000000"/>
   <g fill="#fff" stroke-width=".56251" aria-label="JShelter">
    <path d="m91.165 216.05v42.419c-0.06043 4.7736-2.0545 7.2511-5.8009 7.2511-3.686 0-5.7405-2.4472-5.9217-7.1303h-16.798c-0.06043 14.261 9.7286 20.182 21.632 20.182 13.717 0 23.385-8.2179 23.445-20.303v-42.419z"/>
    <path d="m147.05 235.38h16.073c-0.0604-12.146-9.4264-20.182-24.412-20.182-14.714 0-25.107 7.9158-25.016 19.699-0.0302 9.6682 6.6771 15.046 17.644 17.403l6.1634 1.3294c6.8886 1.5106 9.2452 3.2328 9.3056 6.0426-0.0604 3.0515-2.84 5.1966-8.2179 5.1966-6.4354 0-10.242-3.0213-10.514-8.7013h-15.952c0.0604 15.529 10.575 22.478 26.708 22.478 15.681 0 25.077-6.7677 25.137-18.974-0.0604-9.4264-5.68-16.043-19.336-18.974l-5.0758-1.0877c-5.8613-1.2387-8.4898-2.9609-8.3388-5.9217 0.0302-2.7192 2.2962-4.7132 7.4928-4.7132 5.4383 0 8.0064 2.3868 8.3388 6.4052z"/>
    <path d="m185.3 251.82c0.0302-4.5924 2.689-7.372 6.7677-7.372 4.26 0 6.6771 2.7796 6.6468 7.372v26.104h16.678v-29.609c0.0302-10.152-6.3749-17.403-16.194-17.403-6.8583 0-11.934 3.5047-14.019 9.4264h-0.4834v-24.291h-16.073v61.876h16.678z"/>
    <path d="m243.84 278.77c12.871 0 21.149-6.1634 22.72-15.832h-15.227c-0.96682 2.6285-3.7162 4.109-7.1303 4.109-4.9549 0-7.8554-3.263-7.8554-7.7345v-0.72511h30.213v-3.8673c0-14.774-9.0639-23.808-23.083-23.808-14.381 0-23.566 9.5473-23.566 23.929 0 15.016 9.0639 23.929 23.929 23.929zm-7.4928-29.367c0.0906-4.0183 3.4141-6.7677 7.4928-6.7677 4.1392 0 7.2813 2.7796 7.372 6.7677z"/>
    <path d="m288.01 216.05h-16.678v61.876h16.678z"/>
    <path d="m322.14 231.51h-7.9762v-11.118h-16.678v11.118h-5.9217v12.085h5.9217v20.968c-0.12086 9.7286 5.8915 14.653 17.403 14.019 3.7766-0.21149 6.5864-0.99703 8.0971-1.4502l-2.417-11.723c-0.63447 0.15107-2.266 0.48341-3.263 0.48341-2.1753 0-3.1422-0.96682-3.1422-2.9004v-19.397h7.9762z"/>
    <path d="m348.66 278.77c12.871 0 21.149-6.1634 22.72-15.832h-15.227c-0.96681 2.6285-3.7162 4.109-7.1303 4.109-4.9549 0-7.8554-3.263-7.8554-7.7345v-0.72511h30.213v-3.8673c0-14.774-9.0639-23.808-23.083-23.808-14.381 0-23.566 9.5473-23.566 23.929 0 15.016 9.0639 23.929 23.929 23.929zm-7.4928-29.367c0.0906-4.0183 3.4141-6.7677 7.4928-6.7677 4.1392 0 7.2813 2.7796 7.372 6.7677z"/>
    <path d="m376.15 277.92h16.678v-24.17c0-5.3175 3.6558-8.8222 8.5805-8.8222 1.7221 0 4.5017 0.27192 6.1634 0.84597v-14.23c-1.3294-0.39277-2.7796-0.63447-4.2298-0.63447-4.9549 0-8.8222 2.9004-10.514 9.4264h-0.48341v-8.8222h-16.194z"/>
   </g>
  </g>
 </g>
</svg>
