<?xml version="1.0" encoding="UTF-8" standalone="no"?>
<svg
   xmlns:dc="http://purl.org/dc/elements/1.1/"
   xmlns:cc="http://creativecommons.org/ns#"
   xmlns:rdf="http://www.w3.org/1999/02/22-rdf-syntax-ns#"
   xmlns:svg="http://www.w3.org/2000/svg"
   xmlns="http://www.w3.org/2000/svg"
   xmlns:sodipodi="http://sodipodi.sourceforge.net/DTD/sodipodi-0.dtd"
   xmlns:inkscape="http://www.inkscape.org/namespaces/inkscape"
   width="200"
   height="74.921211"
   id="svg3115"
   version="1.1"
   inkscape:version="1.0.2 (e86c870879, 2021-01-15)"
   sodipodi:docname="nlnet-logo.svg">
  <metadata
     id="metadata3170">
    <rdf:RDF>
      <cc:Work
         rdf:about="">
        <dc:format>image/svg+xml</dc:format>
        <dc:type
           rdf:resource="http://purl.org/dc/dcmitype/StillImage" />
        <dc:title></dc:title>
      </cc:Work>
    </rdf:RDF>
  </metadata>
  <sodipodi:namedview
     pagecolor="#ffffff"
     bordercolor="#666666"
     borderopacity="1"
     objecttolerance="10"
     gridtolerance="10"
     guidetolerance="10"
     inkscape:pageopacity="0"
     inkscape:pageshadow="2"
     inkscape:window-width="1678"
     inkscape:window-height="1004"
     id="namedview3168"
     showgrid="false"
     inkscape:zoom="0.81514477"
     inkscape:cx="224.40417"
     inkscape:cy="84.023787"
     inkscape:window-x="0"
     inkscape:window-y="24"
     inkscape:window-maximized="0"
     inkscape:current-layer="svg3115"
     inkscape:document-rotation="0"
     fit-margin-top="0"
     fit-margin-left="0"
     fit-margin-right="0"
     fit-margin-bottom="0" />
  <defs
     id="defs3117" />
  <g
     id="Layer"
     transform="translate(-0.09582943,0.02378655)" />
  <g
     id="g3120"
     style="fill:#ffffff"
     transform="matrix(0.44542818,0,0,0.44542818,-0.04268513,0.0105952)">
    <path
       fill="#98bf00"
       d="m 446.602,73.8789 2.5,-13.6449 h -12.895 l 3.75,-20.089 -15.445,6.046 -2.5,14.043 h -9.395 l -2.5,13.6449 h 9.246 l -3.148,17.293 c -0.149,0.9531 -0.399,2.3515 -0.649,4.1484 -0.25,1.8008 -0.402,3.3985 -0.402,4.7497 0.051,6.246 1.551,11.395 4.5,15.446 2.949,4.144 7.746,6.593 14.445,7.343 l 6.446,-13.293 c -3.45,-0.449 -6.047,-1.8 -7.895,-4.097 -1.851,-2.352 -2.75,-5.301 -2.75,-8.8987 0,-0.6992 0.102,-1.6992 0.25,-3.0469 0.149,-1.3515 0.301,-2.4492 0.449,-3.3007 l 3,-16.3438 z"
       id="path3122"
       style="fill:#ffffff" />
    <path
       fill="#98bf00"
       d="m 310.707,72.332 c 2.398,-0.8515 4.5,-1.3008 6.25,-1.3008 1.898,0 3.496,0.5508 4.797,1.6485 1.25,1.0508 1.848,2.6015 1.848,4.75 0,0.5976 -0.098,1.5 -0.301,2.75 -0.199,1.1484 -0.348,2.1992 -0.496,3.0976 l -3.602,16.8907 c -0.25,1.301 -0.5,2.652 -0.75,4.051 -0.25,1.449 -0.348,2.699 -0.348,3.746 0,4.051 1.098,7.449 3.348,10.148 2.149,2.699 5.996,4.297 11.547,4.746 l 6.348,-12.843 c -2.153,-0.348 -3.7,-1.149 -4.649,-2.399 -1,-1.199 -1.5,-2.898 -1.5,-5.047 0,-0.5 0.051,-1.101 0.149,-1.75 0.05,-0.652 0.152,-1.1989 0.199,-1.6012 l 3.648,-17.1915 c 0.301,-1.4492 0.551,-2.8984 0.75,-4.3476 0.203,-1.3985 0.301,-2.8008 0.301,-4.1485 0,-4.9492 -1.449,-8.9452 -4.348,-11.8942 -2.949,-2.949 -7.046,-4.449 -12.296,-4.449 -3.047,0 -5.946,0.5 -8.793,1.5 -2.801,0.949 -6.2,2.546 -10.149,4.898 -0.148,-0.949 -0.5,-2.102 -1,-3.398 -0.547,-1.25 -1.148,-2.352 -1.797,-3.352 l -13.394,5.75 c 1.148,1.75 2.047,3.598 2.597,5.496 0.5,1.8985 0.75,3.6992 0.75,5.3477 0,0.8515 -0.05,1.8984 -0.199,3.0508 -0.101,1.1484 -0.25,2.0468 -0.402,2.6992 l -7.945,42.3323 h 14.394 l 8.445,-45.6839 c 2.051,-1.5469 4.25,-2.6992 6.598,-3.4961 z"
       id="path3124"
       style="fill:#ffffff" />
    <path
       fill="#98bf00"
       d="m 350.742,80.0781 c -1.551,4.5977 -2.301,9.4961 -2.301,14.6446 0,4.4961 0.602,8.4963 1.75,11.9963 1.149,3.496 2.801,6.445 4.899,8.797 2.051,2.398 4.598,4.195 7.547,5.445 2.949,1.25 6.246,1.898 9.847,1.898 4.348,0 8.645,-0.797 12.946,-2.398 4.347,-1.598 8.144,-4.098 11.394,-7.445 l -5.398,-12.497 c -2.5,2.801 -5.25,4.899 -8.297,6.348 -3.051,1.449 -6.098,2.149 -9.098,2.149 -3.496,0 -6.246,-1.098 -8.246,-3.297 -1.949,-2.25 -2.949,-5.051 -2.949,-8.3479 v -0.9492 c 0,-0.3985 0.051,-0.8008 0.152,-1.1992 2.649,-0.3516 5.645,-0.8008 8.996,-1.3985 3.348,-0.6015 6.746,-1.3008 10.196,-2.1015 3.449,-0.8477 6.797,-1.7969 10.093,-2.7969 3.25,-1 6.149,-2.0508 8.598,-3.1016 v -5.7461 c 0,-3.5469 -0.551,-6.7461 -1.648,-9.5976 -1.149,-2.7465 -2.649,-5.1485 -4.598,-7.1955 -1.949,-2 -4.301,-3.5 -6.949,-4.5 -2.598,-1.047 -5.446,-1.597 -8.496,-1.597 -4.45,0 -8.598,1 -12.344,2.949 -3.801,1.949 -7.047,4.648 -9.695,8.0974 -2.75,3.3984 -4.848,7.3437 -6.399,11.8437 z m 21.641,-10.0976 c 1.551,-0.8477 3.301,-1.2461 5.25,-1.2461 2.648,0 4.847,0.8476 6.594,2.5976 1.75,1.6992 2.652,4.2461 2.652,7.6953 -1.449,0.4493 -3.152,1 -5.149,1.5508 -2.05,0.5 -4.097,1 -6.199,1.4492 -2.148,0.4493 -4.199,0.8985 -6.246,1.3008 -2.051,0.3477 -3.801,0.6485 -5.301,0.8985 0.25,-2.0977 0.704,-4.0977 1.403,-5.9493 0.75,-1.8476 1.699,-3.4961 2.847,-4.8984 1.25,-1.3984 2.598,-2.5469 4.149,-3.3984 z"
       fill-rule="evenodd"
       id="path3126"
       style="fill:#ffffff" />
    <path
       fill="#000000"
       d="m 404.172,140.453 c 0,-1.25 -0.203,-2.398 -0.602,-3.398 -0.398,-1 -0.949,-1.848 -1.597,-2.598 -0.703,-0.699 -1.5,-1.25 -2.45,-1.601 -0.949,-0.348 -2,-0.547 -3.101,-0.547 -1.449,0 -2.797,0.297 -4.047,0.847 -1.25,0.551 -2.348,1.352 -3.297,2.348 -0.953,1 -1.699,2.152 -2.25,3.5 -0.551,1.352 -0.851,2.801 -0.851,4.398 0,1.25 0.199,2.348 0.601,3.399 0.348,1 0.899,1.851 1.598,2.551 0.652,0.749 1.5,1.296 2.449,1.699 0.949,0.348 2,0.547 3.148,0.547 1.403,0 2.75,-0.297 4,-0.848 1.25,-0.551 2.348,-1.352 3.297,-2.348 0.95,-0.953 1.7,-2.152 2.25,-3.5 0.551,-1.351 0.852,-2.847 0.852,-4.449 z m -13.895,-0.051 c 0.297,-0.898 0.7,-1.699 1.2,-2.398 0.546,-0.699 1.199,-1.25 1.949,-1.699 0.75,-0.449 1.547,-0.649 2.496,-0.649 1.449,0 2.5,0.45 3.25,1.348 0.75,0.852 1.148,2.102 1.148,3.648 0,0.95 -0.148,1.903 -0.449,2.852 -0.25,0.898 -0.648,1.699 -1.199,2.398 -0.551,0.7 -1.199,1.25 -1.949,1.699 -0.75,0.399 -1.598,0.598 -2.5,0.598 -1.45,0 -2.496,-0.449 -3.246,-1.297 -0.75,-0.902 -1.153,-2.101 -1.153,-3.648 0,-0.949 0.153,-1.902 0.453,-2.852 z"
       fill-rule="evenodd"
       id="path3128"
       style="fill:#ffffff" />
    <path
       fill="#000000"
       d="m 434.559,132.559 h -3.551 l -1.899,11.043 c -0.05,0.152 -0.097,0.402 -0.097,0.75 0,0.351 0,0.601 0,0.851 h -0.153 l -6.394,-12.644 h -3.352 l -3.347,18.742 h 3.597 l 2,-11.297 c 0.051,-0.148 0.051,-0.398 0.051,-0.648 0,-0.25 0,-0.551 0,-0.852 h 0.149 l 6.546,12.945 3.2,-0.3 z"
       id="path3130"
       style="fill:#ffffff" />
    <path
       fill="#000000"
       d="m 374.383,132.559 h -3.649 l -3.347,18.742 h 3.695 z"
       id="path3132"
       style="fill:#ffffff" />
    <path
       fill="#000000"
       d="m 328.949,132.559 h -4.246 c -0.801,1.347 -1.652,2.898 -2.601,4.547 -0.95,1.648 -1.848,3.347 -2.747,5.046 -0.902,1.7 -1.699,3.348 -2.449,4.95 -0.75,1.597 -1.351,2.999 -1.801,4.199 h 3.848 c 0.152,-0.352 0.301,-0.801 0.5,-1.25 0.199,-0.449 0.402,-0.949 0.652,-1.399 0.2,-0.453 0.399,-0.902 0.598,-1.351 0.199,-0.449 0.399,-0.848 0.551,-1.199 h 6.496 c 0.051,0.449 0.051,0.898 0.102,1.398 l 0.148,1.449 c 0.051,0.449 0.102,0.903 0.152,1.352 0.047,0.449 0.047,0.797 0.047,1.148 l 3.699,-0.3 c 0,-0.7 -0.05,-1.501 -0.148,-2.45 -0.051,-0.949 -0.199,-1.949 -0.352,-2.996 -0.148,-1.051 -0.3,-2.199 -0.5,-3.352 -0.148,-1.148 -0.347,-2.296 -0.597,-3.445 -0.199,-1.152 -0.403,-2.25 -0.653,-3.351 -0.25,-1.047 -0.449,-2.047 -0.699,-2.996 z m -2.347,5.547 c 0.101,0.55 0.199,1.148 0.3,1.796 0.098,0.602 0.2,1.204 0.25,1.75 0.098,0.551 0.149,0.949 0.2,1.301 h -4.649 c 0.25,-0.449 0.5,-0.949 0.75,-1.5 0.301,-0.551 0.598,-1.148 0.899,-1.75 0.351,-0.597 0.648,-1.148 0.949,-1.699 0.301,-0.551 0.551,-1.047 0.801,-1.398 h 0.199 c 0.101,0.398 0.199,0.898 0.301,1.5 z"
       fill-rule="evenodd"
       id="path3134"
       style="fill:#ffffff" />
    <path
       fill="#000000"
       d="m 357.641,135.957 0.547,-3.398 h -12.793 l -0.551,3.398 h 4.547 l -2.649,15.344 h 3.649 l 2.699,-15.344 z"
       id="path3136"
       style="fill:#ffffff" />
    <path
       fill="#000000"
       d="m 297.465,132.309 c -1.051,0 -2.102,0.047 -3.153,0.148 -1.046,0.149 -2.046,0.301 -2.996,0.551 l -3.148,17.844 c 0.949,0.246 2.047,0.398 3.246,0.547 1.152,0.152 2.25,0.199 3.301,0.199 1.547,0 2.949,-0.25 4.297,-0.746 1.351,-0.551 2.55,-1.25 3.55,-2.2 0.997,-0.953 1.797,-2.101 2.399,-3.449 0.547,-1.351 0.848,-2.898 0.848,-4.597 0,-1.352 -0.2,-2.5 -0.598,-3.551 -0.449,-1.051 -1,-1.899 -1.75,-2.598 -0.75,-0.699 -1.649,-1.25 -2.649,-1.601 -1.05,-0.348 -2.148,-0.547 -3.347,-0.547 z m -0.801,3.398 c 0.75,0 1.449,0.098 2.098,0.25 0.652,0.149 1.199,0.449 1.648,0.848 0.5,0.398 0.902,0.898 1.152,1.551 0.25,0.597 0.399,1.347 0.399,2.296 0,1.2 -0.149,2.25 -0.5,3.2 -0.301,0.949 -0.75,1.75 -1.348,2.398 -0.601,0.652 -1.301,1.102 -2.152,1.449 -0.848,0.352 -1.746,0.5 -2.797,0.5 -0.449,0 -0.898,0 -1.449,-0.047 -0.551,-0.05 -1.051,-0.101 -1.399,-0.152 l 2.149,-12.094 c 0.301,-0.05 0.699,-0.101 1.148,-0.152 0.449,-0.047 0.801,-0.047 1.051,-0.047 z"
       fill-rule="evenodd"
       id="path3138"
       style="fill:#ffffff" />
    <path
       fill="#000000"
       d="m 185.809,62.586 c 1.148,1.75 2.046,3.598 2.597,5.496 0.5,1.8985 0.75,3.6992 0.75,5.3477 0,0.8515 -0.051,1.8984 -0.199,3.0508 -0.102,1.1484 -0.25,2.0468 -0.402,2.6992 l -7.946,42.3323 h 14.395 l 8.445,-45.6839 c 2.051,-1.5469 4.25,-2.6992 6.598,-3.4961 2.398,-0.8515 4.5,-1.3008 6.25,-1.3008 1.898,0 3.496,0.5508 4.797,1.6485 1.25,1.0508 1.847,2.6015 1.847,4.75 0,0.5976 -0.097,1.5 -0.296,2.75 -0.204,1.1484 -0.352,2.1992 -0.5,3.0976 l -3.602,16.8907 c -0.25,1.301 -0.5,2.652 -0.75,4.051 -0.246,1.449 -0.348,2.699 -0.348,3.746 0,4.051 1.098,7.449 3.348,10.148 2.148,2.699 6,4.297 11.547,4.746 l 6.348,-12.843 c -2.149,-0.348 -3.7,-1.149 -4.649,-2.399 -1,-1.199 -1.5,-2.898 -1.5,-5.047 0,-0.5 0.051,-1.101 0.149,-1.75 0.05,-0.652 0.152,-1.1989 0.203,-1.6012 l 3.648,-17.1915 c 0.297,-1.4492 0.547,-2.8984 0.746,-4.3476 0.203,-1.3985 0.301,-2.8008 0.301,-4.1485 0,-4.9492 -1.449,-8.9452 -4.348,-11.8942 -2.949,-2.949 -7.047,-4.449 -12.293,-4.449 -3.05,0 -5.949,0.5 -8.797,1.5 -2.8,0.949 -6.199,2.546 -10.148,4.898 -0.148,-0.949 -0.5,-2.102 -1,-3.398 -0.547,-1.25 -1.148,-2.352 -1.797,-3.352 z"
       id="path3140"
       style="fill:#ffffff" />
    <path
       fill="#000000"
       d="m 276.82,31.547 h -14.144 l -10.793,58.4764 c -0.453,1.9493 -0.801,4 -1.051,6.1485 -0.25,2.0976 -0.398,4.0471 -0.398,5.8471 0,5.797 1.097,10.547 3.347,14.243 2.25,3.699 6.047,5.898 11.395,6.597 l 6.496,-13.293 c -1.047,-0.5 -1.949,-1.05 -2.797,-1.648 -0.852,-0.551 -1.551,-1.301 -2.102,-2.149 -0.597,-0.851 -1.046,-1.851 -1.296,-3.05 -0.25,-1.2 -0.403,-2.7 -0.403,-4.4495 0,-0.8476 0.051,-1.7968 0.153,-2.7968 0.148,-1.0508 0.3,-2.1016 0.449,-3.1993 z"
       id="path3142"
       style="fill:#ffffff" />
    <path
       fill="#000000"
       d="m 246.434,132.559 h -3.649 l -2.398,13.691 c -0.5,0.551 -1.102,1 -1.852,1.402 -0.75,0.348 -1.547,0.547 -2.449,0.547 -0.898,0 -1.598,-0.199 -2.098,-0.598 -0.55,-0.449 -0.8,-1.148 -0.8,-2.199 0,-0.199 0.05,-0.5 0.101,-0.898 0.051,-0.352 0.051,-0.703 0.098,-1 l 2,-10.945 h -3.699 l -1.95,10.894 c -0.047,0.449 -0.097,0.899 -0.148,1.348 -0.051,0.449 -0.051,0.801 -0.051,1.152 0,1 0.152,1.848 0.449,2.598 0.301,0.75 0.703,1.301 1.203,1.75 0.547,0.449 1.149,0.797 1.797,1 0.7,0.199 1.399,0.297 2.149,0.297 1.851,0 3.5,-0.547 5,-1.7 0,0.25 0,0.551 0.051,0.852 0,0.25 0,0.5 0.046,0.75 l 3.649,-0.25 c -0.047,-0.25 -0.047,-0.5 -0.047,-0.801 -0.051,-0.25 -0.051,-0.551 -0.051,-0.898 0,-0.602 0.051,-1.25 0.098,-1.899 0.051,-0.699 0.101,-1.351 0.25,-1.949 z"
       id="path3144"
       style="fill:#ffffff" />
    <path
       fill="#000000"
       d="m 276.621,132.559 h -3.547 l -1.902,11.043 c -0.047,0.152 -0.098,0.402 -0.098,0.75 0,0.351 0,0.601 0,0.851 h -0.152 l -6.395,-12.644 h -3.351 l -3.348,18.742 h 3.598 l 2,-11.297 c 0.051,-0.148 0.051,-0.398 0.051,-0.648 0,-0.25 0,-0.551 0,-0.852 h 0.148 l 6.551,12.945 3.195,-0.3 z"
       id="path3146"
       style="fill:#ffffff" />
    <path
       fill="#000000"
       d="m 214.797,134.457 c -0.699,-0.699 -1.5,-1.25 -2.449,-1.601 -0.95,-0.348 -2,-0.547 -3.098,-0.547 -1.449,0 -2.801,0.297 -4.051,0.847 -1.25,0.551 -2.347,1.352 -3.297,2.348 -0.949,1 -1.699,2.152 -2.25,3.5 -0.55,1.352 -0.851,2.801 -0.851,4.398 0,1.25 0.203,2.348 0.601,3.399 0.352,1 0.899,1.851 1.598,2.551 0.652,0.749 1.5,1.296 2.449,1.699 0.949,0.348 2,0.547 3.149,0.547 1.402,0 2.75,-0.297 4,-0.848 1.25,-0.551 2.347,-1.352 3.297,-2.348 0.953,-0.953 1.703,-2.152 2.25,-3.5 0.55,-1.351 0.851,-2.847 0.851,-4.449 0,-1.25 -0.199,-2.398 -0.601,-3.398 -0.399,-1 -0.95,-1.848 -1.598,-2.598 z m -10.496,3.547 c 0.551,-0.699 1.199,-1.25 1.949,-1.699 0.75,-0.449 1.551,-0.649 2.5,-0.649 1.449,0 2.496,0.45 3.246,1.348 0.75,0.852 1.152,2.102 1.152,3.648 0,0.95 -0.152,1.903 -0.453,2.852 -0.25,0.898 -0.648,1.699 -1.199,2.398 -0.547,0.7 -1.199,1.25 -1.949,1.699 -0.75,0.399 -1.598,0.598 -2.496,0.598 -1.449,0 -2.5,-0.449 -3.25,-1.297 -0.75,-0.902 -1.149,-2.101 -1.149,-3.648 0,-0.949 0.149,-1.902 0.45,-2.852 0.3,-0.898 0.699,-1.699 1.199,-2.398 z"
       fill-rule="evenodd"
       id="path3148"
       style="fill:#ffffff" />
    <path
       fill="#000000"
       d="m 188.258,132.559 h -10.297 l -3.348,18.742 h 3.699 l 1.247,-7.149 h 6.75 l 0.597,-3.398 h -6.746 l 0.848,-4.797 h 6.648 z"
       id="path3150"
       style="fill:#ffffff" />
    <path
       fill="#98bf00"
       d="M 127.082,44.891 C 128.43,33.945 125.684,24.102 118.883,15.402 112.086,6.707 103.191,1.66 92.2461,0.309 81.3008,-1.039 71.4531,1.711 62.7578,8.508 c -8.0469,6.246 -12.9453,14.293 -14.6953,24.14 -0.1484,0.848 -0.3008,1.649 -0.3984,2.497 -0.1016,0.851 -0.1524,1.652 -0.1993,2.449 -0.3515,4.597 0.0977,8.996 1.2969,13.195 1.3516,4.899 3.6992,9.496 7.0977,13.844 3.3984,4.3475 7.2969,7.7498 11.7461,10.2967 3.7461,2.1484 7.8945,3.5976 12.4453,4.3984 0.8008,0.1485 1.5976,0.25 2.4492,0.3985 0.4492,0.0507 0.8984,0.1015 1.3477,0.1523 1.1015,-4.4492 2.8007,-8.5977 5.1484,-12.3479 -1.5508,0.051 -3.1484,0 -4.7461,-0.148 -0.1016,-0.051 -0.1523,-0.051 -0.2031,-0.051 -1.8477,-0.25 -3.6485,-0.598 -5.2969,-1.148 -5.1484,-1.649 -9.4961,-4.7 -13.043,-9.246 -3.5508,-4.547 -5.4492,-9.497 -5.8008,-14.895 -0.0976,-1.75 -0.0468,-3.5 0.2032,-5.348 0,-0.05 0,-0.148 0,-0.199 0.9492,-7.449 4.3984,-13.496 10.3437,-18.144 6,-4.649 12.7461,-6.547 20.293,-5.598 7.5469,0.902 13.6449,4.348 18.2929,10.348 4.649,5.996 6.547,12.742 5.649,20.293 -0.25,1.699 -0.551,3.296 -1,4.847 4.199,-1.351 8.593,-2.051 13.195,-2 0.047,-0.449 0.148,-0.898 0.199,-1.351 z"
       id="path3152"
       style="fill:#ffffff" />
    <path
       fill="#98bf00"
       d="m 132.328,51.488 c -0.848,-0.097 -1.648,-0.199 -2.5,-0.25 -4.598,-0.297 -8.996,0.153 -13.191,1.301 -4.899,1.348 -9.496,3.75 -13.848,7.149 -4.3476,3.347 -7.746,7.246 -10.2421,11.6948 -2.1524,3.7461 -3.6016,7.8945 -4.4492,12.4453 4.3476,0.7461 8.3476,1.9961 12.0433,3.8477 0.25,-1.8008 0.601,-3.5 1.101,-5.0977 1.649,-5.1484 4.699,-9.4961 9.246,-13.0469 4.547,-3.5472 9.496,-5.4962 14.946,-5.8472 1.746,-0.098 3.496,-0.051 5.347,0.199 0.047,0 0.098,0 0.149,0 7.445,0.953 13.496,4.449 18.144,10.3982 4.696,5.9454 6.594,12.6954 5.645,20.2422 -0.949,7.5466 -4.399,13.6446 -10.344,18.3396 -5.949,4.649 -12.695,6.5 -20.145,5.598 0.852,4.051 1.102,8.297 0.801,12.695 9.946,0.653 18.942,-2.199 26.989,-8.445 8.699,-6.797 13.746,-15.695 15.093,-26.6407 1.352,-10.9453 -1.398,-20.7891 -8.195,-29.4883 -6.297,-8.047 -14.344,-12.945 -24.141,-14.691 -0.847,-0.153 -1.648,-0.301 -2.449,-0.403 z"
       id="path3154"
       style="fill:#ffffff" />
    <path
       fill="#000000"
       d="m 128.93,78.7266 c -3.45,-0.3985 -6.496,0.4531 -9.246,2.6015 -2.75,2.1485 -4.297,4.8985 -4.7,8.2969 -0.449,3.4492 0.403,6.4961 2.551,9.2461 2.149,2.7499 4.899,4.2969 8.348,4.6989 3.398,0.449 6.445,-0.402 9.195,-2.551 2.75,-2.1479 4.297,-4.8979 4.746,-8.3471 0.403,-3.3985 -0.449,-6.4453 -2.597,-9.1953 -2.149,-2.75 -4.899,-4.2969 -8.297,-4.75 z"
       id="path3156"
       style="fill:#ffffff" />
    <path
       fill="#98bf00"
       d="M 12.8281,73.6289 C 13.7773,66.082 17.2266,59.938 23.2227,55.289 29.1719,50.641 35.8672,48.742 43.3164,49.691 42.4648,45.641 42.1641,41.395 42.5156,36.996 32.5703,36.344 23.5742,39.145 15.5273,45.441 6.77734,52.238 1.78125,61.137 0.433594,72.082 -0.917969,83.0273 1.78125,92.8242 8.62891,101.57 c 6.24609,8.047 14.29299,12.946 24.14059,14.692 0.8008,0.152 1.5977,0.25 2.4493,0.402 0.8476,0.098 1.6484,0.199 2.5,0.25 4.5976,0.301 8.996,-0.152 13.1914,-1.301 4.8476,-1.398 9.496,-3.797 13.8476,-7.148 4.2969,-3.399 7.6953,-7.297 10.2461,-11.6955 2.1484,-3.7461 3.5977,-7.8945 4.4453,-12.4414 -4.3476,-0.75 -8.3437,-2.0508 -12.043,-3.8515 -0.2499,1.75 -0.6015,3.4492 -1.1015,5.0976 -1.6485,5.1485 -4.6992,9.4961 -9.2461,13.0469 -4.5469,3.5469 -9.4961,5.4959 -14.8945,5.8479 -1.75,0.097 -3.5469,0.05 -5.3985,-0.2 -0.0468,0 -0.0976,0 -0.1484,-0.05 C 29.1719,103.269 23.1211,99.8203 18.4727,93.8711 13.7773,87.875 11.8789,81.1289 12.8281,73.6289 Z"
       id="path3158"
       style="fill:#ffffff" />
    <path
       fill="#000000"
       d="m 32.4688,67.133 c -2.75,2.0975 -4.2969,4.8982 -4.7461,8.3475 -0.4024,3.3476 0.4492,6.3984 2.5976,9.1445 2.0977,2.75 4.8477,4.3477 8.2969,4.8008 3.4492,0.3476 6.4961,-0.5 9.2461,-2.6016 2.6992,-2.1484 4.2461,-4.9453 4.6992,-8.2969 0.4492,-3.4492 -0.4023,-6.5468 -2.5508,-9.2461 -2.1484,-2.7462 -4.8984,-4.2972 -8.3476,-4.6952 -3.4493,-0.453 -6.4961,0.398 -9.1953,2.547 z"
       id="path3160"
       style="fill:#ffffff" />
    <path
       fill="#000000"
       d="m 97.293,32.348 c -2.1485,-2.75 -4.9492,-4.301 -8.3477,-4.7 -3.4492,-0.449 -6.4961,0.399 -9.1953,2.551 -2.75,2.098 -4.3477,4.899 -4.7461,8.344 -0.4531,3.398 0.4492,6.449 2.5977,9.199 2.0976,2.699 4.8476,4.297 8.2968,4.746 3.3985,0.352 6.4454,-0.5 9.1954,-2.597 2.75,-2.149 4.2968,-4.95 4.75,-8.297 0.3982,-3.449 -0.4532,-6.547 -2.5508,-9.246 z"
       id="path3162"
       style="fill:#ffffff" />
    <path
       fill="#98bf00"
       d="m 85.0469,88.4258 c -0.4492,-0.0508 -0.8985,-0.1016 -1.3477,-0.1524 -1.1015,4.4493 -2.8008,8.5977 -5.1484,12.3476 1.5508,-0.102 3.1484,-0.051 4.7969,0.148 0.0507,0 0.1015,0 0.1523,0.051 1.8477,0.199 3.5977,0.551 5.2969,1.098 5.1484,1.652 9.4961,4.75 13.0431,9.297 3.551,4.5 5.449,9.445 5.801,14.894 0.097,1.75 0.047,3.5 -0.203,5.348 0,0.051 0,0.102 0,0.199 -0.95,7.45 -4.399,13.496 -10.3442,18.145 -6,4.648 -12.7461,6.547 -20.293,5.597 -7.5469,-0.949 -13.6445,-4.398 -18.293,-10.347 -4.6992,-5.996 -6.5976,-12.742 -5.6484,-20.289 0.2031,-1.7 0.5508,-3.301 1.0508,-4.852 -4.2461,1.352 -8.6446,2 -13.2461,2 -0.0469,0.449 -0.1485,0.902 -0.1993,1.352 -1.3476,10.945 1.3516,20.742 8.1993,29.488 6.7968,8.695 15.6914,13.742 26.6367,15.094 10.9453,1.347 20.7422,-1.399 29.4882,-8.199 8.047,-6.297 12.945,-14.344 14.695,-24.188 0.149,-0.801 0.25,-1.601 0.399,-2.449 0.051,-0.852 0.152,-1.649 0.199,-2.449 0.301,-4.649 -0.148,-9.047 -1.297,-13.196 -1.351,-4.898 -3.75,-9.496 -7.097,-13.844 -3.399,-4.3471 -7.297,-7.7963 -11.6958,-10.2963 -3.7969,-2.1485 -7.9453,-3.5977 -12.4961,-4.3985 -0.7969,-0.1484 -1.5977,-0.3008 -2.4492,-0.3984 z"
       id="path3164"
       style="fill:#ffffff" />
    <path
       fill="#000000"
       d="m 89.9961,120.41 c -2.1484,-2.746 -4.8984,-4.297 -8.3477,-4.746 -3.4492,-0.398 -6.4961,0.449 -9.1953,2.598 -2.75,2.148 -4.2969,4.898 -4.75,8.297 -0.4492,3.449 0.4531,6.5 2.6016,9.246 2.0977,2.75 4.8476,4.301 8.2969,4.699 3.4492,0.449 6.4961,-0.398 9.2461,-2.551 2.6992,-2.148 4.2461,-4.894 4.6992,-8.344 0.3984,-3.398 -0.4531,-6.449 -2.5508,-9.199 z"
       id="path3166"
       style="fill:#ffffff" />
  </g>
</svg>
