<?xml version="1.0" encoding="UTF-8" standalone="no"?>
<svg
   xmlns:dc="http://purl.org/dc/elements/1.1/"
   xmlns:cc="http://creativecommons.org/ns#"
   xmlns:rdf="http://www.w3.org/1999/02/22-rdf-syntax-ns#"
   xmlns:svg="http://www.w3.org/2000/svg"
   xmlns="http://www.w3.org/2000/svg"
   xmlns:sodipodi="http://sodipodi.sourceforge.net/DTD/sodipodi-0.dtd"
   xmlns:inkscape="http://www.inkscape.org/namespaces/inkscape"
   width="185.90617"
   height="69.64106"
   version="1.1"
   xml:space="preserve"
   style="clip-rule:evenodd;fill-rule:evenodd;stroke-linejoin:round;stroke-miterlimit:1.41421"
   id="svg96"
   sodipodi:docname="nlnet-logo.svg"
   inkscape:version="1.0.2 (e86c870879, 2021-01-15)"><metadata
   id="metadata102"><rdf:RDF><cc:Work
       rdf:about=""><dc:format>image/svg+xml</dc:format><dc:type
         rdf:resource="http://purl.org/dc/dcmitype/StillImage" /><dc:title></dc:title></cc:Work></rdf:RDF></metadata><defs
   id="defs100">
        
        
        
        
        
        
        
        
        
        
        
        
        
        
        
        
        
        
        
        
        
        
        
    
            
        
            
        
            
        
            
        
            
        
            
        
            
        </defs><sodipodi:namedview
   pagecolor="#ffffff"
   bordercolor="#666666"
   borderopacity="1"
   objecttolerance="10"
   gridtolerance="10"
   guidetolerance="10"
   inkscape:pageopacity="0"
   inkscape:pageshadow="2"
   inkscape:window-width="1678"
   inkscape:window-height="1007"
   id="namedview98"
   showgrid="false"
   fit-margin-top="0"
   fit-margin-left="0"
   fit-margin-right="0"
   fit-margin-bottom="0"
   inkscape:zoom="2.3446172"
   inkscape:cx="79.22462"
   inkscape:cy="68.695837"
   inkscape:window-x="0"
   inkscape:window-y="21"
   inkscape:window-maximized="0"
   inkscape:current-layer="svg96" />
    <g
   id="g1033"><path
     id="path2"
     style="fill:#e76f51;fill-rule:nonzero;stroke-width:0.414038;font-variation-settings:normal;opacity:1;vector-effect:none;fill-opacity:1;stroke-linecap:butt;stroke-linejoin:miter;stroke-miterlimit:1.41421;stroke-dasharray:none;stroke-dashoffset:0;stroke-opacity:1;stop-color:#000000;stop-opacity:1"
     d="M 182.11914 16.630859 L 175.72461 19.134766 L 174.68945 24.949219 L 170.79883 24.949219 L 169.76562 30.599609 L 173.59375 30.599609 L 172.28906 37.759766 C 172.22696 38.153103 172.12499 38.731708 172.02148 39.476562 C 171.91797 40.221831 171.85547 40.884821 171.85547 41.443359 C 171.87617 44.030269 172.4958 46.159911 173.7168 47.835938 C 174.93738 49.553782 176.92404 50.568791 179.69727 50.878906 L 182.36719 45.375 C 180.93958 45.188683 179.86363 44.629608 179.09766 43.677734 C 178.3321 42.705158 177.95898 41.483851 177.95898 39.994141 C 177.95898 39.704315 178.00039 39.291374 178.0625 38.732422 C 178.1246 38.173885 178.1879 37.717167 178.25 37.365234 L 179.49023 30.599609 L 184.87109 30.599609 L 185.90625 24.949219 L 180.56641 24.949219 L 182.11914 16.630859 z M 124.11523 23.542969 L 118.56836 25.921875 C 119.04451 26.646028 119.41681 27.412961 119.64453 28.199219 C 119.85155 28.985892 119.95508 29.72936 119.95508 30.412109 C 119.95508 30.764042 119.93515 31.199637 119.87305 31.675781 C 119.83165 32.151925 119.76913 32.523844 119.70703 32.792969 L 116.41602 50.320312 L 122.37695 50.320312 L 125.87305 31.40625 C 126.72141 30.764905 127.63248 30.287848 128.60547 29.957031 C 129.59875 29.605099 130.46684 29.419922 131.19141 29.419922 C 131.97767 29.419922 132.64144 29.646534 133.17969 30.101562 C 133.69682 30.536303 133.94531 31.178177 133.94531 32.068359 C 133.94531 32.316368 133.90312 32.689897 133.82031 33.207031 C 133.73751 33.683175 133.67539 34.118014 133.61328 34.490234 L 132.12305 41.484375 C 132.01954 42.022624 131.91601 42.580503 131.8125 43.160156 C 131.70899 43.760097 131.66797 44.278565 131.66797 44.712891 C 131.66797 46.389332 132.12352 47.79462 133.05469 48.912109 C 133.94446 50.029598 135.53731 50.693002 137.83398 50.878906 L 140.46289 45.560547 C 139.57312 45.416048 138.93198 45.083954 138.53906 44.566406 C 138.12502 44.069974 137.91797 43.366745 137.91797 42.476562 C 137.91797 42.269957 137.93907 42.023031 137.98047 41.753906 C 138.00117 41.484782 138.0418 41.257413 138.0625 41.091797 L 139.57227 33.972656 C 139.69648 33.372301 139.8 32.772231 139.88281 32.171875 C 139.96521 31.592636 140.00781 31.01403 140.00781 30.455078 C 140.00781 28.406417 139.40733 26.750296 138.20703 25.529297 C 136.98603 24.308299 135.29006 23.6875 133.11719 23.6875 C 131.85479 23.6875 130.65379 23.894556 129.47461 24.308594 C 128.31572 24.70193 126.90806 25.363361 125.27344 26.335938 C 125.21134 25.943015 125.0664 25.467936 124.85938 24.929688 C 124.63165 24.412554 124.38435 23.956593 124.11523 23.542969 z M 156.95508 23.6875 C 155.11344 23.6875 153.39557 24.100829 151.84375 24.908203 C 150.27082 25.715163 148.92687 26.832162 147.83008 28.259766 C 146.69224 29.66664 145.82334 31.303985 145.18164 33.166016 C 144.54071 35.069662 144.22852 37.097708 144.22852 39.228516 C 144.22852 41.090859 144.4774 42.746592 144.95312 44.195312 C 145.42927 45.643617 146.11141 46.863362 146.98047 47.835938 C 147.82925 48.829215 148.88488 49.574663 150.10547 50.091797 C 151.32647 50.609345 152.69347 50.878906 154.18359 50.878906 C 155.98383 50.878906 157.76343 50.547227 159.54297 49.884766 C 161.34362 49.222719 162.91456 48.189348 164.25977 46.802734 L 162.02539 41.628906 C 160.99071 42.787799 159.85224 43.657457 158.58984 44.257812 C 157.32743 44.857754 156.06592 45.146484 154.82422 45.146484 C 153.3755 45.146484 152.23783 44.69172 151.41016 43.78125 C 150.6032 42.850079 150.18945 41.69167 150.18945 40.326172 L 150.18945 39.931641 C 150.18945 39.766025 150.2086 39.601162 150.25 39.435547 C 151.34679 39.291048 152.58995 39.103892 153.97656 38.855469 C 155.36276 38.607047 156.76926 38.317145 158.19727 37.986328 C 159.62488 37.634396 161.01104 37.242163 162.37695 36.828125 C 163.72175 36.414086 164.92352 35.979662 165.9375 35.544922 L 165.9375 33.166016 C 165.9375 31.696595 165.70894 30.371 165.25391 29.191406 C 164.77776 28.053215 164.15657 27.061255 163.34961 26.212891 C 162.54224 25.385229 161.56945 24.763648 160.47266 24.349609 C 159.39658 23.914869 158.21749 23.6875 156.95508 23.6875 z M 156.31445 28.466797 C 157.41123 28.466797 158.32035 28.818816 159.04492 29.542969 C 159.76907 30.24642 160.14258 31.302451 160.14258 32.730469 C 159.54222 32.916786 158.83938 33.143373 158.01172 33.371094 C 157.16335 33.578113 156.31438 33.786339 155.44531 33.972656 C 154.55554 34.158974 153.70774 34.344151 152.85938 34.509766 C 152.01101 34.654679 151.2847 34.779304 150.66406 34.882812 C 150.76757 34.013747 150.95473 33.185479 151.24414 32.419922 C 151.55467 31.654366 151.9481 30.972232 152.42383 30.392578 C 152.94138 29.813339 153.49886 29.335893 154.14062 28.984375 C 154.78239 28.632856 155.50748 28.466797 156.31445 28.466797 z " /><g
     transform="matrix(0.41403816,0,0,0.41403816,-0.03918504,0.00963718)"
     id="g16"
     style="fill:#ffffff">
            <path
   d="m 404.17,140.454 c 0,-1.249 -0.2,-2.399 -0.6,-3.398 -0.4,-1 -0.95,-1.85 -1.599,-2.599 -0.7,-0.7 -1.5,-1.25 -2.449,-1.6 -0.95,-0.35 -2,-0.549 -3.099,-0.549 -1.45,0 -2.799,0.299 -4.049,0.849 -1.249,0.55 -2.349,1.35 -3.298,2.349 -0.95,1 -1.7,2.149 -2.249,3.499 -0.55,1.349 -0.85,2.799 -0.85,4.398 0,1.25 0.2,2.349 0.6,3.399 0.35,0.999 0.899,1.849 1.599,2.549 0.65,0.749 1.5,1.299 2.449,1.699 0.95,0.35 1.999,0.55 3.149,0.55 1.399,0 2.749,-0.3 3.998,-0.85 1.25,-0.55 2.349,-1.349 3.299,-2.349 0.95,-0.95 1.699,-2.149 2.249,-3.499 0.55,-1.349 0.85,-2.848 0.85,-4.448 z m -13.895,-0.05 c 0.3,-0.899 0.7,-1.699 1.2,-2.399 0.55,-0.699 1.199,-1.249 1.949,-1.699 0.75,-0.45 1.549,-0.65 2.499,-0.65 1.449,0 2.499,0.45 3.249,1.35 0.749,0.849 1.149,2.099 1.149,3.648 0,0.95 -0.15,1.899 -0.45,2.849 -0.249,0.9 -0.649,1.699 -1.199,2.399 -0.55,0.7 -1.2,1.25 -1.949,1.699 -0.75,0.4 -1.6,0.6 -2.499,0.6 -1.45,0 -2.499,-0.45 -3.249,-1.299 -0.75,-0.9 -1.149,-2.099 -1.149,-3.649 0,-0.949 0.149,-1.899 0.449,-2.849 z"
   style="fill-rule:nonzero;fill:#ffffff"
   id="path14" />
        </g><g
     transform="matrix(0.41403816,0,0,0.41403816,-0.03918504,0.00963718)"
     id="g20"
     style="fill:#ffffff">
            <path
   d="m 434.558,132.557 h -3.549 l -1.899,11.046 c -0.05,0.15 -0.1,0.4 -0.1,0.75 0,0.35 0,0.599 0,0.849 h -0.15 l -6.397,-12.645 h -3.349 l -3.349,18.743 h 3.599 l 1.999,-11.296 c 0.05,-0.149 0.05,-0.399 0.05,-0.649 0,-0.25 0,-0.55 0,-0.85 h 0.15 l 6.547,12.945 3.199,-0.3 z"
   style="fill-rule:nonzero;fill:#ffffff"
   id="path18" />
        </g><g
     transform="matrix(0.41403816,0,0,0.41403816,-0.03918504,0.00963718)"
     id="g24"
     style="fill:#ffffff">
            <path
   d="m 374.382,132.557 h -3.649 l -3.349,18.743 h 3.699 z"
   style="fill-rule:nonzero;fill:#ffffff"
   id="path22" />
        </g><g
     transform="matrix(0.41403816,0,0,0.41403816,-0.03918504,0.00963718)"
     id="g28"
     style="fill:#ffffff">
            <path
   d="m 328.95,132.557 h -4.248 c -0.8,1.35 -1.65,2.899 -2.599,4.549 -0.95,1.649 -1.85,3.348 -2.749,5.048 -0.9,1.699 -1.7,3.348 -2.449,4.948 -0.75,1.599 -1.35,2.998 -1.8,4.198 h 3.849 c 0.15,-0.35 0.3,-0.8 0.5,-1.25 0.2,-0.449 0.4,-0.949 0.65,-1.399 0.199,-0.45 0.399,-0.9 0.599,-1.349 0.2,-0.45 0.4,-0.85 0.55,-1.2 h 6.497 c 0.05,0.45 0.05,0.9 0.1,1.399 l 0.15,1.45 c 0.05,0.45 0.1,0.9 0.15,1.349 0.05,0.45 0.05,0.8 0.05,1.15 l 3.699,-0.3 c 0,-0.7 -0.05,-1.499 -0.15,-2.449 -0.05,-0.95 -0.2,-1.949 -0.35,-2.999 -0.15,-1.049 -0.3,-2.199 -0.5,-3.348 -0.15,-1.15 -0.35,-2.3 -0.599,-3.449 -0.2,-1.15 -0.4,-2.249 -0.65,-3.349 -0.25,-1.049 -0.45,-2.049 -0.7,-2.999 z m -2.349,5.548 c 0.1,0.55 0.2,1.15 0.3,1.799 0.1,0.6 0.2,1.2 0.25,1.75 0.1,0.55 0.15,0.949 0.2,1.299 h -4.649 c 0.25,-0.45 0.5,-0.949 0.75,-1.499 0.3,-0.55 0.6,-1.15 0.9,-1.749 0.35,-0.6 0.65,-1.15 0.949,-1.7 0.3,-0.55 0.55,-1.049 0.8,-1.399 h 0.2 c 0.1,0.4 0.2,0.899 0.3,1.499 z"
   style="fill-rule:nonzero;fill:#ffffff"
   id="path26" />
        </g><g
     transform="matrix(0.41403816,0,0,0.41403816,-0.03918504,0.00963718)"
     id="g32"
     style="fill:#ffffff">
            <path
   d="m 357.638,135.956 0.55,-3.399 h -12.795 l -0.549,3.399 h 4.548 l -2.649,15.344 h 3.648 l 2.699,-15.344 z"
   style="fill-rule:nonzero;fill:#ffffff"
   id="path30" />
        </g><g
     transform="matrix(0.41403816,0,0,0.41403816,-0.03918504,0.00963718)"
     id="g36"
     style="fill:#ffffff">
            <path
   d="m 297.462,132.308 c -1.049,0 -2.099,0.05 -3.148,0.149 -1.05,0.15 -2.049,0.3 -2.999,0.55 l -3.149,17.843 c 0.95,0.25 2.049,0.4 3.249,0.55 1.15,0.15 2.249,0.2 3.299,0.2 1.549,0 2.948,-0.25 4.298,-0.75 1.349,-0.55 2.549,-1.249 3.549,-2.199 0.999,-0.95 1.799,-2.099 2.399,-3.449 0.549,-1.349 0.849,-2.898 0.849,-4.598 0,-1.349 -0.2,-2.499 -0.599,-3.548 -0.45,-1.05 -1,-1.9 -1.75,-2.599 -0.749,-0.7 -1.649,-1.25 -2.649,-1.6 -1.049,-0.35 -2.149,-0.549 -3.348,-0.549 z m -0.799,3.398 c 0.75,0 1.449,0.1 2.099,0.25 0.65,0.15 1.2,0.45 1.649,0.85 0.5,0.4 0.9,0.899 1.15,1.549 0.25,0.6 0.4,1.35 0.4,2.299 0,1.2 -0.15,2.249 -0.5,3.199 -0.3,0.95 -0.75,1.749 -1.349,2.399 -0.6,0.65 -1.3,1.1 -2.15,1.449 -0.849,0.35 -1.749,0.5 -2.798,0.5 -0.45,0 -0.9,0 -1.45,-0.05 -0.55,-0.05 -1.049,-0.1 -1.399,-0.15 l 2.149,-12.095 c 0.3,-0.05 0.7,-0.1 1.149,-0.15 0.45,-0.05 0.8,-0.05 1.05,-0.05 z"
   style="fill-rule:nonzero;fill:#ffffff"
   id="path34" />
        </g><g
     transform="matrix(0.41403816,0,0,0.41403816,-0.03918504,0.00963718)"
     id="g40"
     style="fill:#ffffff">
            <path
   d="m 185.807,62.585 c 1.15,1.75 2.049,3.599 2.599,5.498 0.5,1.899 0.75,3.699 0.75,5.348 0,0.85 -0.05,1.899 -0.2,3.049 -0.1,1.149 -0.25,2.049 -0.4,2.699 l -7.947,42.333 h 14.394 L 203.45,75.83 c 2.049,-1.549 4.248,-2.699 6.597,-3.498 2.399,-0.85 4.499,-1.3 6.248,-1.3 1.899,0 3.499,0.55 4.798,1.649 1.25,1.05 1.849,2.599 1.849,4.749 0,0.599 -0.1,1.499 -0.3,2.748 -0.199,1.15 -0.349,2.2 -0.499,3.099 l -3.599,16.893 c -0.25,1.3 -0.5,2.649 -0.75,4.049 -0.249,1.449 -0.349,2.699 -0.349,3.748 0,4.049 1.099,7.447 3.348,10.146 2.149,2.699 5.998,4.299 11.546,4.748 l 6.347,-12.845 c -2.149,-0.349 -3.698,-1.149 -4.648,-2.399 -1,-1.199 -1.499,-2.898 -1.499,-5.048 0,-0.499 0.05,-1.099 0.15,-1.749 0.05,-0.65 0.15,-1.199 0.2,-1.599 l 3.648,-17.193 c 0.3,-1.45 0.55,-2.899 0.75,-4.349 0.2,-1.399 0.3,-2.798 0.3,-4.148 0,-4.948 -1.45,-8.946 -4.349,-11.895 -2.948,-2.949 -7.047,-4.448 -12.295,-4.448 -3.048,0 -5.947,0.499 -8.796,1.499 -2.799,0.95 -6.198,2.549 -10.146,4.898 -0.15,-0.949 -0.5,-2.099 -1,-3.399 -0.549,-1.249 -1.149,-2.349 -1.799,-3.348 l -13.395,5.748 z"
   style="fill-rule:nonzero;fill:#ffffff"
   id="path38" />
        </g><g
     transform="matrix(0.41403816,0,0,0.41403816,-0.03918504,0.00963718)"
     id="g44"
     style="fill:#ffffff">
            <path
   d="m 276.821,31.548 h -14.145 l -10.795,58.476 c -0.45,1.95 -0.8,3.999 -1.05,6.148 -0.25,2.099 -0.4,4.048 -0.4,5.848 0,5.797 1.1,10.545 3.349,14.244 2.249,3.699 6.048,5.898 11.395,6.597 l 6.498,-13.294 c -1.05,-0.5 -1.949,-1.05 -2.799,-1.65 -0.85,-0.549 -1.549,-1.299 -2.099,-2.149 -0.6,-0.849 -1.05,-1.849 -1.3,-3.049 -0.25,-1.199 -0.399,-2.699 -0.399,-4.448 0,-0.849 0.05,-1.799 0.149,-2.799 0.15,-1.049 0.3,-2.099 0.45,-3.198 z"
   style="fill-rule:nonzero;fill:#ffffff"
   id="path42" />
        </g><g
     transform="matrix(0.41403816,0,0,0.41403816,-0.03918504,0.00963718)"
     id="g48"
     style="fill:#ffffff">
            <path
   d="m 246.433,132.557 h -3.649 l -2.399,13.695 c -0.499,0.55 -1.099,1 -1.849,1.399 -0.75,0.35 -1.549,0.55 -2.449,0.55 -0.9,0 -1.599,-0.2 -2.099,-0.6 -0.55,-0.449 -0.8,-1.149 -0.8,-2.199 0,-0.2 0.05,-0.5 0.1,-0.899 0.05,-0.35 0.05,-0.7 0.1,-1 l 1.999,-10.946 h -3.698 l -1.949,10.896 c -0.05,0.45 -0.1,0.9 -0.15,1.35 -0.05,0.449 -0.05,0.799 -0.05,1.149 0,1 0.15,1.849 0.45,2.599 0.299,0.75 0.699,1.3 1.199,1.749 0.55,0.45 1.15,0.8 1.799,1 0.7,0.2 1.4,0.3 2.15,0.3 1.849,0 3.498,-0.55 4.998,-1.7 0,0.25 0,0.55 0.05,0.85 0,0.25 0,0.5 0.05,0.75 l 3.648,-0.25 c -0.05,-0.25 -0.05,-0.5 -0.05,-0.8 -0.05,-0.25 -0.05,-0.55 -0.05,-0.899 0,-0.6 0.05,-1.25 0.1,-1.9 0.05,-0.699 0.1,-1.349 0.25,-1.949 z"
   style="fill-rule:nonzero;fill:#ffffff"
   id="path46" />
        </g><g
     transform="matrix(0.41403816,0,0,0.41403816,-0.03918504,0.00963718)"
     id="g52"
     style="fill:#ffffff">
            <path
   d="m 276.621,132.557 h -3.549 l -1.899,11.046 c -0.05,0.15 -0.1,0.4 -0.1,0.75 0,0.35 0,0.599 0,0.849 h -0.15 l -6.397,-12.645 h -3.349 l -3.349,18.743 h 3.599 l 1.999,-11.296 c 0.05,-0.149 0.05,-0.399 0.05,-0.649 0,-0.25 0,-0.55 0,-0.85 h 0.15 l 6.548,12.945 3.198,-0.3 z"
   style="fill-rule:nonzero;fill:#ffffff"
   id="path50" />
        </g><g
     transform="matrix(0.41403816,0,0,0.41403816,-0.03918504,0.00963718)"
     id="g56"
     style="fill:#ffffff">
            <path
   d="m 214.796,134.457 c -0.7,-0.7 -1.5,-1.25 -2.449,-1.6 -0.95,-0.35 -2,-0.549 -3.099,-0.549 -1.45,0 -2.799,0.299 -4.049,0.849 -1.249,0.55 -2.349,1.35 -3.298,2.349 -0.95,1 -1.7,2.149 -2.249,3.499 -0.55,1.349 -0.85,2.799 -0.85,4.398 0,1.25 0.2,2.349 0.6,3.399 0.35,0.999 0.899,1.849 1.599,2.549 0.65,0.749 1.499,1.299 2.449,1.699 0.95,0.35 1.999,0.55 3.149,0.55 1.399,0 2.749,-0.3 3.998,-0.85 1.25,-0.55 2.349,-1.349 3.299,-2.349 0.95,-0.95 1.699,-2.149 2.249,-3.499 0.55,-1.349 0.85,-2.848 0.85,-4.448 0,-1.249 -0.2,-2.399 -0.6,-3.398 -0.4,-1 -0.95,-1.85 -1.599,-2.599 z m -10.496,3.548 c 0.55,-0.699 1.199,-1.249 1.949,-1.699 0.75,-0.45 1.549,-0.65 2.499,-0.65 1.449,0 2.499,0.45 3.249,1.35 0.749,0.849 1.149,2.099 1.149,3.648 0,0.95 -0.15,1.899 -0.45,2.849 -0.249,0.9 -0.649,1.699 -1.199,2.399 -0.55,0.7 -1.2,1.25 -1.949,1.699 -0.75,0.4 -1.6,0.6 -2.499,0.6 -1.45,0 -2.499,-0.45 -3.249,-1.299 -0.75,-0.9 -1.15,-2.099 -1.15,-3.649 0,-0.949 0.15,-1.899 0.45,-2.849 0.3,-0.899 0.7,-1.699 1.2,-2.399 z"
   style="fill-rule:nonzero;fill:#ffffff"
   id="path54" />
        </g><g
     transform="matrix(0.41403816,0,0,0.41403816,-0.03918504,0.00963718)"
     id="g60"
     style="fill:#ffffff">
            <path
   d="M 188.256,132.557 H 177.96 l -3.348,18.743 h 3.698 l 1.25,-7.147 h 6.747 l 0.6,-3.399 h -6.748 l 0.85,-4.798 h 6.647 z"
   style="fill-rule:nonzero;fill:#ffffff"
   id="path58" />
        </g><path
     id="path62"
     style="fill:#e76f51;fill-rule:nonzero;stroke-width:0.414038;fill-opacity:1"
     d="M 36.476562 0.0078125 C 32.610914 -0.1100315 29.094138 1.0688098 25.943359 3.53125 C 22.612008 6.1181604 20.583942 9.4507241 19.859375 13.527344 C 19.797265 13.879276 19.736717 14.209029 19.695312 14.560547 C 19.653913 14.91248 19.633561 15.245355 19.613281 15.576172 C 19.468368 17.480333 19.653545 19.300931 20.150391 21.039062 C 20.708928 23.067021 21.680989 24.970832 23.087891 26.771484 C 24.495206 28.571722 26.10953 29.977819 27.951172 31.033203 C 29.503401 31.922971 31.22047 32.524239 33.103516 32.855469 C 33.434746 32.917579 33.765669 32.957425 34.117188 33.019531 C 34.303505 33.040231 34.491416 33.061321 34.677734 33.082031 C 35.133176 31.239976 35.836018 29.522932 36.808594 27.970703 C 36.167249 27.991403 35.503844 27.971846 34.841797 27.910156 C 34.800397 27.889456 34.780466 27.888672 34.759766 27.888672 C 33.99421 27.785162 33.249155 27.63983 32.566406 27.412109 C 30.434938 26.72936 28.635438 25.467029 27.166016 23.583984 C 25.697009 21.700938 24.910124 19.652947 24.765625 17.417969 C 24.724225 16.693402 24.744566 15.968682 24.847656 15.203125 L 24.847656 15.121094 C 25.240992 12.037752 26.668575 9.5338244 29.130859 7.609375 C 31.61426 5.6849257 34.408457 4.8980934 37.533203 5.2910156 C 40.657949 5.66365 43.182972 7.091232 45.107422 9.5742188 C 47.031871 12.05762 47.817534 14.851817 47.445312 17.976562 C 47.341803 18.680428 47.217567 19.341077 47.03125 19.982422 C 48.769382 19.423885 50.590393 19.135548 52.494141 19.15625 C 52.514841 18.969933 52.557425 18.783559 52.578125 18.597656 C 53.136663 14.065595 51.997811 9.9876086 49.183594 6.3867188 C 46.369376 2.7862429 42.685945 0.69762339 38.154297 0.13867188 C 37.587789 0.06885469 37.028798 0.024647357 36.476562 0.0078125 z M 16.037109 15.292969 C 12.519876 15.370141 9.3039663 16.542921 6.3886719 18.824219 C 2.7674941 21.638851 0.69762338 25.321454 0.13867188 29.853516 C -0.41945157 34.385163 0.69828385 38.442861 3.5332031 42.064453 C 6.1201135 45.396218 9.4507245 47.422331 13.527344 48.146484 C 13.858575 48.208594 14.19145 48.250394 14.542969 48.3125 C 14.894901 48.3539 15.224654 48.395316 15.576172 48.416016 C 17.480334 48.540227 19.30093 48.355046 21.039062 47.878906 C 23.046319 47.299667 24.970832 46.306536 26.771484 44.919922 C 28.55102 43.512607 29.958703 41.897112 31.013672 40.076172 C 31.903854 38.523943 32.503536 36.806874 32.855469 34.923828 C 31.054817 34.613299 29.400254 34.075347 27.869141 33.330078 C 27.765632 34.054645 27.621081 34.758657 27.414062 35.441406 C 26.731313 37.572874 25.468984 39.372789 23.585938 40.841797 C 21.702479 42.311218 19.652533 43.118758 17.417969 43.263672 C 16.693402 43.305072 15.949151 43.285151 15.183594 43.181641 C 15.162894 43.181641 15.141804 43.180856 15.121094 43.160156 C 12.037756 42.76682 9.5338244 41.339652 7.609375 38.876953 C 5.6642238 36.393552 4.8785622 33.600138 5.2714844 30.496094 C 5.6648207 27.371348 7.0931851 24.82484 9.5761719 22.900391 C 12.038871 20.975942 14.811189 20.190648 17.894531 20.583984 C 17.543012 18.907544 17.418001 17.149065 17.5625 15.328125 C 17.047747 15.294484 16.539571 15.281944 16.037109 15.292969 z M 52.302734 21.189453 C 50.905802 21.211754 49.555552 21.406877 48.251953 21.763672 C 46.223994 22.322624 44.320183 23.31534 42.519531 24.722656 C 40.719294 26.108856 39.312026 27.722811 38.277344 29.564453 C 37.387576 31.116268 36.787479 32.833751 36.435547 34.716797 C 38.236199 35.027326 39.892715 35.54499 41.423828 36.310547 C 41.527338 35.565692 41.671887 34.86168 41.878906 34.199219 C 42.561655 32.068165 43.823986 30.267835 45.707031 28.798828 C 47.590077 27.329406 49.638852 26.521867 51.894531 26.376953 C 52.619098 26.335553 53.341866 26.357427 54.107422 26.460938 L 54.169922 26.460938 C 57.253264 26.854274 59.757191 28.302926 61.681641 30.765625 C 63.626792 33.22791 64.414406 36.021738 64.021484 39.146484 C 63.628148 42.27123 62.198613 44.795083 59.736328 46.740234 C 57.273629 48.665098 54.48178 49.431228 51.398438 49.058594 C 51.749955 50.735034 51.852728 52.493513 51.728516 54.314453 C 55.84654 54.583578 59.570579 53.403316 62.902344 50.816406 C 66.50282 48.002188 68.593393 44.319171 69.152344 39.787109 C 69.710878 35.25546 68.573984 31.178601 65.759766 27.578125 C 63.152154 24.24636 59.81959 22.218294 55.763672 21.494141 C 55.41174 21.432036 55.080816 21.369529 54.75 21.328125 C 54.398067 21.286725 54.066363 21.245309 53.714844 21.224609 C 53.238804 21.193557 52.768378 21.182019 52.302734 21.189453 z M 34.615234 36.558594 C 34.159792 38.400235 33.456951 40.118107 32.484375 41.669922 C 33.125721 41.628522 33.787954 41.649612 34.470703 41.732422 C 34.491403 41.732422 34.51054 41.733206 34.53125 41.753906 C 35.296807 41.836716 36.023113 41.981263 36.726562 42.208984 C 38.858032 42.891733 40.657532 44.173596 42.126953 46.056641 C 43.595961 47.918985 44.382845 49.968929 44.527344 52.224609 C 44.568744 52.948761 44.548402 53.671943 44.445312 54.4375 L 44.445312 54.521484 C 44.051977 57.604826 42.622441 60.108339 40.160156 62.033203 C 37.676755 63.957652 34.884512 64.742945 31.759766 64.349609 C 28.63502 63.956687 26.109996 62.529105 24.185547 60.066406 C 22.240395 57.58342 21.454734 54.790762 21.847656 51.666016 C 21.930466 50.962151 22.074231 50.299962 22.28125 49.658203 C 20.522416 50.217155 18.700622 50.486328 16.796875 50.486328 C 16.776175 50.672646 16.735544 50.858605 16.714844 51.044922 C 16.156307 55.576984 17.274456 59.632728 20.109375 63.253906 C 22.923592 66.854796 26.607025 68.945369 31.138672 69.503906 C 35.670734 70.062444 39.726064 68.923593 43.347656 66.109375 C 46.679007 63.501763 48.707075 60.17037 49.431641 56.09375 C 49.493751 55.762934 49.53555 55.43201 49.597656 55.080078 C 49.617946 54.728559 49.658987 54.397637 49.679688 54.066406 C 49.803899 52.141957 49.618313 50.320946 49.142578 48.603516 C 48.583626 46.575143 47.589325 44.671332 46.203125 42.871094 C 44.795809 41.070857 43.182681 39.642103 41.361328 38.607422 C 39.788811 37.717654 38.070959 37.118339 36.1875 36.787109 C 35.856683 36.724999 35.525761 36.662498 35.173828 36.621094 C 34.987925 36.600394 34.801551 36.579304 34.615234 36.558594 z " /><g
     transform="matrix(0.41403816,0,0,0.41403816,-0.03918504,0.00963718)"
     id="g72"
     style="fill:#ffffff">
            <path
   d="m 128.93,78.729 c -3.449,-0.4 -6.498,0.45 -9.246,2.599 -2.749,2.149 -4.299,4.898 -4.699,8.297 -0.449,3.448 0.4,6.497 2.549,9.246 2.15,2.749 4.898,4.298 8.347,4.698 3.399,0.45 6.448,-0.4 9.196,-2.549 2.749,-2.149 4.299,-4.898 4.749,-8.347 0.399,-3.398 -0.45,-6.447 -2.599,-9.196 -2.15,-2.749 -4.898,-4.298 -8.297,-4.748 z"
   style="fill-rule:nonzero;fill:#ffffff"
   id="path70" />
        </g><g
     transform="matrix(0.41403816,0,0,0.41403816,-0.03918504,0.00963718)"
     id="g80"
     style="fill:#ffffff">
            <path
   d="m 32.469,67.134 c -2.749,2.099 -4.299,4.898 -4.749,8.346 -0.399,3.349 0.45,6.398 2.599,9.147 2.1,2.749 4.848,4.348 8.297,4.798 3.449,0.35 6.497,-0.5 9.246,-2.599 2.699,-2.149 4.249,-4.948 4.698,-8.297 0.45,-3.449 -0.399,-6.547 -2.549,-9.246 -2.149,-2.749 -4.898,-4.299 -8.346,-4.698 -3.449,-0.45 -6.498,0.399 -9.196,2.549 z"
   style="fill-rule:nonzero;fill:#ffffff"
   id="path78" />
        </g><g
     transform="matrix(0.41403816,0,0,0.41403816,-0.03918504,0.00963718)"
     id="g84"
     style="fill:#ffffff">
            <path
   d="m 97.293,32.348 c -2.15,-2.749 -4.948,-4.299 -8.347,-4.699 -3.449,-0.449 -6.497,0.4 -9.196,2.549 -2.749,2.1 -4.349,4.898 -4.749,8.347 -0.449,3.399 0.45,6.447 2.599,9.196 2.1,2.699 4.849,4.299 8.297,4.749 3.399,0.349 6.448,-0.5 9.196,-2.599 2.749,-2.15 4.299,-4.948 4.749,-8.297 0.399,-3.449 -0.45,-6.547 -2.549,-9.246 z"
   style="fill-rule:nonzero;fill:#ffffff"
   id="path82" />
        </g><g
     transform="matrix(0.41403816,0,0,0.41403816,-0.03918504,0.00963718)"
     id="g92"
     style="fill:#ffffff">
            <path
   d="m 89.995,120.412 c -2.149,-2.749 -4.898,-4.298 -8.346,-4.748 -3.449,-0.4 -6.498,0.45 -9.196,2.599 -2.749,2.149 -4.299,4.898 -4.749,8.297 -0.449,3.448 0.45,6.497 2.599,9.246 2.1,2.749 4.848,4.298 8.297,4.698 3.449,0.45 6.497,-0.4 9.246,-2.549 2.699,-2.149 4.249,-4.898 4.698,-8.346 0.4,-3.399 -0.449,-6.448 -2.549,-9.197 z"
   style="fill-rule:nonzero;fill:#ffffff"
   id="path90" />
        </g></g>
</svg>
