<?xml version="1.0" encoding="UTF-8" standalone="no"?>
<svg
   xmlns:dc="http://purl.org/dc/elements/1.1/"
   xmlns:cc="http://creativecommons.org/ns#"
   xmlns:rdf="http://www.w3.org/1999/02/22-rdf-syntax-ns#"
   xmlns:svg="http://www.w3.org/2000/svg"
   xmlns="http://www.w3.org/2000/svg"
   xmlns:sodipodi="http://sodipodi.sourceforge.net/DTD/sodipodi-0.dtd"
   xmlns:inkscape="http://www.inkscape.org/namespaces/inkscape"
   width="16"
   height="16"
   viewBox="0 0 4.2333333 4.2333335"
   version="1.1"
   id="svg1789"
   inkscape:export-filename="/mnt/hdd/nextcloud/Manufactura WIP/js-shield/extension-icon/icon16.png"
   inkscape:export-xdpi="96"
   inkscape:export-ydpi="96"
   inkscape:version="1.0.2 (e86c870879, 2021-01-15)"
   sodipodi:docname="icon16.svg">
  <defs
     id="defs1783" />
  <sodipodi:namedview
     id="base"
     pagecolor="#ffffff"
     bordercolor="#666666"
     borderopacity="1.0"
     inkscape:pageopacity="0.0"
     inkscape:pageshadow="2"
     inkscape:zoom="11.313708"
     inkscape:cx="5.4339988"
     inkscape:cy="-0.48271983"
     inkscape:document-units="px"
     inkscape:current-layer="layer1"
     inkscape:document-rotation="0"
     showgrid="true"
     units="px"
     showguides="true"
     inkscape:snap-global="true"
     inkscape:window-width="1680"
     inkscape:window-height="1009"
     inkscape:window-x="0"
     inkscape:window-y="21"
     inkscape:window-maximized="1">
    <inkscape:grid
       type="xygrid"
       id="grid2409"
       visible="false"
       enabled="true" />
  </sodipodi:namedview>
  <metadata
     id="metadata1786">
    <rdf:RDF>
      <cc:Work
         rdf:about="">
        <dc:format>image/svg+xml</dc:format>
        <dc:type
           rdf:resource="http://purl.org/dc/dcmitype/StillImage" />
        <dc:title></dc:title>
      </cc:Work>
    </rdf:RDF>
  </metadata>
  <g
     inkscape:label="Layer 1"
     inkscape:groupmode="layer"
     id="layer1">
    <rect
       style="fill:#e76f51;fill-opacity:1;stroke:none;stroke-width:2.64582;stroke-miterlimit:4;stroke-dasharray:none;stroke-opacity:1;stop-color:#000000"
       id="rect2671"
       width="4.2333331"
       height="4.2333331"
       x="-1.0632323e-07"
       y="-1.0632323e-07"
       inkscape:export-xdpi="96"
       inkscape:export-ydpi="96" />
    <path
       id="path3066-9"
       style="font-family:none;font-variation-settings:normal;mix-blend-mode:normal;vector-effect:none;fill:#ffffff;fill-opacity:1;stroke:none;stroke-width:0.0150359;stroke-linecap:butt;stroke-linejoin:miter;stroke-miterlimit:4;stroke-dasharray:none;stroke-dashoffset:0;stroke-opacity:1;stop-color:#000000"
       d="M 0.21765262,2.6703841 C 0.21707345,2.9073514 0.3452549,3.11457 0.53775847,3.2257687 L 0.79375001,2.1166667 C 0.44333369,2.0643582 0.22376764,2.4029428 0.21765262,2.6703841 Z"
       inkscape:transform-center-x="0.13376278"
       inkscape:transform-center-y="-0.018341268"
       sodipodi:nodetypes="cccc" />
    <path
       d="m 0.26458334,1.5875 c 0,-0.1461249 0.11845992,-0.2645839 0.26458584,-0.2645839 0.14612291,0 0.26458084,0.118459 0.26458084,0.2645839 0,0.1461268 -0.11845793,0.2645828 -0.26458084,0.2645828 -0.14612592,0 -0.26458584,-0.118456 -0.26458584,-0.2645828 z"
       id="path3072-1"
       fill="#5c8b93"
       fill-rule="nonzero"
       stroke-width="0.351404"
       stroke-linecap="butt"
       stroke-linejoin="miter"
       stroke-miterlimit="4"
       style="font-family:none;font-variation-settings:normal;mix-blend-mode:normal;vector-effect:none;fill:#1a1a1a;fill-opacity:1;stroke:none;stroke-width:0.0170486;stroke-linecap:round;stroke-linejoin:round;stroke-miterlimit:4;stroke-dasharray:none;stroke-dashoffset:0;stroke-opacity:1;stop-color:#000000" />
    <path
       id="path3064-2"
       style="font-family:none;mix-blend-mode:normal;fill:#ffffff;fill-opacity:1;stroke:none;stroke-width:0.0105265;stroke-dasharray:none;stroke-dashoffset:0"
       d="m 1.7547645,1.9251857 c -0.4809549,-2e-6 -0.87086298,0.455882 -0.87086298,1.0182148 1.92e-6,0.2811693 0.0974871,0.5357004 0.25508058,0.719957 0.053636,0.062718 0.1142552,0.1172868 0.1803601,0.1619978 V 2.9434005 L 1.7547645,3.961599 V 2.9434005 Z" />
    <path
       id="path3068-3"
       style="font-family:none;font-variation-settings:normal;mix-blend-mode:normal;vector-effect:none;fill:#ffffff;fill-opacity:1;stroke:none;stroke-width:0.0153359;stroke-linecap:butt;stroke-linejoin:miter;stroke-miterlimit:4;stroke-dasharray:none;stroke-dashoffset:0;stroke-opacity:1;stop-color:#000000"
       d="M 3.0030217,3.0755554 C 3.2116431,3.2841767 3.6178093,3.6811676 3.6178093,3.6811676 3.2861498,3.7723829 2.9161839,3.6892491 2.6534713,3.4304531 2.5150244,3.2940987 2.4249482,3.1272366 2.383262,2.9511482 l -3.473e-4,0.1936426 -0.00115,0.680932 C 2.1470269,3.6893905 1.9893614,3.4350874 1.9898607,3.1441164 1.9902879,2.8531464 2.148901,2.5993811 2.3681275,2.63402 2.5873529,2.668655 2.8207432,2.8932788 3.0030217,3.0755554 Z"
       sodipodi:nodetypes="scccccccs" />
    <g
       id="g1334"
       transform="matrix(0.90790603,0,0,0.90790603,-44.206118,-64.837353)"
       style="stroke-width:1.10143">
      <path
         id="path3062-1"
         style="font-family:none;mix-blend-mode:normal;fill:#ffffff;fill-opacity:1;stroke:none;stroke-width:0.0165611;stroke-dasharray:none;stroke-dashoffset:0"
         d="m 51.254709,72.003278 c -0.384803,0 -0.769607,0.146792 -1.063201,0.440386 l 1.063201,1.0632 1.063199,1.063201 c 0.587188,-0.587187 0.587188,-1.539212 0,-2.126401 -0.293592,-0.293594 -0.678399,-0.440386 -1.063199,-0.440386 z" />
      <path
         id="path3087-8"
         style="font-family:none;mix-blend-mode:normal;fill:#ffffff;fill-opacity:1;stroke:none;stroke-width:0.0165611;stroke-dasharray:none;stroke-dashoffset:0"
         d="m 52.108262,71.787057 c -0.221695,0 -0.443391,0.08457 -0.612537,0.253717 l 0.612537,0.612536 0.612536,0.612536 c 0.338293,-0.338291 0.338293,-0.886779 0,-1.225072 -0.169146,-0.169145 -0.390844,-0.253718 -0.612536,-0.253717 z" />
      <path
         id="path3089-4"
         style="font-family:none;mix-blend-mode:normal;fill:#ffffff;fill-opacity:1;stroke:none;stroke-width:0.0165611;stroke-dasharray:none;stroke-dashoffset:0"
         d="m 52.629981,71.702083 c -0.10992,0 -0.219842,0.04193 -0.303708,0.125799 l 0.303708,0.303708 0.303709,0.303708 c 0.167733,-0.167732 0.167733,-0.439683 -10e-7,-0.607416 -0.08386,-0.08387 -0.193787,-0.125799 -0.303708,-0.125799 z" />
      <path
         id="path3091-5"
         style="font-family:none;mix-blend-mode:normal;fill:#f5ab8d;fill-opacity:1;stroke:none;stroke-width:0.0165611;stroke-dasharray:none;stroke-dashoffset:0"
         d="m 52.200473,72.13159 c 0,-0.109921 0.04193,-0.219841 0.1258,-0.303708 l 0.303708,0.303708 0.303709,0.303708 c -0.167733,0.167734 -0.439685,0.167734 -0.607417,-10e-7 -0.08387,-0.08386 -0.1258,-0.193788 -0.1258,-0.303707 z" />
      <path
         id="path3093-0"
         style="font-family:none;mix-blend-mode:normal;fill:#f5ab8d;fill-opacity:1;stroke:none;stroke-width:0.0165611;stroke-dasharray:none;stroke-dashoffset:0"
         d="m 51.242006,72.653311 c 0,-0.221695 0.08457,-0.44339 0.253718,-0.612537 l 0.612536,0.612537 0.612538,0.612535 c -0.338294,0.338295 -0.88678,0.338295 -1.225074,0 -0.169146,-0.169144 -0.253718,-0.390842 -0.253718,-0.612535 z" />
    </g>
    <path
       d="m 1.0583333,1.5875 c 0,-0.1461249 0.11846,-0.2645839 0.2645859,-0.2645839 0.1461229,0 0.2645808,0.118459 0.2645808,0.2645839 0,0.1461268 -0.1184579,0.2645828 -0.2645808,0.2645828 -0.1461259,0 -0.2645859,-0.118456 -0.2645859,-0.2645828 z"
       id="path5387"
       fill="#5c8b93"
       fill-rule="nonzero"
       stroke-width="0.351404"
       stroke-linecap="butt"
       stroke-linejoin="miter"
       stroke-miterlimit="4"
       style="font-family:none;font-variation-settings:normal;mix-blend-mode:normal;vector-effect:none;fill:#1a1a1a;fill-opacity:1;stroke:none;stroke-width:0.0170486;stroke-linecap:round;stroke-linejoin:round;stroke-miterlimit:4;stroke-dasharray:none;stroke-dashoffset:0;stroke-opacity:1;stop-color:#000000" />
  </g>
</svg>
